<?xml version="1.0" encoding="UTF-8"?>
<svg width="1353px" height="1036px" viewBox="0 0 1353 1036" version="1.1" xmlns="http://www.w3.org/2000/svg" xmlns:xlink="http://www.w3.org/1999/xlink">
    <!-- Generator: Sketch 43.1 (39012) - http://www.bohemiancoding.com/sketch -->
    <title>v</title>
    <desc>Created with Sketch.</desc>
    <defs>
        <polygon id="path-1" points="0.479617874 53.7318 0.63259168 0.117 79.5310817 45.6768 79.3781079 99.2916"></polygon>
        <polygon id="path-3" points="0.0116979969 54.4023 0.164671803 0.7875 79.0631618 46.3473 78.910188 99.9621"></polygon>
        <polygon id="path-5" points="0.514711864 6.8292 0.532708783 0.1665 17.7800555 10.1259 17.7602589 16.7895"></polygon>
        <polygon id="path-7" points="0.659587057 5.247 0.671285054 0.8703 12.0066441 7.416 11.9940462 11.7936"></polygon>
        <polygon id="path-9" points="0.201565485 70.1568 0.399531587 0.3528 5.46116487 3.2742 5.26319877 73.0782"></polygon>
        <polygon id="path-11" points="0.275352851 18.3186 0.326644068 0.2196 5.38827735 3.1446 5.33698613 21.2418"></polygon>
        <polygon id="path-13" points="0.275352851 18.2853 0.326644068 0.1863 5.38827735 3.1113 5.33698613 21.2085"></polygon>
        <polygon id="path-15" points="0.380634823 95.022 0.200665639 31.8528 55.1605547 0.117 55.3405239 63.2853"></polygon>
        <polygon id="path-17" points="0.21596302 41.7096 0.167371341 25.0263 42.7120863 0.459 42.7597781 17.1414"></polygon>
        <polygon id="path-19" points="0.335642527 61.0713 0.19166718 10.395 16.6723451 0.8784 16.8163205 51.5547"></polygon>
        <polygon id="path-21" points="0.00899845917 47.2563 80.5362096 0.4518 185.082108 60.8211 104.554897 107.6256"></polygon>
        <polygon id="path-23" points="0.217762712 47.826 81.3775655 0.6534 186.682034 61.461 105.521331 108.6345"></polygon>
        <polygon id="path-25" points="0.0143975347 47.4696 80.5416086 0.6651 185.085707 61.0335 104.560296 107.8389"></polygon>
        <polygon id="path-27" points="0.0116979969 47.034 80.5443082 0.2268 185.088407 60.597 104.556696 107.406"></polygon>
        <polygon id="path-29" points="0.521910632 28.5534 49.2800616 0.2142 95.4133621 26.8542 46.6570108 55.1934"></polygon>
        <polygon id="path-31" points="0.257355932 55.9296 0.414828968 0.4131 45.8255532 26.6337 45.6680801 82.1502"></polygon>
        <polygon id="path-33" points="0.686582435 13.0806 0.722576271 0.099 10.1349646 5.5332 10.097171 18.5148"></polygon>
        <polygon id="path-35" points="0.568702619 13.329 0.604696456 0.3465 10.0170847 5.7807 9.97929122 18.7623"></polygon>
        <polygon id="path-37" points="0.449922958 13.5756 0.487716487 0.594 9.89830508 6.0282 9.86231125 19.0098"></polygon>
        <polygon id="path-39" points="0 4.0347 6.59227119 0.2025 14.2562589 4.6278 7.66398767 8.46"></polygon>
        <polygon id="path-41" points="0.651488444 4.518 7.24375963 0.6858 14.9077473 5.1111 8.31547612 8.9424"></polygon>
        <polygon id="path-43" points="0.157473035 4.7295 6.75604314 0.8955 14.4200308 5.3199 7.82236055 9.1557"></polygon>
        <polygon id="path-45" points="0.305947612 4.6413 6.89911864 0.8091 14.5631063 5.2335 7.97083513 9.0657"></polygon>
        <polygon id="path-47" points="0.818859784 21.087 0.877349769 0.828 18.5089307 11.0106 18.4504407 31.2696"></polygon>
        <polygon id="path-49" points="0.737873652 8.4546 0.759469954 0.4266 7.74587365 4.4604 7.7233775 12.4884"></polygon>
        <polygon id="path-51" points="0.361738059 4.6413 6.95400924 0.8091 14.6179969 5.2335 8.02572573 9.0657"></polygon>
        <polygon id="path-53" points="0.629892142 65.4696 0.815260401 0.6264 91.3649553 52.9146 91.1813867 117.7578"></polygon>
        <polygon id="path-55" points="0.0134976888 65.385 0.197066256 0.5427 90.7521602 52.8327 90.5685917 117.6777"></polygon>
        <polygon id="path-57" points="0.352739599 199.5534 0.0404930663 89.4852 153.752173 0.7236 154.065319 110.7936"></polygon>
        <polygon id="path-59" points="0.424727273 200.7936 0.109781202 89.6373 155.340401 0 155.655347 111.1563"></polygon>
    </defs>
    <g id="Page-1" stroke="none" stroke-width="1" fill="none" fill-rule="evenodd">
        <g id="v">
            <g id="capside-work" transform="translate(93.000000, 86.000000)">
                <polyline id="Shape" fill="#3A5004" fill-rule="nonzero" points="738.712308 735.7734 734.366052 757.4904 737.151975 764.6508 750.649664 768.2895 764.147353 766.7073 773.907982 757.17 779.145085 743.688 768.046385 729.288"></polyline>
                <polygon id="Shape" fill="#EA0000" fill-rule="nonzero" points="474.996265 195.2892 475.896111 195.2892 475.896111 409.4892 474.996265 409.4892"></polygon>
                <polygon id="Shape" fill="#C1F227" fill-rule="nonzero" points="340.919223 372.5892 340.019378 372.5892 340.019378 318.6576 289.462435 347.6763 289.014311 346.896 340.919223 317.1042"></polygon>
                <polygon id="Shape" fill="#CCCCCC" fill-rule="nonzero" points="319.827735 761.4486 289.499328 743.8986 345.010823 712.7334 375.340129 729.6939"></polygon>
                <polygon id="Shape" fill="#B3B3B3" fill-rule="nonzero" points="319.911421 761.3973 289.595612 743.9103 289.403045 743.9517 289.403045 817.2387 319.911421 834.7689"></polygon>
                <path d="M319.79894,781.164 L289.558718,763.7202 L289.450737,763.7436 L289.355353,763.3044 L289.634305,763.2441 L289.708992,763.2855 L320.024801,780.7725 L319.79894,781.164 Z M319.79894,799.8363 L289.558718,782.3925 L289.450737,782.415 L289.356253,781.9758 L289.633405,781.9164 L289.708092,781.9596 L320.023901,799.4466 L319.79894,799.8363 Z M319.79894,818.5086 L289.558718,801.0648 L289.450737,801.0873 L289.356253,800.6481 L289.633405,800.5878 L289.708092,800.631 L320.023901,818.118 L319.79894,818.5086 Z" id="Shape" fill="#4C4C4C" fill-rule="nonzero"></path>
                <polygon id="Shape" fill="#4C4C4C" fill-rule="nonzero" points="319.451599 761.3973 375.300536 729.4221 375.377923 729.4626 375.377923 802.7496 319.452499 834.768"></polygon>
                <ellipse id="Oval" fill="#EA0000" fill-rule="nonzero" transform="translate(302.906102, 771.381947) rotate(58.807000) translate(-302.906102, -771.381947) " cx="302.906102" cy="771.381947" rx="3.18725424" ry="1.827"></ellipse>
                <polygon id="Shape" fill="#CCCCCC" fill-rule="nonzero" points="368.117966 790.5798 337.789559 773.028 393.301054 741.8637 423.629461 758.8242"></polygon>
                <polygon id="Shape" fill="#B3B3B3" fill-rule="nonzero" points="368.201652 790.5276 337.885843 773.0406 337.693276 773.0829 337.693276 846.3717 368.200752 863.901"></polygon>
                <path d="M368.089171,810.2952 L337.848949,792.8514 L337.740968,792.8739 L337.646484,792.4356 L337.923636,792.3762 L337.998324,792.4194 L368.314133,809.9064 L368.089171,810.2952 Z M368.089171,828.9666 L337.848949,811.5228 L337.740968,811.5471 L337.645584,811.1061 L337.922737,811.0458 L337.998324,811.089 L368.314133,828.576 L368.089171,828.9666 Z M368.089171,847.638 L337.848949,830.196 L337.740968,830.2185 L337.646484,829.7775 L337.923636,829.719 L337.998324,829.7622 L368.314133,847.2492 L368.089171,847.638 Z" id="Shape" fill="#4C4C4C" fill-rule="nonzero"></path>
                <polygon id="Shape" fill="#4C4C4C" fill-rule="nonzero" points="367.741831 790.5276 423.590767 758.5533 423.668154 758.5947 423.668154 831.8817 367.74273 863.9001"></polygon>
                <polygon id="Shape" fill="#EA0000" fill-rule="nonzero" points="303.125695 773.9892 302.225849 773.9892 302.225849 649.9116 302.900733 650.2986 405.407581 709.1946 446.482847 685.3986 446.93277 686.1789 405.409381 710.2359 303.125695 651.4677"></polygon>
                <polygon id="Shape" fill="#FFFFFF" fill-rule="nonzero" points="795.668955 727.362 795.215433 726.5853 1033.80058 587.4309 1033.80058 575.991 1034.70043 575.991 1034.70043 587.9493 1034.47726 588.0798"></polygon>
                <polygon id="Shape" fill="#C1F227" fill-rule="nonzero" points="251.262176 454.662 250.808653 453.8853 489.3938 314.73 489.3938 184.491 490.293646 184.491 490.293646 315.2493 490.070484 315.3798"></polygon>
                <polygon id="Shape" fill="#9AD30A" fill-rule="nonzero" points="566.36302 743.3532 223.150989 546.7968 566.36302 353.2788 909.575951 546.7968"></polygon>
                <polygon id="Shape" fill="#719B07" fill-rule="nonzero" points="567.219673 743.0184 224.252401 546.7284 223.892462 546.8067 223.892462 562.23 567.219673 758.5992"></polygon>
                <ellipse id="Oval" fill="#3A5004" fill-rule="nonzero" cx="468.945701" cy="643.0428" rx="13.4742928" ry="7.7265"></ellipse>
                <polygon id="Shape" fill="#9AD30A" fill-rule="nonzero" points="321.851488 464.2758 225.557177 409.1292 321.851488 354.834 418.1458 409.1283"></polygon>
                <path d="M956.663988,629.937 C933.777307,616.7214 913.078151,615.708 898.30898,624.762 C897.688086,625.1436 886.892635,631.719 886.292438,632.1348 C873.305861,641.1474 875.551877,652.2588 875.483488,676.206 C875.337713,727.5645 911.44853,790.1217 956.136678,815.9265 C977.063495,828.0108 988.47714,836.3565 1002.29877,828.5247 C1003.3309,827.9397 1012.47603,822.2697 1013.39747,821.7477 C1014.91641,820.8837 1016.37596,819.9162 1017.77072,818.8497 C1029.89795,809.577 1037.25239,792.702 1037.31718,769.6557 C1037.46115,718.299 1001.35034,655.7427 956.663988,629.937" id="Shape" fill="#B3B3B3" fill-rule="nonzero"></path>
                <path d="M945.684068,636.6474 C900.99772,610.8426 864.650243,631.5588 864.504468,682.9164 C864.358693,734.2758 900.46951,796.833 945.157658,822.6378 C989.844006,848.4426 1026.19238,827.7264 1026.33816,776.3688 C1026.48393,725.0094 990.373116,662.4522 945.684968,636.6474" id="Shape" fill="#EDEDED" fill-rule="nonzero"></path>
                <path d="M351.693978,796.7277 C349.546946,795.4875 347.800345,796.4829 347.793146,798.9507 C347.785948,801.4185 349.520851,804.4227 351.667883,805.6647 C353.814015,806.904 355.560616,805.9077 355.567815,803.4417 C355.575014,800.9757 353.840111,797.9679 351.693079,796.7277 M303.102299,767.9277 C300.955267,766.6875 299.208666,767.6829 299.201467,770.1507 C299.194268,772.6185 300.929171,775.6227 303.076203,776.8647 C305.222336,778.104 306.968937,777.1077 306.976136,774.6417 C306.983334,772.1757 305.248431,769.1679 303.101399,767.9277" id="Shape" fill="#EA0000" fill-rule="nonzero"></path>
                <polygon id="Shape" fill="#719B07" fill-rule="nonzero" points="321.122613 464.22 223.692696 408.258 223.939254 408.2796 223.939254 546.2946 321.122613 602.2782"></polygon>
                <polygon id="Shape" fill="#3A5004" fill-rule="nonzero" points="321.122613 464.22 419.003353 408.258 419.204918 408.2796 419.204918 546.2946 321.121713 602.2782"></polygon>
                <polygon id="Shape" fill="#FFFFFF" fill-rule="nonzero" points="409.985097 502.9794 409.530675 502.2027 625.270533 376.0047 625.270533 386.0892 624.370687 386.0892 624.370687 377.5734"></polygon>
                <polygon id="Shape" fill="#8CC109" fill-rule="nonzero" points="628.691747 387.7083 629.14437 388.4859 409.9698 516.2985 409.518077 515.5209"></polygon>
                <polygon id="Shape" fill="#719B07" fill-rule="nonzero" points="363.415371 504.378 391.321393 488.3832 391.310595 488.3895 391.310595 561.9438 363.415371 577.9458"></polygon>
                <polygon id="Shape" fill="#9AD30A" fill-rule="nonzero" points="363.415371 546.4017 363.415371 578.1735 398.284401 565.6392 390.911063 562.0878"></polygon>
                <ellipse id="Oval" fill="#B3B3B3" fill-rule="nonzero" cx="272.08821" cy="510.912" rx="11.2048814" ry="11.8881"></ellipse>
                <polygon id="Shape" fill="#B3B3B3" fill-rule="nonzero" points="223.829473 482.769 241.698613 482.769 241.698613 497.8395 223.829473 497.8395"></polygon>
                <g id="Clipped" transform="translate(232.160247, 443.700000)">
                    <mask id="mask-2" fill="white">
                        <use xlink:href="#path-1"></use>
                    </mask>
                    <g id="SVGID_1_"></g>
                    <g id="Group" mask="url(#mask-2)" fill-rule="nonzero" fill="#B3B3B3">
                        <g transform="translate(0.000000, 15.300000)" id="Shape">
                            <path d="M17.1762589,26.829 C15.9380709,26.1153 14.7043821,24.8463 13.7811402,23.211 C11.9724499,20.0025 12.0336394,16.5924 13.9179168,15.5907 C14.8384592,15.1047 16.0235562,15.2829 17.2041541,15.9651 C18.4414422,16.6788 19.675131,17.9478 20.5983729,19.5876 C22.4070632,22.7952 22.3458737,26.199 20.4615963,27.2016 C19.5419538,27.6876 18.3559569,27.5103 17.175359,26.829 M15.6843143,1.359 L14.3273467,7.4997 C13.3672111,7.2432 12.4124746,7.128 11.5378243,7.2297 L6.54997843,0.369 L4.28416641,1.575 L7.62799384,9.531 C7.11958089,10.2546 6.78213867,11.1915 6.53918028,12.1617 L0.610995378,9.9963 L0.548006163,13.5648 L6.57697381,18.5598 C6.83253005,19.818 7.24285978,21.114 7.7683698,22.4226 L4.36875193,26.1342 L6.53918028,29.9862 L11.7204931,29.1888 C12.6023421,30.2805 13.5111864,31.2606 14.4803205,32.1048 L15.5466379,39.5325 L18.6781017,41.4 L20.0125732,35.226 C20.9799076,35.487 21.8932512,35.532 22.7697011,35.4294 L27.6828598,42.1551 L29.941473,40.9518 L26.6777319,33.1218 C27.1861448,32.3973 27.6027735,31.599 27.8475316,30.6288 L33.7748166,32.7888 L33.8423051,29.2158 L27.8313344,24.2118 C27.5748783,22.9518 27.1924438,21.6405 26.6678336,20.3328 L30.1322404,16.5843 L27.9609122,12.7386 L22.7220092,13.5693 C21.8401602,12.4776 20.8629276,11.5173 19.8991926,10.6821 L18.8265763,3.2373 L15.6843143,1.359"></path>
                            <path d="M56.1125917,51.5853 C53.4553467,50.0508 50.9330786,46.8009 49.8289676,43.173 C48.3532203,38.3193 49.9801418,34.6293 53.4607458,34.9263 C54.3425948,35.0019 55.2568382,35.325 56.1557843,35.8443 C58.8157288,37.3797 61.3388968,40.6305 62.441208,44.2593 C63.9124561,49.1103 62.2900339,52.8093 58.8040308,52.5015 C57.9248814,52.4259 57.0115378,52.1037 56.1134915,51.5853 M62.6868659,20.6496 L57.7620092,26.4033 C57.2580955,26.055 56.7514823,25.7328 56.2412696,25.4403 C55.299131,24.8949 54.3488937,24.4449 53.4004561,24.0903 L48.4711002,12.9771 L44.2940154,12.6207 L46.0811094,23.7321 C44.9338059,24.1416 43.9421757,24.8193 43.1116179,25.7013 L34.5324869,18.936 L32.8299784,22.8015 L40.2825023,32.7528 C40.1340277,34.3206 40.1871186,36.0378 40.4408752,37.8648 L33.2421079,39.4083 L35.016604,45.2403 L43.7784037,48.2031 C44.7124438,50.0634 45.7940586,51.8193 46.9818552,53.4573 L45.3729307,62.4033 L49.5842096,66.7863 L54.5090663,61.0326 C55.01298,61.3809 55.5195932,61.7031 56.0298059,61.9956 C56.9719445,62.541 57.9221818,62.991 58.8706194,63.3456 L63.7927766,74.4489 L67.9770601,74.8143 L66.1890663,63.7029 C67.33547,63.2871 68.3271002,62.6157 69.1522589,61.7229 L77.73049,68.4963 L79.4338983,64.6317 L71.9813744,54.6804 C72.1307488,53.1126 72.071359,51.3927 71.8194022,49.5657 L79.009171,48.024 L77.2364746,42.192 L68.4809738,39.2265 C67.5478336,37.3725 66.4716179,35.6121 65.2901202,33.9795 L66.8918459,25.0227 L62.6895655,20.6487"></path>
                        </g>
                    </g>
                </g>
                <path d="M220.136505,470.0052 L236.774656,460.3932 L243.559495,470.0052 L228.880308,480.5757 L222.173757,477.2502 L220.136505,470.0052 Z M246.667562,508.6368 L263.305713,499.0248 L270.090552,508.6368 L256.702644,516.645 L249.996092,513.3195 L246.667562,508.6368 Z M232.459895,510.9498 L249.098046,501.3378 L245.702928,492.5322 L231.023741,503.1027 L231.426872,498.7737 L232.459895,510.9498 Z M292.99343,517.6116 L311.200912,507.0924 L306.278755,501.426 L291.422299,509.0247 L289.284265,508.9707 L292.99343,517.6116 Z" id="Shape" fill="#B3B3B3" fill-rule="nonzero"></path>
                <polygon id="Shape" fill="#B3B3B3" fill-rule="nonzero" points="291.444795 538.1154 309.864641 527.4747 300.76 515.3067 282.805374 520.2117 287.693337 529.3755"></polygon>
                <polygon id="Shape" fill="#B3B3B3" fill-rule="nonzero" points="281.766952 544.419 300.186798 533.7783 296.335458 520.3386 273.128431 526.5153 278.014595 535.6791"></polygon>
                <path d="M263.366903,536.2695 L281.786749,525.6279 L277.935408,512.1882 L261.666194,518.4648 L266.552357,527.6295 L263.366903,536.2695 Z M229.305035,471.2607 L247.852659,460.5201 L249.337405,469.5651 L238.004746,492.5313 L232.535482,479.1276 L229.305035,471.2607 Z M258.018219,482.2164 L276.469559,471.5334 L282.255569,483.7644 L266.674737,503.3772 L261.233368,490.0428 L258.018219,482.2164 Z" id="Shape" fill="#B3B3B3" fill-rule="nonzero"></path>
                <path d="M276.438065,490.239 L294.889405,479.556 L296.878065,513.6255 L285.094582,511.3998 L279.653214,498.0663 L276.438065,490.239 Z M214.301005,479.5812 L232.848629,468.8415 L234.333374,477.8865 L232.636265,493.7787 L220.411858,485.1027 L214.301005,479.5812 Z" id="Shape" fill="#B3B3B3" fill-rule="nonzero"></path>
                <polygon id="Shape" fill="#B3B3B3" fill-rule="nonzero" points="231.278398 487.7883 249.098046 471.5325 266.060142 499.3875 241.231593 511.5861 234.509744 495.6561"></polygon>
                <g id="Clipped" transform="translate(214.163328, 453.600000)">
                    <mask id="mask-4" fill="white">
                        <use xlink:href="#path-3"></use>
                    </mask>
                    <g id="SVGID_3_"></g>
                    <g id="Group" mask="url(#mask-4)" fill-rule="nonzero" fill="#E6E6E6">
                        <g transform="translate(0.000000, 16.200000)" id="Shape">
                            <path d="M16.708339,26.6004 C15.470151,25.8858 14.2364622,24.6168 13.3132203,22.9806 C11.50453,19.773 11.5657196,16.3629 13.4499969,15.3612 C14.3705393,14.8752 15.5556364,15.0534 16.7362342,15.7356 C17.9735223,16.4502 19.2072111,17.7192 20.130453,19.359 C21.9391433,22.5666 21.8779538,25.9704 19.9936764,26.973 C19.0740339,27.459 17.888037,27.2817 16.7074391,26.6004 M15.2163945,1.1304 L13.8594268,7.2702 C12.8992912,7.0137 11.9499538,6.9012 11.0699045,7.002 L6.08205855,0.1404 L3.82164561,1.3491 L7.16547304,9.3051 C6.65256086,10.0251 6.31511864,10.9611 6.07036055,11.9331 L0.143075501,9.7668 L0.0800862866,13.3353 L6.10905393,18.3303 C6.37000924,19.5921 6.78123883,20.8863 7.30044992,22.1931 L3.90083205,25.9047 L6.0712604,29.7567 L11.2525732,28.9593 C12.1344222,30.051 13.0432666,31.0311 14.0124006,31.8753 L15.078718,39.303 L18.2101818,41.1714 L19.5509522,35.0019 C20.510188,35.2593 21.4253313,35.3052 22.3062804,35.2053 L27.2131402,41.9283 L29.4780524,40.7286 L26.2089122,32.895 C26.7173251,32.1696 27.1339538,31.3713 27.3787119,30.402 L33.3059969,32.5602 L33.3797843,28.9917 L27.3688136,23.9877 C27.1078582,22.725 26.7254237,21.4137 26.2062126,20.1087 L29.6706194,16.3602 L27.4992912,12.5145 L22.2549892,13.3425 C21.3731402,12.2499 20.3959076,11.2905 19.4321726,10.4535 L18.3595562,3.0105 L15.2172943,1.1295"></path>
                            <path d="M55.6500709,51.3585 C52.991926,49.8231 50.4669584,46.5723 49.3673467,42.9462 C47.8915994,38.0925 49.511322,34.3989 52.9991248,34.6995 C53.8782743,34.7742 54.7916179,35.0973 55.6896641,35.6157 C58.3469091,37.1502 60.8691772,40.4001 61.9732881,44.028 C63.4454361,48.879 61.8230139,52.578 58.3424099,52.2747 C57.4632604,52.2 56.5490169,51.8769 55.6518706,51.3585 M62.2189461,20.4201 L57.2940894,26.1729 C56.7901757,25.8246 56.2835624,25.5024 55.7733498,25.2099 C54.8312111,24.6645 53.8809738,24.2145 52.9325362,23.8599 L48.0031803,12.7467 L43.8260955,12.3912 L45.6131895,23.5017 C44.465886,23.9112 43.4742558,24.5889 42.643698,25.4709 L34.064567,18.7056 L32.3620586,22.5702 L39.8145824,32.5215 C39.6661079,34.0893 39.7191988,35.8065 39.9783544,37.6362 L32.7750878,39.1779 L34.5477843,45.0099 L43.309584,47.9727 C44.2427242,49.8267 45.3252388,51.5907 46.5112357,53.2287 L44.9032111,62.1747 L49.11449,66.5577 L54.0402465,60.8031 C54.5441602,61.1523 55.0507735,61.4745 55.5609861,61.7679 C56.5031248,62.3124 57.4533621,62.7624 58.4017997,63.1179 L63.3329553,74.2239 L67.5082404,74.5857 L65.7220462,63.4743 C66.8684499,63.0585 67.8600801,62.3871 68.6915378,61.4988 L77.2643698,68.2668 L78.9668783,64.4031 L71.5143544,54.4518 C71.662829,52.884 71.604339,51.1641 71.3505824,49.3371 L78.542151,47.7954 L76.7694545,41.9634 L68.0139538,38.997 C67.0799137,37.143 66.0090971,35.388 64.8222003,33.75 L66.430225,24.7977 L62.2189461,20.4201"></path>
                        </g>
                    </g>
                </g>
                <g id="Clipped" transform="translate(999.728814, 774.900000)">
                    <mask id="mask-6" fill="white">
                        <use xlink:href="#path-5"></use>
                    </mask>
                    <g id="SVGID_5_"></g>
                    <path d="M15.0274268,8.5374 L3.27903852,1.7532 C1.76189831,0.8775 0.529109399,1.5804 0.523710324,3.33 L0.523710324,3.6666 C0.517411402,5.4162 1.74300154,7.5393 3.25924191,8.415 L15.0094299,15.1992 C16.5265701,16.0749 17.7656579,15.3756 17.7701572,13.6242 L17.7701572,13.2885 C17.7764561,11.5389 16.5463667,9.4131 15.0283267,8.5365" id="Shape" fill="#7F7F7F" fill-rule="nonzero" mask="url(#mask-6)"></path>
                </g>
                <g id="Clipped" transform="translate(870.151002, 693.000000)">
                    <mask id="mask-8" fill="white">
                        <use xlink:href="#path-7"></use>
                    </mask>
                    <g id="SVGID_7_"></g>
                    <path d="M9.98469029,6.372 L2.43138367,1.9152 C1.4325547,1.3392 0.778366718,1.8009 0.778366718,2.943 L0.778366718,3.168 C0.778366718,4.3164 1.52523883,5.715 2.52586749,6.291 L10.0008875,10.7478 C10.9997165,11.3238 11.5756179,10.8621 11.5756179,9.7128 L11.5756179,9.4878 C11.5756179,8.3466 10.9844191,6.948 9.98469029,6.3711" id="Shape" fill="#7F7F7F" fill-rule="nonzero" mask="url(#mask-8)"></path>
                </g>
                <g id="Clipped" transform="translate(929.540832, 664.200000)">
                    <mask id="mask-10" fill="white">
                        <use xlink:href="#path-9"></use>
                    </mask>
                    <g id="SVGID_9_"></g>
                    <path d="M3.07117411,1.8945 L2.78952234,1.7325 C1.46674884,0.9675 0.395932203,1.5795 0.391432974,3.0978 L0.208764253,67.4091 C0.204265023,68.9265 1.27058243,70.7724 2.59065639,71.5347 L2.87140832,71.6967 C4.19418182,72.4617 5.26499846,71.8497 5.26949769,70.3305 L5.45216641,6.0192 C5.45666564,4.5009 4.39214792,2.6559 3.07027427,1.8927" id="Shape" fill="#575757" fill-rule="nonzero" mask="url(#mask-10)"></path>
                </g>
                <g id="Clipped" transform="translate(929.540832, 789.300000)">
                    <mask id="mask-12" fill="white">
                        <use xlink:href="#path-11"></use>
                    </mask>
                    <g id="SVGID_11_"></g>
                    <path d="M2.99828659,1.764 L2.71663482,1.6002 C1.39386133,0.837 0.323044684,1.4472 0.317645609,2.9682 L0.281651772,15.5718 C0.277152542,17.0838 1.34346995,18.936 2.66354391,19.6983 L2.94609553,19.8603 C4.26886903,20.6253 5.33968567,20.007 5.3441849,18.495 L5.38017874,5.8905 C5.38377812,4.3713 4.31836055,2.5263 2.99738675,1.7631" id="Shape" fill="#7F7F7F" fill-rule="nonzero" mask="url(#mask-12)"></path>
                </g>
                <g id="Clipped" transform="translate(929.540832, 636.300000)">
                    <mask id="mask-14" fill="white">
                        <use xlink:href="#path-13"></use>
                    </mask>
                    <g id="SVGID_13_"></g>
                    <path d="M2.99828659,1.7298 L2.71663482,1.5678 C1.39386133,0.8028 0.323044684,1.422 0.317645609,2.934 L0.281651772,15.5385 C0.277152542,17.0568 1.34346995,18.9027 2.66354391,19.665 L2.94609553,19.827 C4.26886903,20.592 5.33968567,19.98 5.3441849,18.4617 L5.38017874,5.8572 C5.38377812,4.3452 4.31836055,2.493 2.99738675,1.7298" id="Shape" fill="#7F7F7F" fill-rule="nonzero" mask="url(#mask-14)"></path>
                </g>
                <path d="M933.363378,727.488 C930.635045,725.9112 928.166767,725.7906 926.407569,726.8706 C926.332881,726.9156 925.045202,727.6986 924.974114,727.7499 C923.426379,728.8254 923.693633,730.1502 923.685535,733.0059 C923.667538,739.1277 927.9733,746.5869 933.301288,749.6622 C935.795661,751.1022 937.156228,752.0976 938.803846,751.1652 C938.927125,751.0932 940.018638,750.4182 940.126619,750.3552 C940.308388,750.2535 940.482958,750.1392 940.64853,750.0105 C942.095482,748.9053 942.971932,746.8929 942.979131,744.1461 C942.995328,738.0225 938.689565,730.5651 933.362478,727.4871" id="Shape" fill="#575757" fill-rule="nonzero"></path>
                <path d="M932.054102,728.2872 C926.727014,725.211 922.393356,727.6806 922.375359,733.8042 C922.357362,739.926 926.663125,747.3852 931.991112,750.4605 C937.3191,753.5358 941.651858,751.0671 941.669855,744.9435 C941.686052,738.8217 937.38119,731.3625 932.053202,728.2872" id="Shape" fill="#B3B3B3" fill-rule="nonzero"></path>
                <polygon id="Shape" fill="#FFFFFF" fill-rule="nonzero" points="565.880703 861.6258 565.880703 758.6892 566.780549 758.6892 566.780549 860.0526 579.765325 852.4134 714.530749 773.5626 714.984271 774.3402 580.219747 853.1892"></polygon>
                <g id="Clipped" transform="translate(727.975347, 701.100000)">
                    <mask id="mask-16" fill="white">
                        <use xlink:href="#path-15"></use>
                    </mask>
                    <g id="SVGID_15_"></g>
                    <g id="Group" mask="url(#mask-16)" fill-rule="nonzero" fill="#FFFFFF">
                        <g transform="translate(0.000000, 11.700000)" id="Shape">
                            <path d="M14.4470262,35.2332 L18.127396,32.2614 L18.8508721,27.5976 L14.0186995,24.8436 C15.00853,23.8041 16.0613498,22.9626 17.1159692,22.3533 C19.1964129,21.1518 21.2777565,20.8638 22.8731834,21.7683 C25.0985023,23.0373 25.7751864,26.3043 24.8996364,30.0303 L42.6580955,40.1526 L42.6526965,40.1562 L42.7066872,40.1796 C44.1752357,41.0166 44.1824345,43.7508 42.7228844,46.2816 C41.9940092,47.5452 41.0347735,48.5208 40.0746379,49.0743 C39.1154022,49.6287 38.1543667,49.761 37.4200924,49.3425 L37.3661017,49.3065 L37.3661017,49.3128 L19.6139414,39.1941 C18.8193775,39.9393 17.9942188,40.5603 17.1681602,41.0373 C15.0877165,42.2379 13.0063729,42.5277 11.4136456,41.6196 C9.01105701,40.2561 8.41265948,36.5616 9.61575347,32.4792 L14.4461263,35.2314 M27.6801602,4.2831 C12.5069584,13.0455 0.241158706,34.2954 0.290650231,51.7401 C0.340141757,69.1785 12.6860277,76.2156 27.8592296,67.4541 C43.0396302,58.6881 55.299131,37.4418 55.2505393,20.0043 C55.2001479,2.5587 42.859661,-4.4811 27.6810601,4.284"></path>
                            <path d="M40.056641,43.0812 C39.6832049,43.2972 39.3097689,43.6752 39.0272173,44.1666 C38.4603143,45.1566 38.4639137,46.2114 39.0362157,46.5426 C39.320567,46.7064 39.6949029,46.6542 40.068339,46.4382 C40.441775,46.2222 40.8152111,45.8442 41.0977627,45.3528 C41.6646656,44.3628 41.6628659,43.308 41.0923636,42.9768 C40.8062126,42.813 40.4318767,42.8652 40.0575408,43.0812"></path>
                        </g>
                    </g>
                </g>
                <path d="M907.798755,750.8277 C905.651723,749.5875 903.905122,750.5829 903.897923,753.0507 C903.890724,755.5185 905.625627,758.5227 907.772659,759.7647 C909.918792,761.004 911.665393,760.0077 911.672592,757.5417 C911.67979,755.073 909.944888,752.0679 907.797855,750.8277" id="Shape" fill="#EA0000" fill-rule="nonzero"></path>
                <polygon id="Shape" fill="#EA0000" fill-rule="nonzero" points="743.288924 659.3067 907.940031 754.4853 907.490108 755.2638 742.839002 660.0852"></polygon>
                <polygon id="Shape" fill="#3A5004" fill-rule="nonzero" points="566.36302 743.0184 909.117029 546.7284 909.261005 546.8067 909.261005 562.23 566.36302 758.5992"></polygon>
                <polygon id="Shape" fill="#8CC109" fill-rule="nonzero" points="469.59719 649.7892 468.697344 649.7892 468.697344 623.9457 441.257442 607.707 480.40074 585.2835 435.124992 558.594 448.010786 550.8018 417.601393 533.5281 418.046817 532.7451 449.791581 550.7757 436.882391 558.5832 482.191433 585.2934 443.046336 607.7187 469.59719 623.4309"></polygon>
                <path d="M367.960493,390.663 C341.926151,405.6966 320.889553,442.1376 320.975938,472.059 C321.016431,485.8965 325.568752,495.3843 333.024875,500.67 C333.774447,501.201 346.770921,509.0652 347.525892,509.5845 C351.865849,512.5698 355.486829,506.3931 368.26914,499.0122 C394.301683,483.9786 415.344579,447.534 415.259094,417.6135 C415.2258,405.5967 421.047803,401.1111 415.259094,395.4537 C414.11629,394.335 403.621387,388.7019 402.301313,387.8604 C393.67629,382.3578 381.472579,382.8609 367.961393,390.663" id="Shape" fill="#CCCCCC" fill-rule="nonzero"></path>
                <path d="M379.498317,397.269 C353.463975,412.3035 332.427378,448.7445 332.513763,478.665 C332.598348,508.5855 353.771723,520.6536 379.806065,505.62 C405.838607,490.5864 426.880604,454.1418 426.796018,424.2213 C426.710533,394.3008 405.53086,382.2363 379.497418,397.2699" id="Shape" fill="#575757" fill-rule="nonzero"></path>
                <path d="M489.829325,178.722 C487.352049,180.153 485.349892,183.6198 485.357091,186.4665 C485.366089,189.3141 487.381744,190.4625 489.85812,189.0315 C492.334496,187.6005 494.337553,184.1328 494.330354,181.2852 C494.321356,178.4385 492.305701,177.291 489.829325,178.7202" id="Shape" fill="#C1F227" fill-rule="nonzero"></path>
                <path d="M475.43179,187.191 C472.954515,188.622 470.952357,192.0906 470.959556,194.9373 C470.968555,197.7849 472.98421,198.9333 475.460586,197.5023 C477.936961,196.0713 479.940018,192.6036 479.93282,189.756 C479.923821,186.9093 477.908166,185.7618 475.43179,187.191" id="Shape" fill="#EA0000" fill-rule="nonzero"></path>
                <g id="Clipped" transform="translate(356.338983, 441.000000)">
                    <mask id="mask-18" fill="white">
                        <use xlink:href="#path-17"></use>
                    </mask>
                    <g id="SVGID_17_"></g>
                    <path d="M2.5573621,23.6457 C1.47304777,24.2721 0.460721109,25.9497 0.205164869,27.6417 C-0.0773867488,29.5047 0.673084746,30.6702 1.88157781,30.2445 L40.0548413,18.6651 C40.1718213,18.6228 40.2888012,18.5679 40.4057812,18.5004 C41.4882958,17.8758 42.497923,16.1946 42.754379,14.5134 C43.0360308,12.6441 42.2846595,11.4777 41.0770663,11.9097 L2.90560247,23.4837 C2.7886225,23.5242 2.67344222,23.5791 2.55826194,23.6457" id="Shape" fill="#C1F227" fill-rule="nonzero" mask="url(#mask-18)"></path>
                </g>
                <g id="Clipped" transform="translate(386.033898, 398.700000)">
                    <mask id="mask-20" fill="white">
                        <use xlink:href="#path-19"></use>
                    </mask>
                    <g id="SVGID_19_"></g>
                    <path d="M14.7988659,1.9602 C13.9665085,2.4408 13.1989399,3.4992 12.9361849,4.6098 L0.410329738,58.0986 C0.086385208,59.4693 0.664986133,60.4053 1.70070878,60.1776 C1.89687519,60.1371 2.09664099,60.0561 2.2910077,59.9436 C3.12156549,59.4639 3.89273344,58.4028 4.15548844,57.2931 L16.6813436,3.8034 C16.9998891,2.4354 16.4275871,1.4967 15.3918644,1.7244 C15.1938983,1.7649 14.9941325,1.8459 14.7979661,1.9584" id="Shape" fill="#C1F227" fill-rule="nonzero" mask="url(#mask-20)"></path>
                </g>
                <path d="M388.132339,442.26 C381.990891,445.806 377.02824,454.4037 377.048037,461.4624 C377.057035,464.7267 378.131451,466.965 379.89155,468.2124 C380.06792,468.3384 383.133695,470.1924 383.310965,470.3157 C384.336789,471.0195 385.189843,469.5633 388.206126,467.8227 C394.346675,464.2749 399.310225,455.6772 399.292228,448.6194 C399.28323,445.7844 400.656394,444.726 399.292228,443.3904 C399.022274,443.1276 396.545898,441.7974 396.234552,441.5994 C394.1991,440.3007 391.319593,440.4204 388.132339,442.26" id="Shape" fill="#CCCCCC" fill-rule="nonzero"></path>
                <path d="M390.854373,443.8188 C384.712924,447.3648 379.750274,455.9625 379.770071,463.0212 C379.788068,470.0799 384.784012,472.9266 390.925461,469.3797 C397.066909,465.8337 402.031359,457.2351 402.011562,450.1773 C401.991766,443.1195 396.994921,440.2719 390.853473,443.8188" id="Shape" fill="#383838" fill-rule="nonzero"></path>
                <polygon id="Shape" fill="#9AD30A" fill-rule="nonzero" points="1034.81381 564.4305 910.4569 493.2135 1034.81381 423.0945 1159.16981 493.2117"></polygon>
                <polygon id="Shape" fill="#719B07" fill-rule="nonzero" points="1034.96858 564.3342 910.636869 492.705 910.276931 492.7824 910.276931 508.2057 1034.96858 579.915"></polygon>
                <polygon id="Shape" fill="#3A5004" fill-rule="nonzero" points="1034.11193 564.3342 1159.09782 492.705 1159.2418 492.7824 1159.2418 508.2057 1034.11193 579.915"></polygon>
                <path d="M1044.40166,486.819 L1044.40166,490.5828 C1044.40166,501.5052 1059.64505,510.3612 1078.55262,510.3612 C1097.46018,510.3612 1112.70357,501.5088 1112.70357,490.5882 L1112.70357,485.7732 L1044.33867,484.9596" id="Shape" fill="#000000" fill-rule="nonzero"></path>
                <ellipse id="Oval" fill="#424242" fill-rule="nonzero" cx="1078.55352" cy="485.7723" rx="34.2373374" ry="19.7766"></ellipse>
                <path d="M1044.40166,474.0777 L1044.40166,477.8415 C1044.40166,488.7639 1059.64505,497.6199 1078.55262,497.6199 C1097.46018,497.6199 1112.70357,488.7684 1112.70357,477.8469 L1112.70357,473.0319 L1044.33867,472.2192" id="Shape" fill="#000000" fill-rule="nonzero"></path>
                <ellipse id="Oval" fill="#424242" fill-rule="nonzero" cx="1078.55352" cy="473.031" rx="34.2373374" ry="19.7766"></ellipse>
                <path d="M1044.40166,461.3364 L1044.40166,465.1002 C1044.40166,476.0226 1059.64505,484.8786 1078.55262,484.8786 C1097.46018,484.8786 1112.70357,476.0262 1112.70357,465.1056 L1112.70357,460.2906 L1044.33867,459.477" id="Shape" fill="#000000" fill-rule="nonzero"></path>
                <ellipse id="Oval" fill="#424242" fill-rule="nonzero" cx="1078.55352" cy="460.2897" rx="34.2373374" ry="19.7766"></ellipse>
                <path d="M1044.40166,448.596 L1044.40166,452.358 C1044.40166,463.2813 1059.64505,472.1373 1078.55262,472.1373 C1097.46018,472.1373 1112.70357,463.2849 1112.70357,452.3643 L1112.70357,447.5493 L1044.33867,446.7357" id="Shape" fill="#000000" fill-rule="nonzero"></path>
                <ellipse id="Oval" fill="#424242" fill-rule="nonzero" cx="1078.55352" cy="447.5484" rx="34.2373374" ry="19.7766"></ellipse>
                <path d="M1044.40166,435.8547 L1044.40166,439.6185 C1044.40166,450.5409 1059.64505,459.3969 1078.55262,459.3969 C1097.46018,459.3969 1112.70357,450.5454 1112.70357,439.6239 L1112.70357,434.8089 L1044.33867,433.9962" id="Shape" fill="#000000" fill-rule="nonzero"></path>
                <ellipse id="Oval" fill="#575757" fill-rule="nonzero" cx="1078.55352" cy="434.808" rx="34.2373374" ry="19.7766"></ellipse>
                <path d="M1044.40166,435.8547 L1044.40166,439.6185 C1044.40166,450.5409 1059.64505,459.3969 1078.55262,459.3969 C1097.46018,459.3969 1112.70357,450.5454 1112.70357,439.6239 L1112.70357,434.8089 L1044.33867,433.9962" id="Shape" fill="#000000" fill-rule="nonzero"></path>
                <ellipse id="Oval" fill="#424242" fill-rule="nonzero" cx="1078.55352" cy="434.808" rx="34.2373374" ry="19.7766"></ellipse>
                <path d="M1044.40166,423.1134 L1044.40166,426.8772 C1044.40166,437.7996 1059.64505,446.6556 1078.55262,446.6556 C1097.46018,446.6556 1112.70357,437.8032 1112.70357,426.8826 L1112.70357,422.0676 L1044.33867,421.254" id="Shape" fill="#000000" fill-rule="nonzero"></path>
                <ellipse id="Oval" fill="#424242" fill-rule="nonzero" cx="1078.55352" cy="422.0667" rx="34.2373374" ry="19.7766"></ellipse>
                <path d="M1044.40166,410.373 L1044.40166,414.135 C1044.40166,425.0583 1059.64505,433.9143 1078.55262,433.9143 C1097.46018,433.9143 1112.70357,425.0619 1112.70357,414.1413 L1112.70357,409.3263 L1044.33867,408.5127" id="Shape" fill="#000000" fill-rule="nonzero"></path>
                <ellipse id="Oval" fill="#424242" fill-rule="nonzero" cx="1078.55352" cy="409.3254" rx="34.2373374" ry="19.7766"></ellipse>
                <path d="M1044.40166,397.6308 L1044.40166,401.3946 C1044.40166,412.317 1059.64505,421.173 1078.55262,421.173 C1097.46018,421.173 1112.70357,412.3206 1112.70357,401.4 L1112.70357,396.585 L1044.33867,395.7714" id="Shape" fill="#000000" fill-rule="nonzero"></path>
                <ellipse id="Oval" fill="#424242" fill-rule="nonzero" cx="1078.55352" cy="396.5841" rx="34.2373374" ry="19.7766"></ellipse>
                <path d="M1044.40166,384.8895 L1044.40166,388.6533 C1044.40166,399.5757 1059.64505,408.4317 1078.55262,408.4317 C1097.46018,408.4317 1112.70357,399.5793 1112.70357,388.6587 L1112.70357,383.8437 L1044.33867,383.0301" id="Shape" fill="#000000" fill-rule="nonzero"></path>
                <ellipse id="Oval" fill="#424242" fill-rule="nonzero" cx="1078.55352" cy="383.8428" rx="34.2373374" ry="19.7766"></ellipse>
                <path d="M959.883636,486.819 L959.883636,490.5828 C959.883636,501.5052 975.127026,510.3612 994.034589,510.3612 C1012.94215,510.3612 1028.18554,501.5088 1028.18554,490.5882 L1028.18554,485.7732 L959.821547,484.9596" id="Shape" fill="#000000" fill-rule="nonzero"></path>
                <ellipse id="Oval" fill="#424242" fill-rule="nonzero" cx="994.034589" cy="485.7723" rx="34.2373374" ry="19.7766"></ellipse>
                <path d="M959.883636,474.0777 L959.883636,477.8415 C959.883636,488.7639 975.127026,497.6199 994.034589,497.6199 C1012.94215,497.6199 1028.18554,488.7684 1028.18554,477.8469 L1028.18554,473.0319 L959.821547,472.2192" id="Shape" fill="#000000" fill-rule="nonzero"></path>
                <ellipse id="Oval" fill="#424242" fill-rule="nonzero" cx="994.034589" cy="473.031" rx="34.2373374" ry="19.7766"></ellipse>
                <path d="M959.883636,461.3364 L959.883636,465.1002 C959.883636,476.0226 975.127026,484.8786 994.034589,484.8786 C1012.94215,484.8786 1028.18554,476.0262 1028.18554,465.1056 L1028.18554,460.2906 L959.821547,459.477" id="Shape" fill="#000000" fill-rule="nonzero"></path>
                <ellipse id="Oval" fill="#424242" fill-rule="nonzero" cx="994.034589" cy="460.2897" rx="34.2373374" ry="19.7766"></ellipse>
                <path d="M959.883636,448.596 L959.883636,452.358 C959.883636,463.2813 975.127026,472.1373 994.034589,472.1373 C1012.94215,472.1373 1028.18554,463.2849 1028.18554,452.3643 L1028.18554,447.5493 L959.821547,446.7357" id="Shape" fill="#000000" fill-rule="nonzero"></path>
                <ellipse id="Oval" fill="#424242" fill-rule="nonzero" cx="994.034589" cy="447.5484" rx="34.2373374" ry="19.7766"></ellipse>
                <path d="M959.883636,435.8547 L959.883636,439.6185 C959.883636,450.5409 975.127026,459.3969 994.034589,459.3969 C1012.94215,459.3969 1028.18554,450.5454 1028.18554,439.6239 L1028.18554,434.8089 L959.821547,433.9962" id="Shape" fill="#000000" fill-rule="nonzero"></path>
                <ellipse id="Oval" fill="#575757" fill-rule="nonzero" cx="994.034589" cy="434.808" rx="34.2373374" ry="19.7766"></ellipse>
                <path d="M959.883636,435.8547 L959.883636,439.6185 C959.883636,450.5409 975.127026,459.3969 994.034589,459.3969 C1012.94215,459.3969 1028.18554,450.5454 1028.18554,439.6239 L1028.18554,434.8089 L959.821547,433.9962" id="Shape" fill="#000000" fill-rule="nonzero"></path>
                <ellipse id="Oval" fill="#424242" fill-rule="nonzero" cx="994.034589" cy="434.808" rx="34.2373374" ry="19.7766"></ellipse>
                <path d="M959.883636,423.1134 L959.883636,426.8772 C959.883636,437.7996 975.127026,446.6556 994.034589,446.6556 C1012.94215,446.6556 1028.18554,437.8032 1028.18554,426.8826 L1028.18554,422.0676 L959.821547,421.254" id="Shape" fill="#000000" fill-rule="nonzero"></path>
                <ellipse id="Oval" fill="#424242" fill-rule="nonzero" cx="994.034589" cy="422.0667" rx="34.2373374" ry="19.7766"></ellipse>
                <path d="M959.883636,410.373 L959.883636,414.135 C959.883636,425.0583 975.127026,433.9143 994.034589,433.9143 C1012.94215,433.9143 1028.18554,425.0619 1028.18554,414.1413 L1028.18554,409.3263 L959.821547,408.5127" id="Shape" fill="#000000" fill-rule="nonzero"></path>
                <ellipse id="Oval" fill="#424242" fill-rule="nonzero" cx="994.034589" cy="409.3254" rx="34.2373374" ry="19.7766"></ellipse>
                <path d="M959.883636,397.6308 L959.883636,401.3946 C959.883636,412.317 975.127026,421.173 994.034589,421.173 C1012.94215,421.173 1028.18554,412.3206 1028.18554,401.4 L1028.18554,396.585 L959.821547,395.7714" id="Shape" fill="#000000" fill-rule="nonzero"></path>
                <ellipse id="Oval" fill="#424242" fill-rule="nonzero" cx="994.034589" cy="396.5841" rx="34.2373374" ry="19.7766"></ellipse>
                <path d="M959.883636,384.8895 L959.883636,388.6533 C959.883636,399.5757 975.127026,408.4317 994.034589,408.4317 C1012.94215,408.4317 1028.18554,399.5793 1028.18554,388.6587 L1028.18554,383.8437 L959.821547,383.0301" id="Shape" fill="#000000" fill-rule="nonzero"></path>
                <ellipse id="Oval" fill="#424242" fill-rule="nonzero" cx="994.034589" cy="383.8428" rx="34.2373374" ry="19.7766"></ellipse>
                <path d="M1002.54173,511.443 L1002.54173,515.2077 C1002.54173,526.1301 1017.78512,534.9861 1036.69268,534.9861 C1055.60025,534.9861 1070.84364,526.1328 1070.84364,515.2113 L1070.84364,510.3963 L1002.47964,509.5836" id="Shape" fill="#000000" fill-rule="nonzero"></path>
                <ellipse id="Oval" fill="#575757" fill-rule="nonzero" cx="1036.69268" cy="510.3972" rx="34.2373374" ry="19.7766"></ellipse>
                <path d="M1002.54173,498.7026 L1002.54173,502.4664 C1002.54173,513.3888 1017.78512,522.2448 1036.69268,522.2448 C1055.60025,522.2448 1070.84364,513.3924 1070.84364,502.4718 L1070.84364,497.6568 L1002.47964,496.8432" id="Shape" fill="#000000" fill-rule="nonzero"></path>
                <ellipse id="Oval" fill="#575757" fill-rule="nonzero" cx="1036.69268" cy="497.6559" rx="34.2373374" ry="19.7766"></ellipse>
                <path d="M1002.54173,485.9613 L1002.54173,489.7251 C1002.54173,500.6466 1017.78512,509.5026 1036.69268,509.5026 C1055.60025,509.5026 1070.84364,500.6502 1070.84364,489.7296 L1070.84364,484.9146 L1002.47964,484.101" id="Shape" fill="#000000" fill-rule="nonzero"></path>
                <ellipse id="Oval" fill="#575757" fill-rule="nonzero" cx="1036.69268" cy="484.9146" rx="34.2373374" ry="19.7766"></ellipse>
                <path d="M1002.54173,473.22 L1002.54173,476.9838 C1002.54173,487.9062 1017.78512,496.7622 1036.69268,496.7622 C1055.60025,496.7622 1070.84364,487.9098 1070.84364,476.9892 L1070.84364,472.1742 L1002.47964,471.3606" id="Shape" fill="#000000" fill-rule="nonzero"></path>
                <ellipse id="Oval" fill="#575757" fill-rule="nonzero" cx="1036.69268" cy="472.1733" rx="34.2373374" ry="19.7766"></ellipse>
                <path d="M1002.54173,460.4787 L1002.54173,464.2425 C1002.54173,475.1649 1017.78512,484.0209 1036.69268,484.0209 C1055.60025,484.0209 1070.84364,475.1694 1070.84364,464.2479 L1070.84364,459.4329 L1002.47964,458.6202" id="Shape" fill="#000000" fill-rule="nonzero"></path>
                <ellipse id="Oval" fill="#575757" fill-rule="nonzero" cx="1036.69268" cy="459.432" rx="34.2373374" ry="19.7766"></ellipse>
                <path d="M1002.54173,460.4787 L1002.54173,464.2425 C1002.54173,475.1649 1017.78512,484.0209 1036.69268,484.0209 C1055.60025,484.0209 1070.84364,475.1694 1070.84364,464.2479 L1070.84364,459.4329 L1002.47964,458.6202" id="Shape" fill="#000000" fill-rule="nonzero"></path>
                <ellipse id="Oval" fill="#575757" fill-rule="nonzero" cx="1036.69268" cy="459.432" rx="34.2373374" ry="19.7766"></ellipse>
                <path d="M1002.54173,447.7383 L1002.54173,451.5021 C1002.54173,462.4236 1017.78512,471.2796 1036.69268,471.2796 C1055.60025,471.2796 1070.84364,462.4272 1070.84364,451.5066 L1070.84364,446.6916 L1002.47964,445.878" id="Shape" fill="#000000" fill-rule="nonzero"></path>
                <ellipse id="Oval" fill="#575757" fill-rule="nonzero" cx="1036.69268" cy="446.6916" rx="34.2373374" ry="19.7766"></ellipse>
                <path d="M1002.54173,434.997 L1002.54173,438.7608 C1002.54173,449.6832 1017.78512,458.5392 1036.69268,458.5392 C1055.60025,458.5392 1070.84364,449.6868 1070.84364,438.7662 L1070.84364,433.9512 L1002.47964,433.1376" id="Shape" fill="#000000" fill-rule="nonzero"></path>
                <ellipse id="Oval" fill="#575757" fill-rule="nonzero" cx="1036.69268" cy="433.9503" rx="34.2373374" ry="19.7766"></ellipse>
                <path d="M1002.54173,422.2557 L1002.54173,426.0195 C1002.54173,436.9419 1017.78512,445.7979 1036.69268,445.7979 C1055.60025,445.7979 1070.84364,436.9464 1070.84364,426.0249 L1070.84364,421.2099 L1002.47964,420.3972" id="Shape" fill="#000000" fill-rule="nonzero"></path>
                <ellipse id="Oval" fill="#575757" fill-rule="nonzero" cx="1036.69268" cy="421.209" rx="34.2373374" ry="19.7766"></ellipse>
                <path d="M1002.54173,409.5144 L1002.54173,413.2782 C1002.54173,424.2006 1017.78512,433.0566 1036.69268,433.0566 C1055.60025,433.0566 1070.84364,424.2042 1070.84364,413.2836 L1070.84364,408.4686 L1002.47964,407.655" id="Shape" fill="#000000" fill-rule="nonzero"></path>
                <ellipse id="Oval" fill="#575757" fill-rule="nonzero" cx="1036.69268" cy="408.4677" rx="34.2373374" ry="19.7766"></ellipse>
                <ellipse id="Oval" fill="#EDEDED" fill-rule="nonzero" cx="1037.31718" cy="407.6496" rx="6.55357781" ry="3.7854"></ellipse>
                <polygon id="Shape" fill="#EDEDED" fill-rule="nonzero" points="1037.39996 406.7892 1036.50012 406.7892 1036.50012 330.93 1067.99472 312.4764 1067.99472 288.2484 996.005251 246.6594 890.531612 306.7461 890.085288 305.9631 996.007951 245.6181 996.231112 245.7486 1068.89367 287.7282 1068.89367 312.9912 1037.39906 331.4457"></polygon>
                <polygon id="Shape" fill="#719B07" fill-rule="nonzero" points="888.411575 306.945 887.959852 353.6352 848.240653 329.436 848.380129 282.9204"></polygon>
                <polygon id="Shape" fill="#3A5004" fill-rule="nonzero" points="888.332388 306.882 887.927458 353.5956 887.990447 353.6892 893.383223 350.6706 893.739562 303.8553"></polygon>
                <polygon id="Shape" fill="#9AD30A" fill-rule="nonzero" points="888.541153 307.2564 848.516006 283.1814 848.469214 283.0788 853.859291 280.0593 893.949227 304.2288"></polygon>
                <ellipse id="Oval" fill="#3A5004" fill-rule="nonzero" transform="translate(868.236619, 318.393381) rotate(60.760000) translate(-868.236619, -318.393381) " cx="868.236619" cy="318.393381" rx="9.10374114" ry="5.2587"></ellipse>
                <polygon id="Shape" fill="#719B07" fill-rule="nonzero" points="297.911988 341.9046 297.459365 388.5966 257.740166 364.3956 257.878743 317.8809"></polygon>
                <polygon id="Shape" fill="#3A5004" fill-rule="nonzero" points="297.831002 341.8434 297.427871 388.5552 297.49086 388.6497 302.882737 385.6311 303.239975 338.8149"></polygon>
                <polygon id="Shape" fill="#9AD30A" fill-rule="nonzero" points="298.040666 342.216 258.015519 318.141 257.968727 318.0393 263.361504 315.0198 303.449639 339.1893"></polygon>
                <ellipse id="Oval" fill="#3A5004" fill-rule="nonzero" transform="translate(277.771109, 353.341429) rotate(60.760000) translate(-277.771109, -353.341429) " cx="277.771109" cy="353.341429" rx="9.10374114" ry="5.2587"></ellipse>
                <polygon id="Shape" fill="#EDEDED" fill-rule="nonzero" points="872.740758 316.0098 873.19698 316.7856 814.805978 351.2196 814.349757 350.4438"></polygon>
                <path d="M126.755895,488.6892 L125.856049,488.6892 L125.856049,440.73 L126.079211,440.6004 C126.079211,440.6004 164.928259,417.9447 203.794404,395.3088 C223.227476,383.9913 242.665048,372.6774 257.25425,364.2048 C264.547501,359.9676 270.629559,356.4414 274.89123,353.979 C281.913627,349.9218 281.910028,349.92 282.181781,350.235 L281.83984,350.5284 L282.009011,350.9424 C280.068943,351.8442 133.435451,437.3514 126.754995,441.2484 L126.754995,488.6892 L126.755895,488.6892 Z" id="Shape" fill="#C1F227" fill-rule="nonzero"></path>
                <polygon id="Shape" fill="#9AD30A" fill-rule="nonzero" points="127.573855 688.8708 2.21991988 619.425 125.570798 547.5492 250.908536 615.8952"></polygon>
                <polygon id="Shape" fill="#719B07" fill-rule="nonzero" points="127.727729 688.7727 2.39179045 618.9147 2.03455162 618.9957 2.25411402 634.419 127.949991 704.3508"></polygon>
                <polygon id="Shape" fill="#3A5004" fill-rule="nonzero" points="126.871975 688.7844 250.82845 615.3894 250.974225 615.4641 251.193787 630.8856 127.092438 704.3616"></polygon>
                <polygon id="Shape" fill="#B3B3B3" fill-rule="nonzero" points="89.2971094 587.7 52.0074946 567.0423 88.7005116 545.661 125.986527 565.992"></polygon>
                <polygon id="Shape" fill="#CCCCCC" fill-rule="nonzero" points="89.3430015 587.664 52.1343729 567.0333 52.1523698 567.0423 52.7615655 609.9705 89.9521972 630.6111"></polygon>
                <polygon id="Shape" fill="#4C4C4C" fill-rule="nonzero" points="89.3430015 587.664 125.948733 565.9857 125.932536 565.9947 126.540832 608.9247 89.9512974 630.6111"></polygon>
                <polygon id="Shape" fill="#719B07" fill-rule="nonzero" points="163.277042 586.6515 125.987427 565.992 162.680444 544.6107 199.966459 564.9417"></polygon>
                <polygon id="Shape" fill="#9AD30A" fill-rule="nonzero" points="163.322034 586.6146 126.115205 565.983 126.133202 565.992 126.741498 608.922 163.932129 629.5617"></polygon>
                <polygon id="Shape" fill="#4E5E0B" fill-rule="nonzero" points="163.322034 586.6146 199.929565 564.9354 199.911569 564.9444 200.521664 607.8744 163.932129 629.5617"></polygon>
                <g id="Group" transform="translate(206.964561, 522.900000)" fill-rule="nonzero">
                    <polygon id="Shape" fill="#719B07" points="16.0082589 18.666 0.116979969 9.8613 15.7545023 0.7497 31.6439815 9.414"></polygon>
                    <polygon id="Shape" fill="#9AD30A" points="16.0280555 18.6498 0.172770416 9.8568 0.179969183 9.8613 0.439124807 28.1556 16.2881109 36.9513"></polygon>
                    <polygon id="Shape" fill="#4E5E0B" points="16.0280555 18.6498 31.6286841 9.4113 31.6196857 9.4149 31.880641 27.7101 16.2863112 36.9531"></polygon>
                </g>
                <polygon id="Shape" fill="#3A5004" fill-rule="nonzero" points="125.508709 523.2708 88.219094 502.6122 124.913011 481.2309 162.199026 501.5619"></polygon>
                <polygon id="Shape" fill="#719B07" fill-rule="nonzero" points="125.555501 523.233 88.3468721 502.605 88.364869 502.614 88.9740647 545.5422 126.164696 566.1828"></polygon>
                <polygon id="Shape" fill="#383838" fill-rule="nonzero" points="125.555501 523.233 162.161233 501.5556 162.145035 501.5646 162.754231 544.4946 126.162897 566.181"></polygon>
                <polygon id="Shape" fill="#FFFFFF" fill-rule="nonzero" points="469.59719 650.6892 468.697344 650.6892 468.697344 608.6457 441.257442 592.407 480.40074 569.9835 435.124992 543.294 448.015285 535.5 417.598693 518.0022 418.048616 517.2219 449.786182 535.4802 436.882391 543.285 482.189633 569.9952 443.046336 592.4205 469.59719 608.1327"></polygon>
                <g id="Group" opacity="0.4" transform="translate(629.892142, 441.000000)" fill-rule="nonzero" fill="#8CC109">
                    <polyline id="Shape" points="201.443106 106.1892 201.443106 149.3892 0.777466872 265.0266 0.777466872 0.8892"></polyline>
                </g>
                <g id="Clipped" transform="translate(497.614792, 656.100000)">
                    <mask id="mask-22" fill="white">
                        <use xlink:href="#path-21"></use>
                    </mask>
                    <g id="SVGID_21_"></g>
                    <polyline id="Shape" fill="#8CC109" fill-rule="nonzero" mask="url(#mask-22)" points="149.494102 40.2714 106.108031 15.2181 40.272604 23.8527 25.5817196 62.0217 68.7149337 86.9301"></polyline>
                </g>
                <ellipse id="Oval" fill="#3A5004" fill-rule="nonzero" cx="567.219673" cy="716.9679" rx="13.4742928" ry="7.7265"></ellipse>
                <polygon id="Shape" fill="#E6E6E6" fill-rule="nonzero" points="823.644265 363.0024 631.18792 252.8442 631.004351 252.8874 631.004351 442.422 823.643365 552.6252"></polygon>
                <polygon id="Shape" fill="#575757" fill-rule="nonzero" points="823.644265 363.0024 631.18792 252.8442 631.004351 252.8874 631.004351 276.0804 823.643365 386.2836"></polygon>
                <polygon id="Shape" fill="#B3B3B3" fill-rule="nonzero" points="823.644265 386.0217 830.847532 381.852 830.921319 381.8907 830.921319 548.4447 823.644265 552.654"></polygon>
                <polygon id="Shape" fill="#424242" fill-rule="nonzero" points="823.644265 362.9016 830.847532 358.7319 830.921319 358.7715 830.921319 381.8907 823.644265 386.1"></polygon>
                <ellipse id="Oval" fill="#719B07" fill-rule="nonzero" cx="639.391815" cy="269.2143" rx="3.52829584" ry="6.1101"></ellipse>
                <ellipse id="Oval" fill="#8CC109" fill-rule="nonzero" cx="650.932339" cy="275.3253" rx="3.52829584" ry="6.1101"></ellipse>
                <ellipse id="Oval" fill="#F2F2F2" fill-rule="nonzero" cx="662.471963" cy="281.4354" rx="3.52829584" ry="6.1101"></ellipse>
                <polygon id="Shape" fill="#383838" fill-rule="nonzero" points="638.389387 248.4306 631.004351 252.828 823.79274 363.1113 830.919519 358.5897"></polygon>
                <g id="Clipped" transform="translate(496.714946, 608.400000)">
                    <mask id="mask-24" fill="white">
                        <use xlink:href="#path-23"></use>
                    </mask>
                    <g id="SVGID_23_"></g>
                    <g id="Group" mask="url(#mask-24)" fill-rule="nonzero" fill="#3A5004">
                        <g transform="translate(25.195686, 15.300000)" id="Shape">
                            <polyline points="134.72943 31.4442 81.6718151 0.8064 16.3573991 9.3798 1.77989522 47.2428 54.8348105 77.8815 120.145627 69.3117 134.72943 31.4442"></polyline>
                            <path d="M1.77899538,47.2437 L16.3564992,9.3807 L81.6718151,0.8064 L134.72853,31.4442 L120.143827,69.3117 L54.8348105,77.8815 L1.77989522,47.2437 M135.712961,31.2777 L81.9489676,0.234 L15.8795809,8.9055 L15.598829,8.9415 L0.844955316,47.2671 L0.787365177,47.4057 L54.551359,78.4512 L120.627045,69.7815 L120.901498,69.7482 L135.658971,31.4199 L135.711162,31.2759"></path>
                        </g>
                    </g>
                </g>
                <g id="Clipped" transform="translate(497.614792, 585.900000)">
                    <mask id="mask-26" fill="white">
                        <use xlink:href="#path-25"></use>
                    </mask>
                    <g id="SVGID_25_"></g>
                    <polyline id="Shape" fill="#719B07" fill-rule="nonzero" mask="url(#mask-26)" points="159.521085 46.2708 106.106231 15.4278 40.2780031 24.0678 25.5817196 62.2332 78.9947735 93.0762 144.824801 84.4362 159.521985 46.2708"></polyline>
                </g>
                <g id="Clipped" transform="translate(497.614792, 564.300000)">
                    <mask id="mask-28" fill="white">
                        <use xlink:href="#path-27"></use>
                    </mask>
                    <g id="SVGID_27_"></g>
                    <polyline id="Shape" fill="#C1F227" fill-rule="nonzero" mask="url(#mask-28)" points="159.524684 45.8334 106.109831 14.9904 40.2807026 23.6304 25.5772203 61.7994 78.992074 92.6424 144.826601 83.9988 159.523784 45.8334"></polyline>
                </g>
                <path d="M566.757153,615.8277 C564.61012,614.5875 562.863519,615.5829 562.85632,618.0507 C562.849122,620.5185 564.584025,623.5227 566.731057,624.7647 C568.87719,626.004 570.62379,625.0077 570.630989,622.5417 C570.638188,620.073 568.903285,617.0679 566.756253,615.8277" id="Shape" fill="#FFFFFF" fill-rule="nonzero"></path>
                <polygon id="Shape" fill="#FFFFFF" fill-rule="nonzero" points="565.880703 620.0892 566.780549 620.0892 566.780549 724.4892 565.880703 724.4892"></polygon>
                <g id="Group" transform="translate(560.604006, 564.300000)" fill-rule="nonzero" fill="#FFFFFF">
                    <path d="M15.9515686,18.2403 C16.52747,18.432 17.5802897,18.2403 18.3955501,18.2403 L25.8237781,18.2403 C26.5436549,16.083 27.4057072,13.7826 28.172376,11.6253 C28.411735,10.9539 28.9390447,9.8037 28.8922527,9.2763 C28.843661,8.7003 27.8367334,7.5987 27.4524992,7.0236 C26.3510878,5.346 25.4881356,4.0041 24.4830077,2.5659 C24.00249,1.8009 23.4751803,1.0809 22.8524869,0.4095 L12.7886102,0.4095 C11.2552727,3.2373 10.056678,6.3531 8.7150077,9.3735 C10.3923205,11.5299 12.1659168,13.8303 13.9863051,16.083 C14.5136148,16.7544 15.4242589,18.0963 15.9515686,18.2403 L15.9515686,18.2403 Z" id="Shape"></path>
                    <path d="M45.2802465,1.8477 C43.6038336,4.2921 42.0704961,6.5934 40.488567,9.0855 C39.9612573,9.9 39.577923,10.8108 38.9552296,11.5299 C38.0463852,12.5379 36.7038151,13.4964 35.5052203,14.2632 C34.2589337,15.1272 32.7732881,15.7014 31.4316179,16.4205 C28.6987858,17.8587 25.7751864,19.2015 23.2835131,20.6865 C22.2288937,21.3093 21.2705578,22.0761 20.2150385,22.6998 C15.0877165,25.9128 10.4877042,29.7945 5.93448382,33.7248 C4.11319569,35.3088 2.29190755,36.8415 0.758570108,38.6145 C2.05254854,39.7647 3.15485978,41.1552 4.64050539,42.4971 L5.98127581,43.6941 C6.12525116,43.6941 8.28218182,41.7294 8.52244068,41.5377 C10.5362958,40.005 11.8788659,38.9979 13.6992542,37.368 C14.5136148,36.6012 15.2811834,35.6427 16.1432357,35.1153 C17.531698,34.2513 19.3052943,33.6303 20.9349153,32.8626 C21.4145331,32.6241 21.9895347,32.1444 22.5636364,32.3361 C22.5636364,33.4863 22.0849183,34.6851 21.7501757,35.7876 C19.4015778,43.2648 17.3409307,52.2288 15.7122096,60.7608 L25.9200616,60.7608 C25.8723698,59.4198 26.5913467,58.1724 27.0223729,56.8782 C27.8844253,54.3375 28.7464777,51.7482 29.6571217,49.1607 C30.1367396,47.8647 30.4237904,46.5237 30.9978921,45.3735 C31.0464838,45.2295 30.9025085,45.0378 31.2858428,45.0855 C32.0057196,45.7083 32.1973867,46.7145 32.6284129,47.5299 C33.5867488,49.5909 34.4973929,51.6519 35.4557288,53.8569 C35.647396,54.2889 35.9830385,54.7209 36.0784222,55.0539 C36.3177812,55.9656 36.2223975,57.0681 36.2700894,58.0266 C36.3663729,58.9383 36.5580401,59.8491 36.3663729,60.7599 L45.2325547,60.7599 C45.0885794,57.3084 45.1848629,53.8092 44.944604,50.9814 C44.6089615,46.476 42.9793405,42.3054 41.4936949,38.6622 C40.9663852,37.368 40.6793344,35.8812 40.1529245,34.3962 C39.4807396,32.4306 38.7626626,30.3696 38.42702,27.6858 C38.3307365,26.8218 37.995094,25.8165 38.1390693,25.2414 C38.3307365,24.2352 39.9117658,23.5638 40.6793344,22.797 C41.7339538,21.6945 42.7399815,20.1132 43.9385763,18.7227 L45.662681,16.8057 C46.2385824,16.1334 46.9566595,15.6069 47.3876857,14.9832 C47.8673035,14.2632 48.1543544,13.3542 48.5844807,12.6342 C49.8802589,10.3815 51.4126965,8.4159 52.7543667,6.1155 C50.4084684,4.5819 47.724228,3.3363 45.2802465,1.8495 L45.2802465,1.8477 Z" id="Shape"></path>
                </g>
                <g id="bar_chart_4_icon_7_" opacity="0.4" transform="translate(468.819723, 514.800000)">
                    <g id="Clipped">
                        <mask id="mask-30" fill="white">
                            <use xlink:href="#path-29"></use>
                        </mask>
                        <g id="SVGID_29_"></g>
                        <path d="M95.4133621,26.8542 L83.1754576,21.8709 L83.1754576,24.5349 L52.4907119,24.1839 L52.139772,17.7777 L20.3797103,17.7444 L20.4624961,22.2444 L44.1248444,22.2444 L44.4829831,28.8522 L83.0863729,29.1204 L83.0791741,31.7079 L95.4133621,26.8551 M72.5068844,39.8898 L59.62649,32.4531 L33.5354576,47.6181 L46.4158521,55.0557 L72.5068844,39.8907 M48.0490724,34.9821 L35.168678,27.5445 L17.0277843,38.088 L29.9090786,45.5256 L48.0499723,34.983 M25.5781202,28.773 L12.8237042,21.4074 L0.522810478,28.557 L13.2781263,35.9217 L25.57902,28.7712" id="Shape" fill="#8CC109" fill-rule="nonzero" mask="url(#mask-30)"></path>
                    </g>
                </g>
                <g id="bar_chart_4_icon_1_" transform="translate(468.819723, 487.800000)">
                    <g id="Clipped">
                        <mask id="mask-32" fill="white">
                            <use xlink:href="#path-31"></use>
                        </mask>
                        <g id="SVGID_31_"></g>
                        <path d="M45.8246533,26.6346 L35.5466133,22.743 L37.802527,26.6778 L22.2999815,34.8228 L16.7029399,25.4808 L0.939439137,34.3998 L4.7934792,41.0031 L16.5184715,34.3197 L22.2864838,43.9533 L41.63947,33.4503 L43.8260955,37.2663 L45.8237535,26.6337 M45.5160062,52.3017 L32.8371772,44.9802 L32.7516918,74.6919 L45.4305208,82.0134 L45.5160062,52.3008 M29.2431926,51.9768 L16.5643636,44.6562 L16.5049738,65.3094 L29.1838028,72.6309 L29.2431926,51.9777 M12.8569985,49.1751 L0.296949153,41.9238 L0.257355932,55.9278 L12.8165054,63.1818 L12.8560986,49.176" id="Shape" fill="#EDEDED" fill-rule="nonzero" mask="url(#mask-32)"></path>
                    </g>
                </g>
                <polygon id="Shape" fill="#3A5004" fill-rule="nonzero" points="407.507821 493.1892 419.205818 493.1892 419.205818 542.6892 407.507821 542.6892"></polygon>
                <polygon id="Shape" fill="#7F7F7F" fill-rule="nonzero" points="734.778182 383.22 719.037177 374.2056 722.598767 372.2346 738.338872 381.1113"></polygon>
                <polygon id="Shape" fill="#B3B3B3" fill-rule="nonzero" points="734.796179 383.2047 719.093867 374.202 719.101066 374.2065 719.119063 407.6811 734.815975 416.6856"></polygon>
                <polygon id="Shape" fill="#9AD30A" fill-rule="nonzero" points="732.504271 384.4755 720.622706 377.6661 720.628105 377.6679 720.640703 402.0579 732.515969 408.8709"></polygon>
                <polygon id="Shape" fill="#575757" fill-rule="nonzero" points="734.796179 383.2047 738.323575 381.1077 738.316376 381.1113 738.334373 414.5859 734.814176 416.6874"></polygon>
                <polygon id="Shape" fill="#7F7F7F" fill-rule="nonzero" points="757.805239 411.8958 742.066934 402.8814 757.805239 394.0056 773.546243 402.8814"></polygon>
                <polygon id="Shape" fill="#B3B3B3" fill-rule="nonzero" points="757.825935 411.8805 742.120924 402.8778 742.128123 402.8814 742.128123 421.1496 757.825935 430.155"></polygon>
                <polygon id="Shape" fill="#575757" fill-rule="nonzero" points="757.825935 411.8805 773.530946 402.8778 773.523747 402.8814 773.523747 421.1496 757.825935 430.155"></polygon>
                <path d="M725.937196,406.7415 C725.023852,406.2141 724.281479,406.6371 724.27788,407.6865 C724.27428,408.7359 725.013954,410.0175 725.927297,410.544 C726.840641,411.0714 727.583014,410.6484 727.586613,409.599 C727.590213,408.5496 726.851439,407.268 725.938096,406.7415" id="Shape" fill="#575757" fill-rule="nonzero"></path>
                <path d="M729.244129,457.1577 L729.244129,482.9139 C729.244129,486.5742 734.350755,489.5415 740.68567,489.5415 C747.020586,489.5415 752.127211,486.576 752.127211,482.9175 L752.127211,456.8085 L729.223433,456.5358" id="Shape" fill="#B3B3B3" fill-rule="nonzero"></path>
                <ellipse id="Oval" fill="#CCCCCC" fill-rule="nonzero" cx="740.68657" cy="456.8454" rx="11.4703359" ry="6.6258"></ellipse>
                <ellipse id="Oval" fill="#719B07" fill-rule="nonzero" cx="740.68657" cy="456.4638" rx="8.16520185" ry="4.7169"></ellipse>
                <path d="M740.68657,454.1337 C744.48212,454.1337 747.672974,455.6304 748.587217,457.6572 C748.759988,457.2765 748.852672,456.876 748.852672,456.4638 C748.852672,453.8592 745.197498,451.7478 740.68837,451.7478 C736.178342,451.7478 732.523168,453.8583 732.523168,456.4638 C732.523168,456.876 732.614952,457.2756 732.787723,457.6572 C733.701066,455.6295 736.89102,454.1337 740.68837,454.1337 L740.68657,454.1337 Z" id="Shape" fill="#9AD30A" fill-rule="nonzero"></path>
                <g id="Clipped" transform="translate(744.172573, 405.900000)">
                    <mask id="mask-34" fill="white">
                        <use xlink:href="#path-33"></use>
                    </mask>
                    <g id="SVGID_33_"></g>
                    <path d="M4.00431433,5.7906 L4.00881356,4.1661 C4.0115131,3.2661 4.64500462,2.9061 5.42697072,3.3561 C6.20353775,3.8061 6.83972881,4.8996 6.83702928,5.7978 L6.83253005,7.4223 L4.00521418,5.7897 M5.42967026,2.8152 C4.38944838,2.214 3.54269337,2.6964 3.53999384,3.8916 L3.53459476,5.5161 L1.65571649,4.4325 L0.686582435,13.0797 L10.097171,18.5139 L9.18202773,8.7786 L7.30314946,7.6941 L7.30764869,6.0696 C7.31124807,4.8744 6.4689923,3.4146 5.42967026,2.8152" id="Shape" fill="#FFFFFF" fill-rule="nonzero" mask="url(#mask-34)"></path>
                </g>
                <polygon id="Shape" fill="#7F7F7F" fill-rule="nonzero" points="778.384715 423.8433 762.64641 414.8289 778.384715 405.9549 794.12572 414.8289"></polygon>
                <polygon id="Shape" fill="#B3B3B3" fill-rule="nonzero" points="778.405411 423.828 762.700401 414.8253 762.707599 414.8289 762.707599 433.0989 778.405411 442.1034"></polygon>
                <polygon id="Shape" fill="#575757" fill-rule="nonzero" points="778.405411 423.828 794.110422 414.8253 794.103223 414.8289 794.103223 433.0989 778.405411 442.1034"></polygon>
                <g id="Clipped" transform="translate(764.869029, 417.600000)">
                    <mask id="mask-36" fill="white">
                        <use xlink:href="#path-35"></use>
                    </mask>
                    <g id="SVGID_35_"></g>
                    <path d="M3.88733436,6.039 L3.89093374,4.4136 C3.89363328,3.5154 4.53342373,3.1572 5.30909091,3.6054 C6.09015716,4.0554 6.72004931,5.148 6.71734977,6.0462 L6.71285054,7.6707 L3.88733436,6.0381 M5.3108906,3.0627 C4.27066872,2.4624 3.42391371,2.9457 3.42121418,4.14 L3.4158151,5.7654 L1.53693683,4.6809 L0.568702619,13.3299 L9.97929122,18.7632 L9.06324807,9.0279 L7.1843698,7.9434 L7.18886903,6.3189 C7.19156857,5.1237 6.34931279,3.6639 5.30999076,3.0645" id="Shape" fill="#FFFFFF" fill-rule="nonzero" mask="url(#mask-36)"></path>
                </g>
                <polygon id="Shape" fill="#7F7F7F" fill-rule="nonzero" points="798.964191 435.7908 783.225886 426.7764 798.964191 417.9024 814.705196 426.7764"></polygon>
                <polygon id="Shape" fill="#7F7F7F" fill-rule="nonzero" points="773.345578 460.5624 771.680863 459.5571 783.342866 452.9898 784.985985 453.924"></polygon>
                <polygon id="Shape" fill="#7F7F7F" fill-rule="nonzero" points="774.761935 459.36 773.059427 460.3464 705.950718 421.9236 707.590237 420.9786"></polygon>
                <polygon id="Shape" fill="#7F7F7F" fill-rule="nonzero" points="671.314749 440.6625 669.61404 441.648 641.87719 426.0906 643.514909 425.1456"></polygon>
                <polygon id="Shape" fill="#B3B3B3" fill-rule="nonzero" points="798.984888 435.7755 783.279877 426.7728 783.287076 426.7764 783.287076 445.0446 798.984888 454.0509"></polygon>
                <polygon id="Shape" fill="#575757" fill-rule="nonzero" points="798.984888 435.7755 814.689898 426.7728 814.6827 426.7764 814.6827 445.0446 798.984888 454.05"></polygon>
                <g id="Group" transform="translate(702.779661, 371.700000)" fill-rule="nonzero">
                    <polygon id="Shape" fill="#7F7F7F" points="10.7351618 8.2368 0.458921418 2.3508 3.92512789 0.4158 14.2013683 6.2118"></polygon>
                    <polygon id="Shape" fill="#B3B3B3" points="10.7486595 8.226 0.494915254 2.349 0.499414484 2.3517 0.499414484 14.2794 10.7486595 20.1591"></polygon>
                    <polygon id="Shape" fill="#575757" points="10.7486595 8.226 14.19147 6.21 14.1878706 6.2118 14.1878706 18.1395 10.7504592 20.1591"></polygon>
                </g>
                <g id="Group" transform="translate(697.380586, 374.400000)" fill-rule="nonzero">
                    <polygon id="Shape" fill="#7F7F7F" points="10.7126656 8.6904 0.43642527 2.8044 3.90083205 0.8694 14.1788721 6.6654"></polygon>
                    <polygon id="Shape" fill="#B3B3B3" points="10.7261633 8.6805 0.47151926 2.8035 0.47601849 2.8053 0.47601849 14.733 10.7252635 20.6127"></polygon>
                    <polygon id="Shape" fill="#575757" points="10.7261633 8.6805 14.1689738 6.6645 14.1635747 6.6645 14.1635747 18.5931 10.7261633 20.6118"></polygon>
                </g>
                <g id="Group" transform="translate(691.981510, 378.000000)" fill-rule="nonzero">
                    <polygon id="Shape" fill="#7F7F7F" points="10.6901695 8.244 0.413929122 2.358 3.8783359 0.423 14.1545763 6.219"></polygon>
                    <polygon id="Shape" fill="#B3B3B3" points="10.7027673 8.235 0.449023112 2.3562 0.452622496 2.3589 0.452622496 14.2866 10.7018675 20.1672"></polygon>
                    <polygon id="Shape" fill="#575757" points="10.7027673 8.235 14.1455778 6.2172 14.1410786 6.219 14.1410786 18.1467 10.7036672 20.1663"></polygon>
                </g>
                <g id="Clipped" transform="translate(785.565485, 429.300000)">
                    <mask id="mask-38" fill="white">
                        <use xlink:href="#path-37"></use>
                    </mask>
                    <g id="SVGID_37_"></g>
                    <path d="M3.7685547,6.2856 L3.77305393,4.6611 C3.77575347,3.7611 4.41554391,3.4038 5.19121109,3.8511 C5.9713775,4.3029 6.60126965,5.3946 6.59946995,6.2928 L6.59497072,7.9173 L3.76765485,6.2847 M5.19211094,3.3102 C4.15278891,2.709 3.31143297,3.195 3.30783359,4.3902 L3.30333436,6.0147 L1.41995686,4.9257 L0.45172265,13.5747 L9.86411094,19.008 L8.9462681,9.2727 L7.06828968,8.1882 L7.07278891,6.5637 C7.07638829,5.3685 6.23413251,3.9087 5.19481048,3.3093" id="Shape" fill="#FFFFFF" fill-rule="nonzero" mask="url(#mask-38)"></path>
                </g>
                <g id="Clipped" transform="translate(775.667180, 450.000000)">
                    <mask id="mask-40" fill="white">
                        <use xlink:href="#path-39"></use>
                    </mask>
                    <g id="SVGID_39_"></g>
                    <polyline id="Shape" fill="#7F7F7F" fill-rule="nonzero" mask="url(#mask-40)" points="10.4247149 2.4156 0 4.0356 7.66398767 8.46 10.4247149 2.4156"></polyline>
                </g>
                <polygon id="Shape" fill="#7F7F7F" fill-rule="nonzero" points="753.834219 447.7284 752.171304 446.7231 764.197744 439.9704 765.841763 440.9046"></polygon>
                <g id="Clipped" transform="translate(755.870570, 436.500000)">
                    <mask id="mask-42" fill="white">
                        <use xlink:href="#path-41"></use>
                    </mask>
                    <g id="SVGID_41_"></g>
                    <polyline id="Shape" fill="#7F7F7F" fill-rule="nonzero" mask="url(#mask-42)" points="11.0771032 2.898 0.651488444 4.518 8.31547612 8.9433 11.0780031 2.8989"></polyline>
                </g>
                <polygon id="Shape" fill="#7F7F7F" fill-rule="nonzero" points="733.430213 436.4136 730.606496 436.0536 743.906219 428.4828 745.550237 429.417"></polygon>
                <g id="Clipped" transform="translate(736.073960, 424.800000)">
                    <mask id="mask-44" fill="white">
                        <use xlink:href="#path-43"></use>
                    </mask>
                    <g id="SVGID_43_"></g>
                    <polyline id="Shape" fill="#7F7F7F" fill-rule="nonzero" mask="url(#mask-44)" points="10.5884869 3.1068 0.157473035 4.7295 7.82236055 9.1548 10.5884869 3.1068"></polyline>
                </g>
                <polygon id="Shape" fill="#7F7F7F" fill-rule="nonzero" points="709.285547 421.9236 706.461831 421.5636 719.761553 413.9928 721.404672 414.9288"></polygon>
                <g id="Clipped" transform="translate(711.778120, 410.400000)">
                    <mask id="mask-46" fill="white">
                        <use xlink:href="#path-45"></use>
                    </mask>
                    <g id="SVGID_45_"></g>
                    <polyline id="Shape" fill="#7F7F7F" fill-rule="nonzero" mask="url(#mask-46)" points="10.7315624 3.0222 0.306847458 4.6422 7.97173498 9.0666 10.7324622 3.0222"></polyline>
                </g>
                <polygon id="Shape" fill="#7F7F7F" fill-rule="nonzero" points="755.885867 464.715 754.222952 463.7097 766.878385 456.561 768.521504 457.4952"></polygon>
                <ellipse id="Oval" fill="#7F7F7F" fill-rule="nonzero" cx="756.548154" cy="463.0554" rx="3.2844376" ry="1.8828"></ellipse>
                <g id="Group" transform="translate(646.989214, 311.400000)">
                    <polygon id="Shape" fill="#7F7F7F" fill-rule="nonzero" points="41.3569183 26.8056 0.168271186 3.0312 4.02681048 0.8964 45.2163575 24.5196"></polygon>
                    <polygon id="Shape" fill="#9AD30A" fill-rule="nonzero" points="41.3785146 26.7885 0.228560863 3.0285 0.23575963 3.0321 0.253756549 39.2967 41.3974114 63.0612"></polygon>
                    <polygon id="Shape" fill="#719B07" fill-rule="nonzero" points="41.3785146 26.7705 0.228560863 3.0105 0.23575963 3.0132 0.253756549 6.768 41.3974114 30.5334"></polygon>
                    <polygon id="Shape" fill="#575757" fill-rule="nonzero" points="41.3785146 26.7885 45.1992604 24.5169 45.1902619 24.5214 45.2100586 60.7869 41.3974114 63.0639"></polygon>
                    <g id="network-2_13_" transform="translate(9.898305, 18.900000)">
                        <g id="Clipped">
                            <mask id="mask-48" fill="white">
                                <use xlink:href="#path-47"></use>
                            </mask>
                            <g id="SVGID_47_"></g>
                            <path d="M12.6068413,23.7825 C12.6545331,23.8095 12.6968259,23.8293 12.7418182,23.85 C12.8659969,24.399 12.9667797,24.948 13.035168,25.4817 C12.4655655,25.497 11.8500709,25.4061 11.2057812,25.1937 C11.7249923,24.8049 12.1749153,24.3243 12.5447519,23.7447 L12.6077411,23.7825 M5.46836364,12.933 C5.91288752,13.1895 6.35381202,13.1922 6.61566718,12.8664 C8.74560247,14.9886 10.5335963,17.7264 11.7051957,20.5929 C11.1400924,20.9223 11.142792,21.9627 11.7105948,22.8789 C11.206681,23.6259 10.5677904,24.2019 9.82361787,24.5862 C9.7633282,24.5529 9.70213867,24.5187 9.641849,24.4836 C6.12345146,22.4514 3.26374114,17.9766 2.51686903,13.8591 C3.08917103,13.0716 3.81534669,12.5001 4.66210169,12.1554 C4.90146071,12.5046 5.18581202,12.7701 5.46836364,12.9339 M2.33689985,12.2013 C2.33060092,12.0726 2.31890293,11.934 2.31890293,11.808 C2.32160247,11.0808 2.40888752,10.4373 2.56186133,9.8496 C2.78142373,9.963 3.00098613,10.0809 3.22234823,10.2096 C3.51929738,10.3806 3.82164561,10.5696 4.14019106,10.7883 L4.16898613,10.9953 C3.48960247,11.259 2.87860709,11.6613 2.336,12.2013 M13.8540277,25.3863 C13.7802404,24.9003 13.683057,24.4008 13.566077,23.9013 C14.2274638,23.5971 14.2022681,22.4118 13.5210847,21.4425 C13.9512111,19.7271 13.9800062,17.6085 13.537282,15.2883 C13.6758582,15.2757 13.7910385,15.2163 13.8828228,15.1245 C14.9626379,16.0983 15.9596672,17.2305 16.8613128,18.4635 C16.9566965,19.0818 17.0124869,19.6965 17.0106872,20.2905 C17.0016888,23.1435 15.7545023,24.948 13.8540277,25.3845 M12.4979599,20.5749 C11.2408752,17.4627 9.25851464,14.3667 6.81363328,11.9619 L6.7866379,11.7747 C8.176,11.7945 9.67244376,12.267 11.177886,13.1364 C11.2633713,13.185 11.3488567,13.2354 11.4316425,13.2858 C11.6602034,13.941 12.1128259,14.5926 12.6527334,14.9841 L12.6572327,14.9877 C13.0603636,17.0397 13.0774607,19.008 12.6644314,20.6541 L12.4979599,20.5776 M12.5627488,11.8386 C12.1632173,10.7496 11.6656025,9.6543 11.0870015,8.5734 C13.5210847,10.5219 15.5322404,13.6206 16.4554823,16.7328 C15.7158089,15.8292 14.9347427,15.0084 14.1158829,14.2704 C14.0438952,13.3929 13.361812,12.3012 12.573547,11.8458 L12.5627488,11.8395 M2.85701079,8.9865 C3.95122342,6.5043 6.6003698,5.8248 9.69134052,7.6095 C10.4922034,8.9145 11.1787858,10.2951 11.7105948,11.7063 C11.5216271,11.7819 11.382151,11.9466 11.323661,12.204 L11.1796857,12.1194 C9.42768567,11.1096 7.77106934,10.62 6.28632357,10.6191 C6.04516487,10.2726 5.76261325,10.0098 5.48276117,9.8487 C5.03913713,9.5922 4.60091217,9.5895 4.34355624,9.9072 C3.9566225,9.6372 3.60118336,9.4104 3.25294299,9.2097 C3.12066564,9.1323 2.98838829,9.0594 2.85701079,8.9883 M9.69583975,5.9283 C4.82407396,3.1149 0.86385208,5.3649 0.8485547,10.9647 C0.832357473,16.5573 4.76648382,23.373 9.64004931,26.1855 C14.5055162,28.9953 18.4648382,26.7381 18.4810354,21.1455 C18.4963328,15.5475 14.5622065,8.7381 9.69583975,5.9283" id="Shape" fill="#FFFFFF" fill-rule="nonzero" mask="url(#mask-48)"></path>
                        </g>
                    </g>
                </g>
                <g id="network-2_11_" transform="translate(722.576271, 387.900000)">
                    <g id="Clipped">
                        <mask id="mask-50" fill="white">
                            <use xlink:href="#path-49"></use>
                        </mask>
                        <g id="SVGID_49_"></g>
                        <path d="M4.85286903,10.0845 C5.05983359,9.9333 5.23980277,9.7389 5.38377812,9.5112 L5.46476425,9.5508 C5.51515562,9.7722 5.54934977,9.9828 5.57724499,10.1988 C5.35228351,10.2078 5.11112481,10.1673 4.85286903,10.0845 M2.58165794,5.2245 C2.75622804,5.3271 2.92989831,5.3289 3.03608012,5.2002 C3.87923575,6.0444 4.5838151,7.1262 5.04723575,8.2602 C4.82857319,8.3907 4.8267735,8.8002 5.04993529,9.1674 C4.85376888,9.4644 4.60001233,9.6948 4.30576271,9.8424 L4.23377504,9.801 C2.83541448,8.9937 1.70160863,7.2216 1.41185824,5.5917 C1.63681972,5.2857 1.92027119,5.0517 2.2595131,4.9167 C2.35579661,5.0544 2.46827735,5.1597 2.58075809,5.2254 M1.33897072,4.9338 L1.3326718,4.779 C1.3326718,4.4955 1.36866564,4.239 1.42715562,4.0068 C1.51714022,4.0518 1.60712481,4.1022 1.70070878,4.1553 C1.81408937,4.221 1.93016949,4.293 2.05344838,4.3749 L2.06514638,4.4613 C1.79339291,4.563 1.55223421,4.7223 1.33807088,4.9347 M5.90298921,10.1637 C5.86879507,9.9657 5.83460092,9.774 5.78420955,9.5724 C6.05056394,9.4554 6.03976579,8.9856 5.77071186,8.5986 C5.9398829,7.9146 5.95338059,7.0776 5.77791063,6.1623 L5.9164869,6.0966 C6.34121418,6.4809 6.73714638,6.9273 7.09258552,7.4169 C7.13217874,7.6644 7.15557473,7.9029 7.15377504,8.1405 C7.14927581,9.2763 6.65256086,9.9882 5.90298921,10.1637 M5.36308166,8.2575 C4.86546687,7.0182 4.07990139,5.7978 3.10986749,4.8411 L3.09816949,4.7691 C3.6470755,4.7727 4.23917411,4.9626 4.83487211,5.3064 L4.94285362,5.3712 C5.02923883,5.6259 5.2128074,5.8842 5.42517103,6.0399 C5.58444376,6.8526 5.59434206,7.6329 5.43146995,8.2845 L5.36308166,8.2575 M5.39007704,4.7943 C5.23080431,4.3578 5.0364376,3.9213 4.80787673,3.4983 C5.77251156,4.2669 6.56887519,5.4936 6.93331279,6.7293 C6.64086287,6.3765 6.33041602,6.0453 6.00917103,5.76 C5.97587673,5.4063 5.71222188,4.9797 5.40177504,4.7997 L5.39097689,4.7934 M1.54503544,3.6567 C1.97966102,2.6775 3.02798151,2.403 4.25087211,3.1095 C4.57121726,3.6315 4.84027119,4.1778 5.05173498,4.7358 C4.97704777,4.7655 4.92575655,4.8348 4.90146071,4.9338 L4.86546687,4.9122 C4.15998767,4.5054 3.50040062,4.3092 2.90650231,4.311 C2.80931895,4.1706 2.69593837,4.0644 2.58435747,3.9996 C2.40978737,3.8988 2.23701695,3.8988 2.13443451,4.0248 C1.97246225,3.9105 1.82398767,3.816 1.67821263,3.7323 C1.63322034,3.7053 1.58822804,3.681 1.54323575,3.6567 M4.25177196,2.4435 C2.32250231,1.3275 0.754070878,2.2221 0.747771957,4.4415 C0.741473035,6.6609 2.30000616,9.3573 4.23017565,10.4715 C6.16034515,11.5875 7.72877658,10.6938 7.7350755,8.4753 C7.74137442,6.2559 6.18374114,3.5577 4.2526718,2.4435" id="Shape" fill="#FFFFFF" fill-rule="nonzero" mask="url(#mask-50)"></path>
                    </g>
                </g>
                <path d="M674.614484,423.7794 L674.614484,449.5356 C674.614484,453.195 679.72021,456.1623 686.055125,456.1623 C692.39004,456.1623 697.496666,453.1968 697.496666,449.5383 L697.496666,423.4293 L674.591988,423.1566" id="Shape" fill="#B3B3B3" fill-rule="nonzero"></path>
                <ellipse id="Oval" fill="#CCCCCC" fill-rule="nonzero" cx="686.055125" cy="423.468" rx="11.4703359" ry="6.6258"></ellipse>
                <ellipse id="Oval" fill="#719B07" fill-rule="nonzero" cx="686.055125" cy="423.0855" rx="8.16520185" ry="4.7169"></ellipse>
                <path d="M686.055125,420.7554 C689.852475,420.7554 693.041529,422.2521 693.955772,424.2789 C694.128542,423.8991 694.221227,423.4986 694.221227,423.0864 C694.221227,420.4818 690.564253,418.3704 686.055125,418.3704 C681.545097,418.3704 677.889923,420.4809 677.889923,423.0864 C677.889923,423.4986 677.982607,423.8982 678.155378,424.2798 C679.069621,422.2548 682.258675,420.7572 686.056025,420.7572 L686.055125,420.7554 Z" id="Shape" fill="#9AD30A" fill-rule="nonzero"></path>
                <polygon id="Shape" fill="#7F7F7F" fill-rule="nonzero" points="643.374533 426.951 641.711618 425.9448 684.868228 399.9726 686.510447 400.9068"></polygon>
                <g id="Clipped" transform="translate(681.183359, 394.200000)">
                    <mask id="mask-52" fill="white">
                        <use xlink:href="#path-51"></use>
                    </mask>
                    <g id="SVGID_51_"></g>
                    <polyline id="Shape" fill="#7F7F7F" fill-rule="nonzero" mask="url(#mask-52)" points="10.786453 3.0222 0.361738059 4.6422 8.02572573 9.0666 10.7855532 3.0222"></polyline>
                </g>
                <ellipse id="Oval" fill="#7F7F7F" fill-rule="nonzero" cx="669.465565" cy="440.6634" rx="3.2844376" ry="1.8828"></ellipse>
                <g id="connection-1_8_" transform="translate(679.383667, 433.800000)" fill-rule="nonzero" fill="#FFFFFF">
                    <polygon id="Shape" points="4.00791371 15.4233 5.91108783 9.7128 0.200665639 9.7128 9.08214484 0.1962 7.17807088 5.9067 12.8875932 5.9067 4.00611402 15.4233"></polygon>
                </g>
                <g id="connection-1_7_" transform="translate(734.274268, 468.000000)" fill-rule="nonzero" fill="#FFFFFF">
                    <polygon id="Shape" points="3.86393837 15.345 5.76711248 9.6354 0.0566902928 9.6354 8.93816949 0.1188 7.03409553 5.8293 12.7436179 5.8293 3.86213867 15.3459"></polygon>
                </g>
                <g id="cubo4" transform="translate(1148.203390, 549.000000)" fill-rule="nonzero">
                    <polygon id="Shape" fill="#719B07" points="10.2915378 11.5398 0.786465331 6.2748 10.1394638 0.8235 19.6436364 6.0075"></polygon>
                    <polygon id="Shape" fill="#9AD30A" points="10.3032357 11.5308 0.818859784 6.2721 0.82425886 6.2721 0.979032357 17.2161 10.4589091 22.4766"></polygon>
                    <polygon id="Shape" fill="#4E5E0B" points="10.3032357 11.5308 19.6346379 6.0048 19.6301387 6.0066 19.785812 16.9506 10.4589091 22.4766"></polygon>
                </g>
                <g id="cubo3" transform="translate(1109.510015, 567.900000)" fill-rule="nonzero">
                    <polygon id="Shape" fill="#719B07" points="24.7772573 27.6957 0.54440678 14.2713 24.3903236 0.3771 48.6186749 13.5891"></polygon>
                    <polygon id="Shape" fill="#9AD30A" points="24.8069522 27.6723 0.62809245 14.265 0.640690293 14.2704 1.0366225 42.1668 25.2028844 55.5795"></polygon>
                    <polygon id="Shape" fill="#4E5E0B" points="24.8069522 27.6723 48.5952789 13.5846 48.5835809 13.59 48.9795131 41.4864 25.2037843 55.5804"></polygon>
                </g>
                <g id="cubo2" transform="translate(33.294299, 498.600000)" fill-rule="nonzero">
                    <polygon id="Shape" fill="#719B07" points="11.6674022 12.8538 0.311346687 6.5628 11.4856333 0.0504 22.8416888 6.2424"></polygon>
                    <polygon id="Shape" fill="#9AD30A" points="11.6817997 12.843 0.350040062 6.5592 0.354539291 6.5619 0.540807396 19.6362 11.8662681 25.9218"></polygon>
                    <polygon id="Shape" fill="#4E5E0B" points="11.6817997 12.843 22.8308906 6.2406 22.8245917 6.2433 23.0099599 19.3167 11.8689676 25.92"></polygon>
                </g>
                <g id="cubo1" transform="translate(0.000000, 522.000000)" fill-rule="nonzero">
                    <polygon id="Shape" fill="#719B07" points="23.0774484 25.2108 0.842255778 12.8916 22.7220092 0.1422 44.9572018 12.2652"></polygon>
                    <polygon id="Shape" fill="#9AD30A" points="23.1044438 25.1892 0.917842835 12.8862 0.928640986 12.8916 1.29217874 38.4903 23.4679815 50.7978"></polygon>
                    <polygon id="Shape" fill="#4E5E0B" points="23.1044438 25.1892 44.932906 12.2616 44.9239076 12.267 45.2865455 37.8657 23.4679815 50.7987"></polygon>
                </g>
                <g id="nube2" transform="translate(567.802773, 107.100000)">
                    <g id="cloud-17-icon_23_" transform="translate(4.499230, 0.000000)">
                        <g id="Clipped">
                            <mask id="mask-54" fill="white">
                                <use xlink:href="#path-53"></use>
                            </mask>
                            <g id="SVGID_53_"></g>
                            <path d="M53.6236179,68.2794 L60.2581818,64.5048 L66.8378552,75.9096 L62.7993467,73.5786 C62.6580709,82.6686 56.1161911,86.319 48.1183606,81.7011 C44.6422558,79.6941 41.2741325,76.3128 38.6339846,72.1881 L38.4558151,71.9073 L42.0524992,69.8571 L42.2072727,70.0857 C43.9079815,72.6237 45.9578305,74.6262 48.1354576,75.8835 C53.3410663,78.8895 57.6054361,76.5441 57.7368136,70.6545 L53.622718,68.2785 M36.2376949,65.9187 L29.6535223,54.5103 L33.6920308,56.8413 C33.8387057,47.754 40.3805855,44.1045 48.3775162,48.7233 C51.847322,50.7258 55.2163451,54.0999 57.851094,58.221 L58.0355624,58.5063 L54.4334792,60.5529 L54.2841048,60.3279 C52.583396,57.7989 50.533547,55.7955 48.361319,54.5409 C43.1512111,51.5322 38.8859414,53.8767 38.7536641,59.7663 L42.8659599,62.1423 L36.2394946,65.9205 M55.0147797,31.9248 C47.467772,27.5688 39.8478767,27.1845 34.9797103,33.2433 C33.0126471,30.8241 30.9079076,29.0169 28.8454607,27.8253 C22.588832,24.2127 16.7191371,26.2638 16.2170231,34.0227 C7.49751618,30.2193 0.717177196,34.848 0.688382126,45.2007 C0.656887519,56.3931 8.53053929,70.0335 18.2686718,75.6567 L73.5435069,107.5761 C83.2861387,113.2029 91.2074823,108.6831 91.238077,97.4907 C91.2650724,88.4385 86.1269522,77.7987 79.009171,71.0775 C77.9599507,54.6057 66.5733005,38.601 55.0138798,31.9275" id="Shape" fill="#3A5004" fill-rule="nonzero" mask="url(#mask-54)"></path>
                        </g>
                    </g>
                    <polygon id="Shape" fill="#3A5004" fill-rule="nonzero" points="24.0060894 49.3857 50.4993529 36.7344 70.5839137 55.611 79.8928197 85.257 67.4326533 95.5926 43.1098182 82.404 27.4794946 68.6646"></polygon>
                    <g id="cloud-17-icon_19_" transform="translate(0.000000, 1.800000)">
                        <g id="Clipped">
                            <mask id="mask-56" fill="white">
                                <use xlink:href="#path-55"></use>
                            </mask>
                            <g id="SVGID_55_"></g>
                            <path d="M54.3956857,31.8393 C46.8495778,27.4815 39.2296826,27.0999 34.3615162,33.1569 C32.394453,30.7404 30.2906133,28.9359 28.2290663,27.7443 C21.9733374,24.1308 16.1027427,26.1783 15.5997288,33.9363 C6.88022188,30.1329 0.0998828968,34.7616 0.0710878274,45.1143 C0.0395932203,56.3067 7.91324499,69.9471 17.6513775,75.5703 L72.9316117,107.4933 C82.6697442,113.1156 90.5955871,108.5985 90.6270817,97.407 C90.654077,88.353 85.5096579,77.7123 78.3927766,70.9965 C77.3435562,54.5202 65.956906,38.5155 54.3965855,31.8393" id="Shape" fill="#EDEDED" fill-rule="nonzero" mask="url(#mask-56)"></path>
                        </g>
                    </g>
                </g>
                <g id="nube1" transform="translate(381.534669, 0.000000)">
                    <g id="cloud-17-icon_11_">
                        <g id="Clipped">
                            <mask id="mask-58" fill="white">
                                <use xlink:href="#path-57"></use>
                            </mask>
                            <g id="SVGID_57_"></g>
                            <path d="M90.0448814,100.5858 L101.229966,81.2178 L112.474441,87.6348 L105.620314,91.5921 C105.463741,107.2566 94.4280308,126.2349 80.8520555,134.0739 C74.9526656,137.4813 69.2233467,138.3552 64.7178182,136.5462 L64.4118706,136.4238 L70.483131,125.9082 L70.7422866,125.9964 C73.6451895,126.9522 77.1365917,126.3321 80.8250601,124.2018 C89.6669461,119.0961 96.8603143,106.7751 97.0267858,96.5538 L90.0457812,100.584 M60.6046225,130.6206 L49.3583482,124.2036 L56.2124746,120.2463 C56.3681479,104.58 67.3975593,85.6116 80.9744345,77.7726 C86.8747242,74.3652 92.5977442,73.4886 97.1032727,75.2913 L97.4092203,75.4128 L91.3379599,85.9284 L91.0788043,85.8384 C88.1759014,84.8898 84.6898983,85.5072 81.00053,87.6384 C72.1640431,92.7396 64.9724746,105.0624 64.7997042,115.2864 L71.7861079,111.2526 L60.6028228,130.6188 M92.0434391,36.3528 C79.2323328,43.7508 66.3393405,58.0158 58.1615408,77.796 C54.8078151,77.553 51.2291279,78.615 47.7278274,80.6382 C37.1069461,86.7708 27.196943,101.727 26.4230755,115.8318 C11.6296086,126.4644 0.203365177,147.573 0.252856703,165.1428 C0.306847458,184.1454 13.7541448,191.8098 30.2897134,182.2626 L124.125646,128.0772 C140.660314,118.5282 154.020327,95.3847 153.966336,76.3812 C153.923143,61.0182 145.12445,53.0757 133.024222,55.6317 C131.087753,29.8179 111.665479,25.0227 92.0452388,36.3537" id="Shape" fill="#9AD30A" fill-rule="nonzero" mask="url(#mask-58)"></path>
                        </g>
                    </g>
                    <polygon id="Shape" fill="#9AD30A" fill-rule="nonzero" points="7.38773498 183.3048 21.4640247 190.395 37.8772142 179.226 27.1897442 173.8332"></polygon>
                    <path d="M118.752666,66.429 L130.239199,73.2672 L154.208394,61.6869 L141.779723,55.4157 L118.752666,66.429 Z M41.0032789,142.596 L77.0556055,156.051 C77.0556055,156.051 109.720012,146.4912 111.812154,144.387 C113.903396,142.281 147.381263,121.3155 146.129578,116.3088 C144.877892,111.3021 132.050589,80.3214 132.050589,80.3214 L101.700586,60.2937 L79.1738428,81.8343 L51.0176641,107.244 L41.002379,142.596 L41.0032789,142.596 Z" id="Shape" fill="#719B07" fill-rule="nonzero"></path>
                    <g id="cloud-17-icon_2_" transform="translate(12.597843, 6.300000)">
                        <g id="Clipped">
                            <mask id="mask-60" fill="white">
                                <use xlink:href="#path-59"></use>
                            </mask>
                            <g id="SVGID_59_"></g>
                            <path d="M91.0014176,100.8522 L102.294484,81.2889 L113.654139,87.7716 L106.725325,91.773 C106.568752,107.5896 95.4304592,126.747 81.7168074,134.6652 C75.7598274,138.1059 69.9720185,138.9942 65.4268968,137.1672 L65.1146502,137.0358 L71.2426009,126.4212 L71.5062558,126.5067 C74.4379538,127.4787 77.958151,126.855 81.6871125,124.7022 C90.6153837,119.547 97.8825393,107.1027 98.0553097,96.7788 L91.0005177,100.8522 M61.2660092,131.184 L49.9099538,124.7058 L56.8342681,120.708 C56.9917411,104.8842 68.1363328,85.725 81.8436857,77.8086 C87.8006656,74.3679 93.5821757,73.4841 98.1281972,75.303 L98.4395439,75.4272 L92.3115932,86.049 L92.0479384,85.9635 C89.1162404,84.9978 85.5960431,85.6287 81.8733806,87.7779 C72.9451094,92.9349 65.6833529,105.3747 65.5114823,115.6986 L72.5662743,111.6243 L61.2669091,131.1849 M93.0242712,35.9847 C80.0844869,43.4565 67.0637165,57.8637 58.803131,77.8401 C55.4161109,77.5953 51.8023297,78.6681 48.2659353,80.7111 C37.539772,86.9031 27.5316857,102.0051 26.7542188,116.2521 C11.8113775,126.9846 0.276252696,148.3011 0.325744222,166.0437 C0.379734977,185.238 13.9611094,192.978 30.6622496,183.3327 L125.425023,128.6127 C142.119864,118.9737 155.611254,95.6007 155.557263,76.4064 C155.514071,60.8967 146.628992,52.866 134.408185,55.4526 C132.45372,29.385 112.841578,24.5421 93.0242712,35.9856" id="Shape" fill="#EDEDED" fill-rule="nonzero" mask="url(#mask-60)"></path>
                        </g>
                    </g>
                </g>
            </g>
        </g>
    </g>
</svg>