<svg xmlns="http://www.w3.org/2000/svg" xmlns:xlink="http://www.w3.org/1999/xlink" version="1.1" id="Capa_1" x="0px" y="0px" viewBox="0 0 879.4 189.8" style="enable-background:new 0 0 879.4 189.8;" xml:space="preserve" class="eroskilogo">
<style type="text/css">
	.eroskilogo .st0{fill-rule:evenodd;clip-rule:evenodd;fill:#C22821;}
	.eroskilogo .st1{fill-rule:evenodd;clip-rule:evenodd;fill:#003FA2;}
	.eroskilogo .st2{fill-rule:evenodd;clip-rule:evenodd;fill:#FFFFFF;}
</style>
<g>
	<path id="XMLID_15_" class="st0" d="M854.4,0h-4.3H472.9H234.6c-13.8,0-25,11.3-25,25v139.8c0,13.8,11.3,25,25,25h129h468.7h22.2   c13.7,0,25-11.3,25-25V25C879.4,11.3,868.2,0,854.4,0z"/>
	<path class="st1" d="M25,0h75.3C59.7,13.5,29.7,53.2,29.7,98.2c0,5.9,0.5,11.6,1.5,17.2C12.7,129.5,6.6,152.6,4,178.2   c-2.5-3.9-4-8.5-4-13.5V25C0,11.3,11.3,0,25,0L25,0z M103,0L103,0L103,0L103,0z M181.5,168.5L181.5,168.5L181.5,168.5z    M181.5,168.6l4.2,9.6c-4.5,6.9-12.2,11.5-21,11.5h-31.2C151.4,187.2,167.8,179.6,181.5,168.6L181.5,168.6z M106.7,189.8H25   c-8.6,0-16.3-4.4-20.8-11.1c7.9-16.2,19.4-29.4,34.5-39.4C51.5,166.1,76.6,185.3,106.7,189.8L106.7,189.8z"/>
	<path id="XMLID_9_" class="st0" d="M103,0h61.8c13.7,0,25,11.3,25,25v139.8c0,4.9-1.5,9.6-3.9,13.5l-19.6-44.5   c-10.6,10.7-25,17.5-41,17.9c-19.2,0.5-36.4-8.5-47.1-22.6c45.8-6.2,59-27.9,60.2-65.7c-15.7,23-38.9,36-71.2,38.7   c-0.3-2.5-0.5-5-0.5-7.6c0-30.7,23.7-56.6,53.7-59.9L103,0L103,0z"/>
	<path class="st2" d="M652.7,71.3c-7.5-6.6-13.3-11.1-23.8-11.1c-6.5,0-16.7,3.9-13.9,12.6c1.8,5.6,11.9,11.9,17,15.4   c19.6,13.2,32.3,37,4.9,55.5c-12.6,8.5-39.9,8.7-56.2,1.1v-24.6c7.5,6.2,26.1,11.9,35.4,5c14.4-10.7-18.8-24.1-25.6-33.1   c-20.7-27.5,2-52.9,33.7-53c11.7,0,18.7,0.3,28.5,5.6V71.3L652.7,71.3z M333.5,40h-79.8c3.3,5.6,4.8,11.5,4.4,17.7v91.5h75.4v-23.1   h-44.7V104h30.3l9.5-20.3h-39.9V61.1h44.7V40L333.5,40z M514,122.2c-13.9,0-25.2-12.5-25.2-27.8c0-15.3,11.3-27.8,25.2-27.8   c13.9,0,25.2,12.5,25.2,27.8C539.2,109.7,527.9,122.2,514,122.2L514,122.2z M514,151.7c-30.8,0-55.9-25.8-55.9-57.3   c0-31.6,25.1-57.3,55.9-57.3c30.8,0,55.9,25.8,55.9,57.3C569.9,126,544.8,151.7,514,151.7L514,151.7z M821.3,40h-35.1   c3.3,5.6,4.8,11.5,4.4,17.7v91.5h30.7V40L821.3,40z M703.8,40h-35c3.3,5.6,4.8,11.5,4.4,17.7v91.5h30.7V98.9l34.8,49.9H775   l-39.3-59.6L777.5,40h-34.3l-37.5,43.9l-2,0V40L703.8,40z M353.3,40c3.3,5.6,4.8,11.5,4.4,17.7v91.5h30.7v-41.8h6.6l32.1,41.8H461   l-36.5-47.5c11.9-5,20.3-16.4,20.3-29.4c0-17.8-15.4-32.3-34.3-32.3C391.4,40,372.5,40,353.3,40L353.3,40z M388.4,91.5V60.9l6.8,0   c8.9,0,16.3,6.9,16.3,15.3c0,8.4-7.3,15.3-16.3,15.3H388.4L388.4,91.5z"/>
</g>
</svg>
