<svg xmlns:svg="http://www.w3.org/2000/svg" xmlns="http://www.w3.org/2000/svg" version="1.1" id="svg5395" viewBox="0 0 496 130">
  <defs id="defs5397"/>
  <g transform="translate(-101.96287,-466.98718)" id="layer1">
    <path d="m 248.93378,471.98718 c -20.39524,0 -33.88087,12.51397 -33.88087,30.46504 0,9.39648 3.78187,16.96794 11.6779,23.22773 6.3209,4.9766 15.83372,8.43312 28.0953,12.72401 2.72253,0.97087 5.59497,2.01609 8.5823,3.0956 13.66018,4.93586 19.89727,12.67472 19.89727,24.35922 0,12.03075 -9.04165,21.4344 -22.86479,21.4344 -19.73667,0 -34.86192,-15.32326 -40.45637,-44.46998 l -4.12035,0 0,47.26671 4.12035,0 1.81467,-6.10583 c 0.98447,-3.27925 3.2818,-5.59344 4.93162,-5.59344 2.3016,0 5.24521,3.78365 11.16553,7.5789 6.91157,4.44025 14.65418,6.76764 22.22433,6.76764 21.05381,0 36.33601,-14.83966 36.33601,-33.94492 0,-7.97071 -2.37907,-14.65613 -7.30136,-20.34561 -1.2832,-1.47329 -2.7403,-2.87504 -4.37655,-4.20575 -8.88048,-7.41399 -20.39961,-10.38163 -32.89883,-14.49598 -16.77651,-5.61481 -25.14913,-10.21145 -25.14913,-23.05694 0,-12.1869 8.38797,-19.76917 21.05012,-19.76917 16.61358,0 31.24725,13.16332 36.99784,37.06187 l 4.12036,0 0,-39.36757 -4.12036,0 -2.79673,4.46195 c -1.81276,3.1299 -3.28639,4.76082 -4.44057,4.76082 -3.12311,0 -11.99413,-11.8487 -28.60769,-11.8487 z m 262.10184,2.56188 0,63.8549 0,51.68595 82.00151,0 0,-23.6974 -50.87463,0 0,-23.03559 46.15651,0 0,-4.95296 0,-18.74444 -46.15651,0 0,-21.41305 49.08125,0 0,-23.69741 -80.20812,0 z m -404.07275,0.064 0,4.46195 6.42606,0 c 8.38485,0 9.54299,2.47824 9.54299,11.52846 l 0,47.80044 0,35.20451 c 0,9.0638 -1.32108,11.54981 -9.54299,11.54981 l -6.40471,0 0,4.93163 92.93224,0 0.66181,-38.38553 -4.12035,0 c -2.96016,25.36505 -13.3311,33.4539 -37.01918,33.4539 l -2.1349,0 c -15.96179,0 -19.23632,-0.35366 -19.23547,-14.34653 l 0,-32.40779 0,-6.95979 11.01609,0 c 9.66806,0 15.49618,1.90171 18.68039,6.95979 2.28801,3.65267 3.20235,9.01117 3.20235,16.43874 l 4.59004,0 0,-16.43874 0,-34.94834 -4.59004,0 c 0,17.61839 -5.26916,23.05694 -21.88274,23.05694 l -11.01609,0 0,-31.14821 c 0,-16.29447 2.4506,-16.28929 21.86139,-16.28929 23.6813,0 33.73314,6.56656 37.01919,30.61447 l 4.2698,0 -1.15285,-35.07642 -93.10303,0 z m 238.72463,0 -23.03559,63.79085 -9.39357,25.98174 c -5.2278,14.24407 -11.91731,20.67654 -22.6513,20.75123 l 0,4.95298 39.11139,0 0,-4.93163 -0.66181,0 c -8.71754,0 -13.151,-3.13159 -13.151,-8.90254 0,-3.29283 0.65941,-6.75152 1.64388,-9.37221 l 4.76083,-12.70266 44.2565,0 7.55754,21.73329 c 0.65858,1.96892 1.00341,3.47642 1.00341,4.29115 0,4.60997 -3.29305,4.95297 -11.67791,4.95297 l -3.45854,0 0,4.93163 37.33942,0 10.8453,0 31.0842,0 c 14.64462,0 26.49325,-1.15922 38.00125,-9.7138 12.29549,-9.10454 20.17951,-24.04825 21.75462,-41.97215 0.19675,-2.21334 0.29888,-4.47381 0.29888,-6.78899 0,-24.21086 -11.35013,-43.32237 -28.629,-51.55786 -9.70875,-4.60998 -20.06363,-5.444 -32.23705,-5.444 l -41.1182,0 0,4.46195 6.40471,0 c 8.38486,0 9.543,2.47824 9.543,11.52846 l 0,47.80044 0,35.20451 c 0,9.05701 -1.13081,11.4402 -9.09468,11.52846 -8.88049,-0.0883 -11.02821,-3.23872 -13.9409,-11.6779 l -12.53187,-35.05507 -22.82209,-63.79085 -9.20142,0 z m 96.19862,4.93162 c 28.62387,0 39.32487,15.00118 39.32487,53.71412 0,1.76523 -0.0312,3.47492 -0.085,5.14511 -0.97775,32.85371 -11.86811,46.75432 -40.20025,46.75432 -10.53021,0 -12.33967,-1.8213 -12.33967,-14.66676 l 0,-32.08756 0,-47.651 c 0,-10.04825 2.11834,-11.20823 13.30042,-11.20823 z m -97.20202,12.04084 16.18254,46.81839 3.3945,9.84189 -39.79456,0 3.50124,-9.84189 16.71628,-46.81839 z" id="path26" style="fill:#009de0;fill-opacity:1;fill-rule:nonzero;stroke:none"/>
  </g>
</svg>
