<?xml version="1.0" encoding="UTF-8"?>
<svg width="140px" height="67px" viewBox="0 0 140 67" version="1.1" xmlns="http://www.w3.org/2000/svg" xmlns:xlink="http://www.w3.org/1999/xlink">
    <!-- Generator: Sketch 43.1 (39012) - http://www.bohemiancoding.com/sketch -->
    <title>Artboard</title>
    <desc>Created with Sketch.</desc>
    <defs></defs>
    <g id="Page-1" stroke="none" stroke-width="1" fill="none" fill-rule="evenodd">
        <g id="Artboard" fill-rule="nonzero">
            <g id="hsjd-logo" transform="translate(17.000000, 9.000000)">
                <path d="M6.561,0.142 C6.582,0.059 6.714,0.039 6.778,0.099 C6.858,0.173 6.902,0.275 6.946,0.375 C6.99,0.471 7.019,0.574 7.075,0.662 C7.096,0.696 7.142,0.724 7.18,0.729 C7.285,0.748 7.398,0.723 7.502,0.769 C7.63,0.825 7.752,0.708 7.798,0.598 C7.841,0.493 7.95,0.386 8.077,0.415 C8.218,0.448 8.324,0.568 8.348,0.707 C8.361,0.782 8.377,0.858 8.388,0.934 C8.398,1.009 8.402,1.085 8.409,1.161 C8.422,1.298 8.586,1.386 8.726,1.376 C8.838,1.369 8.968,1.27 8.946,1.143 C8.915,0.966 8.942,0.788 8.961,0.613 C8.969,0.541 9.055,0.478 9.102,0.409 C9.158,0.449 9.254,0.475 9.272,0.527 C9.331,0.715 9.375,0.904 9.385,1.096 C9.393,1.24 9.492,1.364 9.619,1.423 C9.721,1.471 9.789,1.562 9.841,1.663 C9.943,1.724 9.97,1.716 9.994,1.716 C9.992,1.507 10.026,1.289 10.121,1.099 C10.141,1.062 10.184,1.031 10.224,1.017 C10.285,0.994 10.367,1.028 10.399,1.091 C10.5,1.291 10.466,1.52 10.516,1.729 L10.662,2.312 C10.69,2.43 10.805,2.528 10.924,2.532 C11.11,2.636 11.166,2.799 11.317,2.815 C11.389,2.822 11.476,2.811 11.531,2.846 C11.647,2.92 11.697,3.048 11.712,3.181 C11.727,3.314 11.741,3.468 11.858,3.558 C11.979,3.653 12.158,3.672 12.307,3.631 C12.438,3.593 12.577,3.609 12.712,3.592 C13.133,3.367 13.609,3.331 14.073,3.265 C14.146,3.256 14.249,3.348 14.219,3.434 C14.2,3.487 14.141,3.561 14.102,3.561 C13.769,3.566 13.434,3.56 13.119,3.683 C13.132,3.72 13.132,3.78 13.158,3.795 C13.286,3.87 13.437,3.848 13.578,3.841 C14.122,3.814 14.66,3.714 15.195,3.619 C15.398,3.583 15.594,3.615 15.79,3.675 L16.447,3.596 C16.522,3.586 16.606,3.65 16.686,3.679 C16.692,3.745 16.704,3.811 16.706,3.877 C16.707,3.937 16.698,3.997 16.695,4.056 C16.687,4.172 16.812,4.225 16.911,4.232 C17.101,4.246 17.278,4.155 17.463,4.151 L17.656,4.148 C17.758,4.147 17.862,4.236 17.844,4.348 C17.829,4.439 17.87,4.543 17.844,4.628 C17.823,4.694 17.758,4.777 17.699,4.794 C17.534,4.837 17.352,4.829 17.214,4.942 C17.379,5.063 17.56,5.061 17.734,5.073 C17.823,5.079 17.909,5.127 17.997,5.155 C17.943,5.325 17.802,5.341 17.684,5.348 C17.63,5.352 17.573,5.371 17.527,5.399 C17.441,5.448 17.45,5.587 17.515,5.648 C17.604,5.731 17.733,5.721 17.836,5.704 L18.297,5.625 C18.429,5.603 18.553,5.708 18.634,5.819 C18.709,5.923 18.837,5.943 18.96,5.962 C19.053,5.975 19.117,6.048 19.152,6.132 C19.224,6.314 19.155,6.521 19.037,6.661 C18.884,6.736 18.706,6.692 18.545,6.733 C18.256,6.805 17.97,6.928 17.722,7.094 C17.687,7.117 17.66,7.176 17.657,7.219 C17.653,7.364 17.762,7.499 17.909,7.497 C18.217,7.492 18.506,7.388 18.811,7.339 L19.239,7.266 C19.313,7.254 19.404,7.295 19.477,7.328 C19.534,7.426 19.535,7.461 19.522,7.48 C19.441,7.609 19.285,7.644 19.143,7.652 C18.988,7.66 18.836,7.693 18.697,7.761 C18.514,7.852 18.306,7.854 18.112,7.904 C18.077,7.914 18.025,7.994 18.032,8.03 L18.1,8.408 C18.085,8.574 17.951,8.709 17.785,8.736 C17.624,8.762 17.478,8.837 17.33,8.906 C17.113,9.009 16.862,8.976 16.633,9.031 C16.543,9.053 16.439,9.055 16.364,9.103 C16.175,9.224 16.027,9.422 15.794,9.451 C15.409,9.496 15.029,9.582 14.647,9.642 C15.226,9.773 15.802,9.687 16.378,9.685 C16.741,9.584 17.117,9.512 17.49,9.615 C17.75,9.584 18.005,9.506 18.27,9.529 C18.305,9.533 18.346,9.56 18.372,9.587 C18.359,9.832 18.19,9.867 18.055,9.873 C17.81,9.883 17.582,9.973 17.349,10.031 C16.671,10.201 15.966,10.156 15.276,10.234 L14.338,10.341 C14.186,10.358 14.006,10.469 14.049,10.64 L14.586,12.763 L14.807,14.304 C14.823,14.408 14.815,14.552 14.718,14.615 C14.681,14.637 14.62,14.636 14.574,14.627 C14.487,14.412 14.524,14.238 14.499,14.072 C14.479,13.949 14.41,13.863 14.327,13.779 C14.186,13.64 14.104,13.456 13.965,13.314 C13.938,13.286 13.934,13.236 13.918,13.196 L13.816,13.195 C13.725,13.375 13.733,13.602 13.792,13.896 C13.836,14.12 13.901,14.337 13.9,14.568 C13.9,14.643 13.874,14.725 13.827,14.798 C13.763,14.78 13.699,14.755 13.633,14.742 C13.447,15.061 13.495,15.434 13.62,15.909 C13.689,16.173 13.773,16.465 13.687,16.725 C13.628,16.848 13.58,16.857 13.543,16.875 C13.511,16.833 13.457,16.797 13.448,16.752 C13.417,16.599 13.421,16.443 13.416,16.291 C13.41,16.032 13.192,15.788 12.954,15.713 C12.637,15.962 12.521,16.301 12.6,16.632 C12.61,16.676 12.602,16.731 12.587,16.774 C12.421,16.909 12.309,16.832 12.304,16.727 C12.284,16.28 12.223,15.831 12.143,15.391 C12.118,15.25 12.024,15.135 11.914,15.045 C11.889,15.024 11.836,15.034 11.798,15.028 C11.772,15.08 11.715,15.136 11.722,15.183 C11.741,15.317 11.655,15.425 11.577,15.519 C11.534,15.572 11.46,15.622 11.459,15.674 C11.442,16.106 11.526,16.542 11.435,16.973 C11.413,17.079 11.304,17.171 11.197,17.151 C11.073,17.129 11.018,17.022 11.016,16.902 C11.013,16.718 10.986,16.529 10.884,16.369 C10.814,16.256 10.809,16.115 10.783,15.986 C10.699,15.832 10.55,15.72 10.452,15.576 C10.417,15.523 10.343,15.498 10.289,15.46 C10.177,15.381 10.04,15.5 9.983,15.596 C9.941,15.663 9.899,15.744 9.83,15.773 C9.704,15.823 9.556,15.832 9.45,15.932 C9.419,15.485 9.297,15.104 9.111,14.752 C9.007,14.555 9.019,14.324 9.01,14.108 C9.005,13.982 8.963,13.863 8.92,13.747 C8.907,13.711 8.885,13.672 8.857,13.646 C8.824,13.618 8.78,13.589 8.741,13.586 C8.577,13.743 8.551,13.876 8.479,13.987 C8.293,13.741 8.328,13.465 8.255,13.214 C8.069,12.579 8.024,11.902 7.761,11.293 C7.684,11.108 7.617,11.039 7.569,10.961 C7.491,10.839 7.33,10.836 7.196,10.855 C6.474,10.953 5.739,10.869 5.015,10.9 C4.839,10.908 4.661,10.886 4.488,10.925 C4.432,10.938 4.363,10.915 4.306,10.897 C4.238,10.875 4.15,10.853 4.114,10.803 C4.08,10.759 4.078,10.642 4.105,10.622 C4.26,10.511 4.472,10.479 4.738,10.507 C4.979,10.53 5.175,10.53 5.321,10.432 C5.188,10.267 5.022,10.265 4.827,10.281 C4.608,10.301 4.438,10.32 4.302,10.25 C4.101,10.146 3.9,10.039 3.687,9.957 C3.356,9.926 3.021,9.942 2.689,9.967 C2.608,9.975 2.516,9.946 2.449,9.905 C2.393,9.87 2.39,9.762 2.439,9.709 C2.497,9.644 2.602,9.575 2.598,9.515 C2.585,9.326 2.524,9.141 2.59,8.943 C2.549,8.923 2.51,8.894 2.467,8.884 C2.194,8.817 1.913,8.863 1.638,8.849 C1.587,8.847 1.537,8.804 1.491,8.775 C1.459,8.562 1.622,8.505 1.763,8.501 C1.82,8.499 1.879,8.465 1.926,8.434 C1.989,8.393 2.013,8.313 2.058,8.253 C2.122,8.166 2.239,8.132 2.345,8.143 C2.451,8.155 2.574,8.135 2.658,8.076 C2.721,8.029 2.755,7.943 2.803,7.878 C2.778,7.841 2.763,7.787 2.728,7.767 C2.609,7.691 2.466,7.699 2.333,7.709 L1.773,7.757 C1.697,7.763 1.612,7.725 1.545,7.685 C1.465,7.637 1.457,7.501 1.528,7.441 C1.617,7.363 1.74,7.373 1.847,7.377 C2.05,7.385 2.252,7.416 2.455,7.397 C2.504,7.393 2.564,7.376 2.6,7.344 C2.628,7.319 2.631,7.264 2.645,7.224 C2.417,7.106 2.303,6.897 2.216,6.668 C2.203,6.524 2.181,6.387 2.105,6.261 C2.082,6.118 2.191,5.943 2.387,5.916 C2.604,5.889 2.829,5.961 3.047,5.925 C3.164,5.895 3.204,5.86 3.206,5.832 C3.213,5.65 3.158,5.469 3.213,5.289 C2.974,5.111 2.757,5.148 2.554,5.109 C2.494,5.099 2.438,5.07 2.38,5.048 C2.378,4.989 2.349,4.918 2.372,4.871 C2.491,4.632 2.76,4.504 3.107,4.568 C3.214,4.589 3.335,4.614 3.44,4.569 C3.482,4.55 3.535,4.544 3.567,4.515 C3.484,4.345 3.327,4.375 3.186,4.368 C3.021,4.36 2.855,4.421 2.692,4.392 C2.633,4.381 2.567,4.385 2.515,4.361 C2.456,4.335 2.401,4.292 2.359,4.245 C2.407,4.071 2.532,4.047 2.649,4.05 L5.263,4.122 C5.329,4.124 5.396,4.111 5.462,4.107 C5.62,4.096 5.732,3.929 5.737,3.778 C5.74,3.689 5.733,3.588 5.786,3.499 C5.931,3.7 5.944,3.854 6.036,3.954 C6.135,4.06 6.311,4.065 6.427,3.993 C6.512,3.94 6.565,3.828 6.55,3.727 C6.497,3.348 6.343,2.984 6.336,2.596 C6.332,2.368 6.319,2.17 6.392,2.004 C6.416,1.949 6.491,1.917 6.54,1.874 C6.632,1.792 6.647,1.66 6.616,1.54 C6.534,1.221 6.502,0.898 6.552,0.572 C6.565,0.485 6.528,0.389 6.529,0.299 C6.529,0.248 6.548,0.195 6.561,0.142 L6.561,0.142 Z M13.296,14.11 C13.239,14.247 13.308,14.441 13.483,14.553 C13.562,14.605 13.622,14.493 13.646,14.435 C13.701,14.298 13.635,14.13 13.421,14.057 C13.375,14.041 13.316,14.062 13.296,14.11 L13.296,14.11 Z M18.688,6.227 C18.688,6.288 18.666,6.344 18.736,6.34 C18.834,6.254 18.81,6.212 18.775,6.202 C18.771,6.221 18.671,6.16 18.688,6.227 L18.688,6.227 Z M6.767,0.826 C6.78,0.888 6.728,0.972 6.81,0.955 C6.862,0.944 6.89,0.886 6.873,0.843 C6.863,0.821 6.914,0.734 6.832,0.755 L6.767,0.826 Z M17.677,8.318 C17.722,8.445 17.776,8.423 17.799,8.39 C17.829,8.347 17.799,8.262 17.677,8.318 L17.677,8.318 Z M6.807,1.103 C6.841,1.199 6.883,1.3 6.863,1.4 C6.927,1.296 6.924,1.151 6.903,1.004 C6.857,1 6.789,1.052 6.807,1.103 L6.807,1.103 Z M2.785,4.942 C2.824,4.935 2.863,4.915 2.896,4.923 C2.996,4.949 3.102,4.933 3.2,4.945 C3.214,4.946 3.325,4.882 3.268,4.884 C3.079,4.892 2.882,4.817 2.693,4.857 L2.785,4.942 Z M7.986,0.841 C7.975,0.873 7.99,0.916 7.979,0.948 C7.962,0.996 7.94,1.051 8.05,1.13 C8.122,1.039 8.096,0.925 8.13,0.832 C8.146,0.786 8.081,0.747 7.986,0.841 L7.986,0.841 Z" id="Shape" fill="#929497"></path>
                <path d="M17.436,35.193 C17.389,35.25 17.393,35.339 17.423,35.4 C17.477,35.509 17.641,35.511 17.716,35.422 C17.763,35.365 17.782,35.274 17.738,35.21 C17.675,35.121 17.519,35.099 17.436,35.193 L17.436,35.193 Z M7.041,14.13 C7.05,14.098 7.068,14.067 7.041,13.938 C7.032,13.969 7.014,14.002 7.041,14.13 L7.041,14.13 Z M18.672,10.489 C18.702,10.453 18.689,10.398 18.675,10.357 C18.65,10.277 18.496,10.279 18.453,10.34 L18.434,10.374 C18.399,10.44 18.444,10.497 18.497,10.519 C18.554,10.543 18.633,10.539 18.672,10.489 L18.672,10.489 Z M20.129,11.021 C20.163,11.005 20.202,10.913 20.187,10.872 C20.138,10.738 19.996,10.66 19.766,10.724 L19.739,10.813 C19.715,10.87 19.702,10.946 19.659,10.983 C19.623,11.012 19.551,11.022 19.502,11.013 C19.347,10.983 19.194,10.992 19.039,10.996 C18.939,10.998 18.889,10.871 18.702,10.844 C18.576,10.895 18.452,11.014 18.445,11.159 C18.443,11.197 18.514,11.237 18.548,11.276 C18.606,11.244 18.661,11.192 18.724,11.175 C18.786,11.161 18.861,11.167 18.922,11.187 C19.003,11.21 19.073,11.301 19.151,11.302 C19.35,11.306 19.536,11.401 19.734,11.411 C19.769,11.414 19.83,11.387 19.842,11.356 C19.899,11.219 19.987,11.086 20.129,11.021 L20.129,11.021 Z M19.314,11.611 C19.264,11.616 19.243,11.672 19.243,11.709 L19.247,11.749 C19.36,12.025 19.491,11.918 19.564,11.941 C19.582,11.843 19.509,11.77 19.466,11.695 C19.432,11.634 19.387,11.601 19.314,11.611 L19.314,11.611 Z M21.096,11.194 C21.123,11.15 21.154,11.093 21.15,11.045 C21.139,10.932 21.157,10.809 21.117,10.711 C21.101,10.672 21.025,10.659 20.979,10.633 C20.945,10.682 20.869,10.735 20.874,10.776 C20.893,10.915 20.843,11.065 20.92,11.196 C20.95,11.246 21.06,11.253 21.096,11.194 L21.096,11.194 Z M21.552,11.766 C21.626,11.756 21.628,11.662 21.599,11.616 C21.578,11.581 21.519,11.576 21.495,11.612 C21.478,11.637 21.464,11.664 21.552,11.766 L21.552,11.766 Z M22.169,11.703 C22.298,11.582 22.232,11.344 22.118,11.245 C22.102,11.23 22.029,11.242 22.012,11.266 C21.942,11.372 21.933,11.504 21.947,11.628 L22.029,11.713 C22.067,11.729 22.127,11.74 22.169,11.703 L22.169,11.703 Z M22.73,13.258 C22.662,13.254 22.571,13.283 22.53,13.35 C22.429,13.513 22.424,13.639 22.462,13.746 C22.483,13.805 22.609,13.777 22.67,13.734 C22.792,13.649 22.868,13.484 22.73,13.258 L22.73,13.258 Z M22.955,12.854 C22.936,12.761 22.838,12.723 22.758,12.734 C22.685,12.744 22.639,12.815 22.612,12.873 L22.603,12.913 C22.597,13 22.715,13.117 22.816,13.078 C22.903,13.043 22.976,12.957 22.955,12.854 L22.955,12.854 Z M23.478,13.546 C23.528,13.371 23.577,13.249 23.539,13.141 C23.507,13.051 23.411,13.018 23.327,12.998 C23.23,12.977 23.079,13.046 23.102,13.148 C23.138,13.306 23.227,13.462 23.35,13.571 C23.37,13.588 23.435,13.554 23.478,13.546 L23.478,13.546 Z M16.092,25.178 C16.14,25.157 16.171,25.11 16.197,25.064 C16.216,25.034 16.234,25.005 16.255,24.958 C16.204,24.989 16.163,25.037 16.092,25.178 L16.092,25.178 Z M3.095,30.15 C3.072,30.111 3.038,30.082 3.007,30.048 C2.976,30.021 2.94,29.993 2.885,29.959 C2.91,30.018 2.971,30.047 3.095,30.15 L3.095,30.15 Z M7.43,20.398 C7.44,20.308 7.45,20.222 7.462,20.124 C7.464,20.109 7.465,20.097 7.466,20.081 C7.453,20.195 7.442,20.293 7.43,20.398 L7.43,20.398 Z M7.405,20.618 L7.405,20.631 C7.414,20.559 7.423,20.475 7.431,20.399 C7.422,20.469 7.414,20.551 7.405,20.618 L7.405,20.618 Z M24.622,24.547 L24.622,24.684 L24.649,24.821 C24.521,24.964 24.466,25.019 24.431,25.085 C24.412,25.12 24.412,25.165 24.402,25.204 L24.359,25.377 L24.321,25.56 C24.225,25.64 24.183,25.776 24.075,25.846 C23.993,25.766 23.981,25.713 23.995,25.668 L24.102,25.314 C24.132,25.273 24.138,25.223 24.153,25.177 C24.205,25.093 24.21,24.993 24.239,24.917 C24.275,24.821 24.329,24.731 24.348,24.629 L24.445,24.363 C24.507,24.276 24.544,24.264 24.576,24.246 C24.642,24.334 24.617,24.439 24.622,24.547 L24.622,24.547 Z M23.647,27.443 C23.629,27.5 23.592,27.548 23.582,27.635 L23.463,27.906 L23.582,27.609 C23.592,27.549 23.63,27.5 23.647,27.443 L23.647,27.443 Z M23.49,26.706 C23.474,26.771 23.443,26.834 23.419,26.898 C23.392,26.928 23.385,26.976 23.392,27.089 C23.24,27.179 23.113,27.251 23.021,27.379 C23.02,27.343 23.003,27.302 23.016,27.271 C23.044,27.199 23.103,27.138 23.119,27.062 C23.167,27.004 23.147,26.924 23.176,26.863 C23.193,26.828 23.214,26.797 23.228,26.761 C23.32,26.733 23.378,26.648 23.49,26.706 L23.49,26.706 Z M23.126,28.636 L22.899,28.976 C22.854,29.008 22.815,29.047 22.778,29.088 L22.505,29.086 L22.778,29.083 C22.815,29.037 22.854,28.992 22.899,28.949 L23.126,28.636 Z M22.338,28.895 C22.356,28.975 22.351,29.038 22.325,29.085 C22.32,29.091 22.315,29.098 22.31,29.105 C22.021,29.424 21.828,29.827 21.516,30.122 L20.494,31.108 C20.451,31.117 20.429,31.135 20.383,31.176 C20.353,31.194 20.314,31.207 20.275,31.245 C20.167,31.28 20.051,31.282 19.978,31.404 C19.918,31.508 19.86,31.618 19.702,31.752 C19.672,31.782 19.634,31.805 19.539,31.873 L19.38,31.873 C19.329,31.844 19.345,31.775 19.427,31.656 C19.524,31.58 19.567,31.468 19.666,31.417 C19.766,31.363 19.882,31.329 19.968,31.259 C20.027,31.211 20.051,31.126 20.124,31.028 C20.173,30.96 20.23,30.893 20.329,30.781 C20.455,30.673 20.576,30.557 20.721,30.379 C20.803,30.288 20.898,30.207 20.959,30.099 L21.081,29.96 C21.13,29.907 21.195,29.864 21.232,29.798 L22.048,29.089 L22.191,28.966 C22.23,28.931 22.289,28.918 22.338,28.895 L22.338,28.895 Z M21.326,13.45 C21.271,13.438 21.257,13.383 21.238,13.344 L21.287,13.267 C21.34,13.273 21.381,13.332 21.326,13.45 L21.326,13.45 Z M20.63,13.09 C20.633,13.164 20.541,13.201 20.424,13.166 L20.63,13.09 Z M16.078,25.861 C16.034,25.898 15.974,25.926 15.864,26.013 C15.773,26.081 15.698,26.173 15.589,26.216 C15.697,26.173 15.775,26.079 15.926,25.94 C15.98,25.92 16.035,25.896 16.078,25.861 L16.078,25.861 Z M15.873,25.667 C15.858,25.678 15.854,25.705 15.763,25.75 L15.873,25.667 Z M12.518,27.672 C12.461,27.683 12.403,27.685 12.318,27.774 L12.092,27.731 L12.345,27.692 C12.403,27.685 12.461,27.683 12.518,27.672 L12.518,27.672 Z M7.228,20.519 L7.205,20.409 L7.228,20.514 L7.228,20.519 L7.236,20.559 C7.266,20.726 7.276,20.897 7.312,21.067 C7.335,20.983 7.353,20.898 7.368,20.812 C7.379,20.747 7.396,20.686 7.404,20.619 C7.416,20.458 7.421,20.305 7.426,20.155 L7.465,20.082 L7.466,20.081 C7.467,20.078 7.467,20.075 7.467,20.072 C7.506,20.001 7.566,19.941 7.598,19.864 C7.571,19.927 7.526,19.979 7.465,20.081 C7.463,20.097 7.462,20.11 7.46,20.125 C7.415,20.525 7.397,20.859 7.34,21.185 C7.371,20.982 7.389,20.801 7.402,20.632 C7.394,20.694 7.376,20.753 7.366,20.813 C7.35,20.906 7.34,21 7.314,21.089 C7.312,21.081 7.312,21.074 7.31,21.068 C7.3,21.106 7.297,21.146 7.284,21.185 C7.274,20.977 7.272,20.766 7.228,20.519 L7.228,20.519 Z M7.368,15.332 C7.326,15.372 7.298,15.44 7.213,15.541 L7.26,15.469 C7.298,15.432 7.326,15.371 7.368,15.332 L7.368,15.332 Z M7.083,15.634 C6.993,15.508 6.972,15.295 7.079,15.08 C6.975,15.293 7,15.507 7.083,15.634 L7.083,15.634 Z M6.201,14.14 C6.176,14.147 6.155,14.166 6.132,14.182 C6.107,14.203 6.079,14.235 6.043,14.287 C5.994,14.332 5.933,14.391 5.873,14.395 C5.934,14.39 5.994,14.332 6.087,14.207 C6.1,14.196 6.117,14.19 6.132,14.181 C6.158,14.158 6.18,14.145 6.201,14.14 L6.201,14.14 Z M8.666,33.814 C8.689,33.748 8.719,33.679 8.763,33.623 C8.803,33.617 8.842,33.602 8.881,33.602 C8.924,33.602 8.967,33.618 9.064,33.694 C9.099,33.739 9.107,33.817 9.064,33.856 C9.023,33.893 8.972,33.918 8.927,33.954 L8.9,33.954 L8.754,33.977 C8.681,33.989 8.647,33.873 8.666,33.814 L8.666,33.814 Z M11.322,34.225 C11.437,34.233 11.559,34.256 11.689,34.281 L12.017,34.308 L11.963,34.308 L11.633,34.281 C11.534,34.257 11.427,34.233 11.322,34.225 L11.322,34.225 Z M13.57,33.549 C13.596,33.51 13.615,33.444 13.649,33.436 C13.851,33.391 14.054,33.37 14.259,33.379 C14.269,33.443 14.224,33.506 14.172,33.535 C14.037,33.608 13.869,33.635 13.715,33.613 C13.665,33.606 13.619,33.57 13.57,33.549 L13.57,33.549 Z M14.382,33.271 C14.462,33.193 14.575,33.217 14.669,33.212 C14.677,33.257 14.662,33.306 14.617,33.325 C14.55,33.358 14.474,33.341 14.408,33.355 C14.332,33.373 14.378,33.273 14.382,33.271 L14.382,33.271 Z M21.407,30.778 C21.682,30.52 21.926,30.224 22.16,29.906 C22.167,29.884 22.186,29.87 22.198,29.851 C22.223,29.809 22.252,29.774 22.278,29.739 C22.251,29.776 22.225,29.814 22.198,29.851 C22.183,29.874 22.169,29.898 22.16,29.933 C21.926,30.229 21.684,30.52 21.407,30.778 L21.407,30.778 Z M18.169,20.117 L18.073,20.09 C18.015,19.972 18.036,19.84 18.032,19.717 C18.037,19.84 18.019,19.974 18.169,20.117 L18.169,20.117 Z M8.177,17.644 C8.217,17.6 8.223,17.526 8.243,17.438 L8.281,17.301 L8.243,17.465 C8.224,17.525 8.217,17.6 8.177,17.644 L8.177,17.644 Z M8.296,17.248 L8.312,17.191 C8.345,17.113 8.399,17.011 8.495,17.017 C8.403,17.014 8.347,17.111 8.296,17.248 L8.296,17.248 Z M1.613,27.603 C1.549,27.448 1.422,27.334 1.272,27.181 C1.264,27.133 1.271,27.084 1.271,27.035 C1.285,27.005 1.291,26.97 1.396,26.879 C1.425,26.925 1.452,26.971 1.486,27.012 C1.509,27.042 1.54,27.067 1.571,27.116 C1.568,27.135 1.555,27.156 1.613,27.267 C1.681,27.387 1.719,27.508 1.613,27.603 L1.613,27.603 Z M1.438,24.002 C1.438,24.525 1.534,25.057 1.423,25.666 C1.403,25.697 1.361,25.717 1.313,25.723 L1.2,25.561 C1.119,25.444 1.143,25.297 1.138,25.161 C1.103,24.231 1.172,23.302 1.274,22.378 C1.321,21.944 1.328,21.508 1.47,21.075 C1.533,22.05 1.438,23.027 1.438,24.002 L1.438,24.002 Z M1.36,18.893 L1.326,19.078 C1.314,19.163 1.304,19.249 1.273,19.343 C1.271,19.352 1.272,19.363 1.269,19.369 L1.256,19.4 L1.225,19.48 C1.213,19.514 1.209,19.541 1.2,19.573 C1.178,19.659 1.157,19.745 1.136,19.844 L1.108,20.035 L1.081,20.172 L1.108,19.981 L1.136,19.817 C1.155,19.742 1.177,19.657 1.2,19.573 C1.207,19.55 1.211,19.52 1.219,19.497 L1.225,19.48 C1.226,19.477 1.226,19.475 1.228,19.471 L1.256,19.4 L1.262,19.387 C1.268,19.371 1.268,19.358 1.273,19.342 C1.303,19.256 1.314,19.162 1.326,19.051 L1.36,18.893 Z M1.053,20.418 L1.08,20.281 L1.053,20.5 L1.025,20.718 L0.998,20.938 L0.971,21.156 L0.95,21.376 L0.916,21.622 L0.889,21.95 L0.862,22.305 L0.889,21.895 L0.916,21.594 L0.95,21.375 L0.971,21.129 L0.998,20.855 L1.025,20.637 L1.053,20.418 Z M25.17,22.732 C25.169,22.378 25.128,22.023 25.059,21.647 L25.033,21.484 L25.005,21.293 L24.985,21.136 L24.951,20.965 L24.923,20.801 L24.897,20.664 L24.842,20.445 L24.804,20.288 C24.794,20.247 24.787,20.206 24.76,20.172 C24.753,20.131 24.74,20.088 24.706,20.063 L24.681,19.884 C24.608,19.692 24.595,19.497 24.524,19.318 C24.441,19.106 24.431,18.937 24.322,18.833 C24.299,18.706 24.227,18.598 24.176,18.482 L24.049,18.204 C24.049,18.164 24.032,18.129 23.967,18.04 C23.976,17.909 23.927,17.786 23.876,17.671 L23.721,17.329 L23.69,17.22 C23.678,17.177 23.659,17.127 23.612,17.111 C23.582,16.994 23.507,16.894 23.466,16.783 C23.42,16.657 23.35,16.543 23.25,16.38 C23.206,16.318 23.17,16.252 23.072,16.18 C23.058,16.155 23.042,16.129 22.951,16.016 C22.944,15.985 22.862,15.952 22.874,15.854 C22.856,15.807 22.809,15.782 22.709,15.69 C22.693,15.653 22.672,15.616 22.649,15.58 L22.477,15.329 C22.425,15.253 22.389,15.171 22.328,15.089 L22.218,14.952 C22.21,14.902 22.186,14.86 22.163,14.778 C22.163,14.718 22.171,14.667 22.13,14.622 C22.092,14.58 22.068,14.526 22.027,14.46 C21.981,14.311 21.978,14.122 22.131,14.029 C22.214,13.979 22.237,13.854 22.176,13.769 C22.074,13.627 22.059,13.453 22.171,13.304 C22.238,13.211 22.277,13.088 22.211,12.989 C22.116,12.845 21.937,12.812 21.814,12.708 C21.756,12.659 21.747,12.565 21.676,12.53 C21.599,12.492 21.51,12.474 21.426,12.449 C21.281,12.408 21.12,12.391 20.992,12.485 C20.949,12.517 20.882,12.518 20.827,12.534 L20.733,12.411 C20.754,12.374 20.764,12.32 20.796,12.302 C20.858,12.265 20.942,12.264 21.015,12.243 C21.015,12.134 20.999,12.022 20.971,11.914 C20.935,11.78 20.874,11.643 20.732,11.593 C20.691,11.579 20.643,11.589 20.598,11.589 C20.481,11.59 20.343,11.585 20.265,11.685 C20.203,11.763 20.164,11.891 20.257,11.964 C20.302,11.999 20.359,12.026 20.39,12.069 C20.422,12.114 20.455,12.178 20.45,12.23 C20.444,12.284 20.398,12.342 20.356,12.383 C20.212,12.52 20.178,12.712 20.198,12.902 C20.165,12.901 20.128,12.913 20.019,12.823 C19.977,12.68 19.914,12.544 19.823,12.427 C19.764,12.351 19.632,12.363 19.531,12.349 C19.388,12.328 19.233,12.378 19.143,12.503 C19.117,12.541 19.126,12.603 19.117,12.653 C19.216,12.725 19.284,12.807 19.349,12.901 L19.376,13.12 C19.349,13.147 19.328,13.201 19.273,13.188 C19.211,13.172 19.178,13.114 19.13,13.083 L19.021,13.011 C19.01,12.982 18.999,12.954 18.938,12.874 C18.921,12.839 18.91,12.799 18.796,12.694 C18.747,12.671 18.675,12.678 18.637,12.645 C18.579,12.596 18.54,12.519 18.507,12.448 C18.477,12.386 18.474,12.307 18.439,12.248 C18.403,12.183 18.306,12.183 18.194,12.265 C18.181,12.354 18.187,12.451 18.217,12.533 C18.255,12.64 18.331,12.747 18.304,12.873 C18.286,12.958 18.2,13.075 18.102,13.029 C18.025,12.994 17.957,12.939 17.889,12.888 C17.853,12.861 17.823,12.825 17.788,12.765 C17.682,12.626 17.578,12.49 17.434,12.388 C17.358,12.334 17.28,12.3 17.188,12.307 C17.036,12.318 17.026,12.501 17.051,12.614 C17.076,12.733 17.216,12.816 17.139,13.039 C17.017,13.217 17.052,13.477 17.241,13.574 C17.429,13.783 17.586,14.016 17.815,14.215 C17.837,14.27 17.866,14.324 17.873,14.383 C17.88,14.449 17.824,14.526 17.761,14.541 C17.708,14.553 17.652,14.543 17.489,14.475 C17.426,14.425 17.376,14.362 17.317,14.307 L17.179,14.211 C17.122,14.18 17.049,14.172 16.991,14.199 C16.944,14.22 16.9,14.255 16.869,14.296 C16.846,14.324 16.839,14.368 16.831,14.406 C16.831,14.464 16.824,14.523 16.858,14.625 L16.884,14.762 C16.891,14.83 16.891,14.899 16.901,14.966 C16.907,15.009 16.923,15.05 16.94,15.09 C16.95,15.151 16.988,15.198 17.005,15.255 C17.018,15.297 17.031,15.345 17.076,15.363 C17.082,15.406 17.113,15.435 17.131,15.472 C17.14,15.501 17.163,15.523 17.268,15.609 C17.332,15.692 17.37,15.793 17.419,15.882 C17.46,15.954 17.508,16.025 17.542,16.101 C17.546,16.188 17.521,16.277 17.468,16.345 C17.436,16.388 17.422,16.461 17.355,16.468 L17.229,16.483 L17.107,16.414 C17.067,16.386 17.043,16.338 16.996,16.32 C16.995,16.25 16.927,16.215 16.892,16.165 C16.858,16.115 16.804,16.078 16.777,16.019 C16.747,15.972 16.707,15.934 16.666,15.896 C16.613,15.847 16.569,15.783 16.503,15.746 C16.521,15.785 16.541,15.825 16.569,15.857 C16.541,15.825 16.521,15.785 16.421,15.718 C16.381,15.708 16.339,15.69 16.299,15.69 C16.262,15.691 16.219,15.718 16.175,15.8 C16.21,15.784 16.242,15.761 16.278,15.747 C16.242,15.761 16.21,15.784 16.175,15.828 C16.165,15.851 16.153,15.876 16.209,15.969 C16.21,15.984 16.209,15.999 16.253,16.08 C16.313,16.152 16.369,16.231 16.437,16.296 C16.48,16.339 16.534,16.368 16.585,16.401 C16.598,16.447 16.608,16.494 16.626,16.538 C16.646,16.585 16.672,16.63 16.695,16.675 C16.714,16.726 16.749,16.766 16.777,16.812 C16.8,16.85 16.81,16.904 16.859,16.948 L16.892,17.168 C16.854,17.154 16.794,17.154 16.778,17.129 C16.692,16.998 16.572,16.9 16.43,16.851 L16.287,16.798 C16.253,16.859 16.202,16.916 16.183,16.981 C16.173,17.011 16.196,17.051 16.203,17.086 C16.207,17.066 16.212,17.047 16.215,17.026 C16.216,16.992 16.221,16.968 16.23,16.947 C16.22,16.971 16.219,17 16.215,17.026 C16.213,17.06 16.215,17.104 16.217,17.168 L16.594,17.551 L16.913,17.906 C16.947,17.991 16.988,18.072 17.027,18.154 C17.122,18.351 17.272,18.517 17.404,18.691 C17.458,18.761 17.477,18.861 17.516,18.946 C17.537,18.98 17.555,19.018 17.656,19.163 L17.691,19.318 C17.701,19.36 17.708,19.402 17.735,19.437 C17.743,19.486 17.744,19.537 17.827,19.679 C17.873,19.747 17.887,19.829 17.926,19.929 L17.953,20.093 L17.998,20.234 C18.024,20.316 18.09,20.375 18.132,20.449 C18.177,20.528 18.185,20.629 18.254,20.695 C18.261,20.734 18.274,20.771 18.288,20.807 C18.326,20.906 18.372,21 18.402,21.101 C18.453,21.281 18.453,21.471 18.501,21.651 L18.556,21.953 L18.583,22.144 L18.583,22.308 L18.556,22.417 C18.502,22.47 18.484,22.546 18.447,22.636 C18.404,22.679 18.358,22.72 18.319,22.768 L18.034,23.113 C17.982,23.175 17.941,23.248 17.996,23.24 C17.973,23.273 17.935,23.3 17.9,23.346 L17.412,23.925 C17.262,24.109 17.075,24.259 16.906,24.423 L16.785,24.505 C16.702,24.577 16.624,24.66 16.533,24.72 C16.472,24.761 16.433,24.821 16.397,24.878 C16.335,24.878 16.31,24.94 16.224,25.043 C16.22,25.053 16.207,25.058 16.201,25.066 C16.168,25.124 16.135,25.165 16.096,25.18 C16.069,25.192 16.043,25.202 15.93,25.305 C15.948,25.281 15.965,25.25 15.986,25.205 C15.942,25.222 15.912,25.258 15.795,25.396 L15.631,25.466 C15.569,25.517 15.512,25.575 15.466,25.642 L15.275,25.724 C15.209,25.746 15.162,25.798 15.03,25.915 L14.926,25.933 C14.878,25.942 14.85,25.978 14.797,26.048 C14.761,26.083 14.716,26.108 14.673,26.134 C14.716,26.108 14.76,26.083 14.811,25.997 C14.755,26.026 14.694,26.048 14.646,26.089 C14.614,26.117 14.562,26.12 14.537,26.161 C14.492,26.167 14.444,26.168 14.4,26.182 C14.353,26.195 14.309,26.222 14.25,26.293 C14.223,26.335 14.165,26.339 14.127,26.369 C14.164,26.339 14.222,26.335 14.264,26.243 C14.198,26.251 14.152,26.302 14.1,26.337 C14.064,26.36 14.016,26.366 13.99,26.407 C13.963,26.411 13.933,26.411 13.811,26.512 C13.776,26.547 13.729,26.57 13.689,26.597 C13.73,26.57 13.776,26.547 13.825,26.461 C13.759,26.494 13.688,26.523 13.633,26.579 C13.603,26.61 13.551,26.612 13.525,26.652 L13.343,26.691 C13.294,26.7 13.239,26.697 13.197,26.734 C13.134,26.742 13.086,26.783 13.032,26.814 C12.979,26.843 12.916,26.856 12.868,26.898 L12.764,26.916 C12.723,26.922 12.684,26.929 12.622,27.008 C12.582,27.043 12.532,27.069 12.486,27.1 C12.532,27.069 12.582,27.043 12.65,26.953 C12.612,26.968 12.575,26.986 12.54,27.007 L12.286,27.15 L12.088,27.184 C12.038,27.193 11.981,27.192 11.88,27.3 C11.814,27.341 11.739,27.367 11.669,27.402 C11.739,27.368 11.814,27.341 11.94,27.227 C11.846,27.247 11.758,27.289 11.67,27.326 C11.587,27.358 11.507,27.399 11.512,27.444 C11.469,27.445 11.421,27.437 11.365,27.42 L11.201,27.447 L10.873,27.502 C10.978,27.518 11.086,27.526 11.193,27.526 C11.073,27.527 10.943,27.517 10.79,27.502 L10.9,27.447 L10.79,27.42 C10.653,27.406 10.52,27.357 10.394,27.303 C10.255,27.246 10.118,27.178 9.97,27.145 C9.931,27.108 9.881,27.088 9.833,27.065 C9.748,27.026 9.664,26.981 9.574,26.954 C9.517,26.937 9.455,26.936 9.396,26.928 L9.26,26.874 C9.202,26.831 9.128,26.829 9.066,26.794 C8.991,26.753 8.905,26.732 8.822,26.71 C8.762,26.648 8.669,26.648 8.603,26.6 C8.461,26.538 8.307,26.503 8.172,26.424 L7.81,26.218 C7.787,26.163 7.727,26.147 7.687,26.109 L7.428,25.836 L7.333,25.67 L7.264,25.508 L7.238,25.207 L7.238,24.031 L7.238,23.566 C7.243,23.089 7.317,22.617 7.355,22.144 C7.39,21.705 7.506,21.273 7.511,20.804 C7.552,20.616 7.57,20.423 7.629,20.238 C7.67,20.111 7.723,19.984 7.73,19.82 C7.784,19.691 7.803,19.553 7.846,19.422 C7.883,19.307 7.922,19.191 7.976,19.081 C8.017,19.041 8.009,18.98 8.03,18.931 C8.055,18.866 8.077,18.799 8.085,18.727 C8.123,18.674 8.166,18.625 8.192,18.569 C8.221,18.507 8.231,18.437 8.249,18.372 C8.298,18.318 8.282,18.243 8.301,18.181 C8.327,18.1 8.355,18.021 8.358,17.935 C8.398,17.923 8.408,17.881 8.467,17.771 L8.528,17.635 C8.55,17.582 8.574,17.529 8.577,17.47 C8.678,17.336 8.736,17.165 8.702,16.99 C8.691,16.937 8.64,16.865 8.589,16.846 C8.485,16.806 8.324,16.873 8.304,17.005 C8.257,17.053 8.268,17.119 8.253,17.178 L8.194,17.415 C8.153,17.44 8.15,17.491 8.122,17.524 C8.081,17.573 8.06,17.633 8.03,17.688 C7.999,17.78 7.993,17.877 7.972,17.97 L7.92,18.18 C7.883,18.205 7.873,18.25 7.855,18.288 C7.839,18.324 7.846,18.369 7.811,18.398 C7.794,18.438 7.783,18.48 7.771,18.523 C7.752,18.595 7.73,18.668 7.702,18.835 C7.631,18.88 7.569,18.964 7.397,18.89 C7.355,18.812 7.414,18.725 7.429,18.644 C7.48,18.545 7.486,18.427 7.506,18.32 C7.512,18.283 7.515,18.245 7.525,18.207 C7.536,18.17 7.554,18.135 7.567,18.098 C7.605,18.085 7.621,18.049 7.649,17.961 C7.71,17.886 7.733,17.791 7.759,17.701 L7.841,17.414 C7.872,17.389 7.889,17.353 7.922,17.223 L7.964,17.121 L8.06,16.812 C8.101,16.776 8.115,16.72 8.141,16.648 C8.19,16.63 8.202,16.578 8.224,16.539 C8.246,16.496 8.271,16.451 8.278,16.402 C8.304,16.368 8.311,16.327 8.323,16.286 C8.338,16.235 8.331,16.182 8.333,16.129 C8.342,16.084 8.36,16.037 8.36,15.992 C8.36,15.947 8.342,15.901 8.333,15.855 C8.333,15.798 8.34,15.74 8.306,15.636 C8.285,15.592 8.267,15.54 8.223,15.515 C8.177,15.491 8.132,15.452 8.033,15.472 L7.915,15.472 C7.805,15.417 7.778,15.287 7.621,15.156 C7.511,15.136 7.398,15.187 7.312,15.246 C7.229,15.303 7.209,15.414 7.076,15.481 C7.061,15.337 7.091,15.193 7.164,15.07 C7.25,14.927 7.194,14.763 7.123,14.638 C7.06,14.527 7.039,14.398 7.048,14.269 L7.022,14.037 C7.022,14.006 7.04,13.973 7.048,13.887 C7.023,13.812 7.006,13.727 6.956,13.668 C6.936,13.645 6.885,13.648 6.849,13.639 C6.741,13.608 6.649,13.721 6.603,13.819 C6.553,13.925 6.465,14.017 6.367,14.061 C6.278,14.101 6.119,14.063 6.05,14.18 C6.02,14.233 5.98,14.289 5.931,14.313 C5.877,14.339 5.807,14.276 5.791,14.215 L5.791,14.106 L5.872,13.915 C5.896,13.884 5.905,13.849 5.91,13.81 L5.928,13.642 C5.963,13.525 5.96,13.396 5.918,13.285 C5.892,13.217 5.828,13.162 5.783,13.1 C5.701,13.113 5.609,13.103 5.539,13.14 C5.509,13.156 5.503,13.217 5.491,13.259 L5.383,13.613 C5.355,13.709 5.309,13.797 5.273,13.888 L5.171,13.957 C5.077,14.019 4.988,14.111 4.862,14.106 L4.862,14.006 C4.862,13.901 4.921,13.818 4.944,13.723 C4.959,13.674 4.965,13.624 4.974,13.575 C4.985,13.504 4.973,13.427 4.937,13.364 L4.862,13.231 C4.811,13.151 4.763,13.067 4.634,12.968 C4.538,12.956 4.465,13.039 4.406,13.104 C4.349,13.166 4.294,13.219 4.274,13.307 C4.255,13.395 4.146,13.447 4.07,13.412 L3.856,13.33 C3.713,13.369 3.596,13.252 3.522,13.121 C3.516,12.974 3.536,12.808 3.456,12.673 C3.443,12.651 3.38,12.641 3.35,12.651 C3.178,12.708 3.023,12.814 2.923,12.967 C2.883,13.028 2.804,13.062 2.745,13.111 C2.724,13.128 2.7,13.144 2.685,13.231 C2.788,13.42 2.792,13.618 2.712,13.755 C2.64,13.877 2.553,13.99 2.549,14.141 C2.548,14.212 2.498,14.283 2.472,14.353 L2.36,14.352 C2.308,14.253 2.3,14.129 2.36,14.036 C2.417,13.944 2.354,13.848 2.297,13.794 C2.202,13.708 2.066,13.716 1.953,13.728 C1.878,13.735 1.798,13.73 1.727,13.751 C1.657,13.771 1.592,13.813 1.465,13.93 C1.455,13.962 1.47,14.002 1.472,14.039 C1.562,14.058 1.665,14.091 1.711,14.181 L1.801,14.353 L1.827,14.626 C1.761,14.716 1.667,14.778 1.567,14.823 C1.456,14.873 1.367,14.979 1.347,15.089 C1.336,15.146 1.391,15.213 1.411,15.276 L1.476,15.509 C1.397,15.588 1.306,15.655 1.242,15.744 C1.206,15.792 1.185,15.862 1.192,15.918 C1.204,16.007 1.327,16.031 1.39,16.001 C1.484,15.958 1.464,15.811 1.54,15.744 C1.597,15.692 1.693,15.679 1.773,15.66 C1.81,15.651 1.856,15.652 1.887,15.669 C2.014,15.738 2.022,15.884 1.974,15.996 C1.953,16.04 1.939,16.089 1.862,16.181 C1.72,16.187 1.579,16.252 1.499,16.374 C1.454,16.442 1.371,16.484 1.304,16.538 C1.216,16.61 1.164,16.722 1.154,16.833 C1.146,16.933 1.239,17.021 1.332,17.047 C1.416,17.072 1.503,17.007 1.554,16.841 C1.6,16.806 1.637,16.761 1.687,16.736 C1.732,16.713 1.794,16.744 1.882,16.869 C1.856,16.969 1.823,17.068 1.802,17.17 C1.787,17.242 1.782,17.316 1.828,17.389 L1.802,17.553 C1.803,17.574 1.792,17.591 1.787,17.611 C1.793,17.629 1.785,17.646 1.774,17.663 C1.784,17.647 1.782,17.628 1.787,17.611 C1.78,17.592 1.76,17.573 1.715,17.553 C1.714,17.589 1.7,17.626 1.691,17.662 L1.572,17.931 C1.534,18.019 1.513,18.115 1.5,18.209 C1.454,18.303 1.404,18.394 1.373,18.492 C1.347,18.578 1.311,18.664 1.309,18.756 C1.3,18.788 1.287,18.82 1.281,18.948 L1.125,19.451 C1.086,19.578 1.055,19.713 1.063,19.877 L1.035,20.123 L1.008,20.287 L1.008,20.396 L0.981,20.505 L0.981,20.614 L0.953,20.805 L0.925,21.024 L0.898,21.188 L0.844,21.652 L0.816,21.954 L0.816,22.118 L0.789,22.473 L0.789,22.856 L0.762,23.321 L0.762,24.633 L0.734,25.163 C0.728,25.268 0.735,25.375 0.817,25.481 L0.817,25.618 L0.763,25.809 L0.79,26.082 C0.784,26.155 0.763,26.228 0.769,26.299 C0.779,26.41 0.794,26.518 0.79,26.629 L0.804,26.817 C0.813,26.962 0.918,27.077 0.982,27.204 C0.987,27.238 0.99,27.273 1.036,27.395 C1.067,27.474 1.11,27.547 1.148,27.623 C1.235,27.788 1.326,27.951 1.439,28.104 C1.581,28.299 1.711,28.508 1.883,28.679 C1.898,28.709 1.911,28.739 1.993,28.844 C2.015,28.905 2.05,28.96 2.184,28.98 L2.267,29.092 L2.283,29.113 C2.252,29.103 2.218,29.1 2.184,29.102 C2.214,29.132 2.219,29.185 2.266,29.226 L2.403,29.362 C2.403,29.423 2.465,29.449 2.567,29.595 C2.598,29.631 2.63,29.672 2.677,29.69 L2.76,29.813 C2.785,29.834 2.805,29.865 2.869,29.91 L2.969,29.994 C2.988,30.011 3.002,30.033 3.019,30.053 C3.059,30.088 3.087,30.119 3.107,30.155 C3.122,30.181 3.138,30.208 3.169,30.294 C3.316,30.488 3.497,30.654 3.672,30.824 C3.843,30.993 4.017,31.169 4.214,31.307 C4.266,31.343 4.318,31.381 4.373,31.413 C4.415,31.437 4.452,31.483 4.51,31.469 C4.573,31.513 4.633,31.567 4.698,31.608 C4.754,31.643 4.817,31.667 4.877,31.696 C5.022,31.762 5.148,31.862 5.303,31.907 L5.44,31.975 C5.493,32 5.544,32.033 5.603,32.042 C5.636,32.111 5.708,32.141 5.77,32.176 C5.817,32.201 5.857,32.237 5.904,32.262 C5.94,32.282 5.97,32.313 6.098,32.39 C6.131,32.414 6.169,32.432 6.204,32.452 C6.294,32.492 6.38,32.544 6.465,32.595 C6.609,32.682 6.779,32.723 6.913,32.828 C6.941,32.851 6.986,32.854 7.026,32.863 C7.061,32.906 7.116,32.918 7.162,32.943 C7.205,32.968 7.249,32.991 7.298,32.999 L7.421,33.082 C7.482,33.168 7.491,33.307 7.587,33.361 C7.627,33.384 7.703,33.364 7.755,33.348 C7.834,33.326 7.907,33.279 7.982,33.245 L8.119,33.245 C8.168,33.292 8.229,33.327 8.268,33.386 C8.289,33.419 8.328,33.466 8.306,33.504 C8.284,33.544 8.237,33.569 8.202,33.599 L8.038,33.683 C7.936,33.734 7.909,33.863 7.946,33.962 C7.982,34.058 7.988,34.163 7.979,34.266 C7.97,34.359 7.878,34.386 7.818,34.431 C7.73,34.492 7.682,34.625 7.74,34.728 C7.794,34.826 7.939,34.894 8.058,34.731 C8.062,34.664 8.031,34.591 8.042,34.527 C8.049,34.49 8.09,34.458 8.114,34.423 C8.393,34.466 8.679,34.415 9.05,34.53 C8.911,34.643 8.716,34.632 8.568,34.724 C8.495,34.77 8.434,34.834 8.355,34.868 C8.328,34.879 8.304,34.895 8.191,34.912 L7.659,35.433 L7.709,35.54 C7.704,35.629 7.701,35.724 7.821,35.852 C7.953,35.886 8.063,35.783 8.134,35.687 C8.175,35.632 8.206,35.569 8.258,35.529 C8.376,35.434 8.572,35.436 8.675,35.57 C8.697,35.598 8.668,35.668 8.664,35.716 C8.697,35.711 8.734,35.712 8.764,35.698 C8.861,35.655 8.954,35.699 9.044,35.711 C9.228,35.733 9.363,35.561 9.356,35.398 C9.354,35.328 9.41,35.287 9.467,35.253 C9.545,35.206 9.611,35.104 9.579,35.013 C9.551,34.928 9.483,34.861 9.412,34.806 C9.326,34.741 9.257,34.648 9.216,34.491 C9.336,34.433 9.468,34.435 9.624,34.42 C9.735,34.414 9.826,34.335 9.92,34.293 C10.015,34.254 10.114,34.213 10.216,34.187 C10.295,34.166 10.386,34.194 10.428,34.244 C10.524,34.356 10.521,34.548 10.404,34.651 C10.341,34.708 10.247,34.727 10.17,34.766 C10.167,34.918 10.251,35.054 10.326,35.184 C10.36,35.243 10.486,35.239 10.544,35.289 C10.653,35.38 10.644,35.536 10.564,35.646 C10.487,35.751 10.44,35.91 10.506,36.039 C10.545,36.118 10.666,36.137 10.726,36.088 C10.764,36.057 10.793,35.993 10.798,35.943 C10.804,35.884 10.754,35.818 10.826,35.688 C10.98,35.681 11.135,35.722 11.272,35.788 C11.313,35.809 11.407,35.791 11.421,35.765 C11.542,35.541 11.443,35.207 11.084,35.012 C11.015,34.975 10.945,35.058 10.866,35.076 L10.783,34.967 C10.843,34.858 10.945,34.901 11.026,34.936 L11.13,34.842 C11.093,34.76 11.052,34.68 11.02,34.596 C10.989,34.51 11.029,34.367 11.133,34.346 C11.246,34.325 11.366,34.339 11.537,34.338 L11.783,34.365 L12.084,34.392 C12.331,34.415 12.576,34.449 12.814,34.529 C13.05,34.423 13.285,34.328 13.587,34.174 L13.709,34.156 L13.559,34.254 L13.723,34.229 L13.943,34.202 L14.09,34.141 L14.216,34.174 C14.875,34.232 15.533,34.193 16.185,34.076 C16.333,34.051 16.429,33.918 16.562,33.86 C16.687,33.806 16.824,33.795 16.955,33.763 C16.991,33.755 17.041,33.779 17.16,33.888 C17.251,33.956 17.391,33.947 17.481,33.894 C17.513,33.874 17.534,33.819 17.543,33.778 C17.559,33.713 17.535,33.639 17.638,33.502 C17.679,33.477 17.74,33.478 17.766,33.445 C17.862,33.322 17.987,33.232 18.126,33.16 C18.164,33.166 18.203,33.157 18.325,33.128 C18.385,33.151 18.452,33.184 18.494,33.231 C18.549,33.293 18.561,33.395 18.616,33.46 C18.659,33.512 18.772,33.492 18.796,33.564 C18.825,33.65 18.842,33.746 18.83,33.832 C18.814,33.936 18.734,34.022 18.711,34.128 C18.691,34.213 18.73,34.354 18.838,34.342 C18.915,34.335 18.998,34.305 19.074,34.196 C19.071,34.139 19.059,34.084 19.053,34.027 C19.087,34.011 19.119,33.981 19.153,33.98 C19.23,33.976 19.312,33.99 19.385,34.013 C19.423,34.027 19.449,34.088 19.485,34.091 C19.541,34.098 19.612,34.074 19.699,33.952 C19.82,33.717 19.63,33.443 19.326,33.227 C19.358,33.144 19.393,33.057 19.344,32.967 C19.311,32.908 19.253,32.854 19.245,32.791 C19.239,32.744 19.283,32.69 19.299,32.613 C19.344,32.586 19.385,32.549 19.437,32.504 C19.516,32.45 19.595,32.393 19.682,32.353 C19.743,32.325 19.813,32.295 19.874,32.23 L20.039,32.108 C20.166,32.013 20.261,31.874 20.419,31.837 C20.517,31.815 20.622,31.779 20.682,31.691 C20.77,31.561 20.823,31.396 20.946,31.294 C21.23,31.055 21.521,30.82 21.843,30.466 C21.883,30.435 21.913,30.391 21.939,30.344 C21.962,30.303 22.003,30.272 22.034,30.234 L22.13,30.126 C22.158,30.093 22.175,30.052 22.199,29.989 C22.246,29.971 22.258,29.917 22.28,29.852 L22.417,29.687 C22.479,29.651 22.502,29.579 22.542,29.524 C22.578,29.475 22.636,29.444 22.706,29.332 C22.723,29.308 22.734,29.278 22.842,29.169 C22.866,29.148 22.888,29.122 22.909,29.093 L22.913,29.094 C22.957,29.038 22.995,28.976 23.031,28.915 C23.083,28.828 23.185,28.779 23.238,28.595 C23.294,28.535 23.372,28.484 23.4,28.413 L23.584,27.942 C23.648,27.779 23.688,27.606 23.757,27.419 C23.795,27.392 23.806,27.347 23.825,27.309 C23.852,27.257 23.883,27.205 23.895,27.144 L23.895,27.009 C23.903,26.96 23.903,26.904 23.985,26.789 L24.058,26.681 L23.949,26.872 C23.998,26.853 24.056,26.834 24.082,26.795 C24.203,26.607 24.35,26.441 24.457,26.247 C24.526,26.12 24.641,26.011 24.66,25.859 C24.686,25.825 24.695,25.782 24.704,25.741 L24.739,25.587 L24.798,25.464 C24.835,25.4 24.868,25.331 24.907,25.268 C24.931,25.229 24.925,25.171 24.97,25.035 L24.988,24.904 C25.055,24.768 25.079,24.619 25.112,24.472 C25.143,24.335 25.16,24.197 25.152,24.056 L25.152,23.947 C25.154,23.541 25.171,23.137 25.17,22.732 L25.17,22.732 Z" id="Shape" fill="#ED282A"></path>
                <path d="M13.192,19.789 C13.147,19.771 13.107,19.744 13.082,19.705 C13.041,19.644 13.007,19.575 12.983,19.507 C12.955,19.43 12.923,19.35 12.923,19.27 C12.923,19.157 12.951,19.041 12.94,18.928 C12.914,18.683 12.907,18.418 13.023,18.19 C13.075,18.086 13.134,17.963 13.261,17.93 L13.384,17.957 C13.422,17.902 13.519,17.926 13.604,17.902 C13.704,17.873 13.642,17.97 13.659,17.984 C13.784,17.965 13.88,17.927 13.926,17.961 C14.094,18.086 14.267,18.211 14.383,18.391 C14.495,18.569 14.542,18.725 14.489,18.848 C14.478,18.875 14.513,18.922 14.525,18.961 C14.534,18.988 14.529,19.023 14.545,19.045 C14.766,19.403 14.996,19.756 15.192,20.127 C15.173,20.391 14.983,20.692 14.703,20.734 C14.506,20.763 14.305,20.737 14.108,20.747 C13.958,20.753 13.856,20.585 13.713,20.565 L13.614,20.546 C13.463,20.517 13.298,20.448 13.235,20.308 L13.166,20.158 C13.221,20.038 13.225,19.959 13.218,19.881 C13.215,19.85 13.201,19.819 13.192,19.789 L13.192,19.789 Z M10.349,18.996 C10.417,18.975 10.512,18.937 10.558,18.969 C11.05,19.295 11.118,20.037 10.762,20.481 C10.657,20.612 10.49,20.64 10.334,20.637 C9.949,20.627 9.587,20.464 9.289,20.233 C9.213,20.174 9.137,20.055 9.2,19.954 C9.113,19.857 9.028,19.784 8.944,19.712 C8.825,19.608 8.848,19.425 8.888,19.29 C8.906,19.229 8.903,19.157 8.936,19.108 C8.981,19.041 9.059,18.955 9.124,18.953 C9.417,18.942 9.705,18.952 9.993,18.997 L10.349,18.997 L10.349,18.996 L10.349,18.996 Z M11.307,21.211 C11.383,21.16 11.472,21.205 11.532,21.252 C11.743,21.413 11.924,21.51 11.994,21.677 C12.019,21.736 12.044,21.803 12.053,21.862 C12.062,21.928 12.074,21.949 12.099,22.027 C12.118,22.087 12.066,22.167 12.057,22.238 C12.052,22.28 12.066,22.326 12.055,22.366 C12.002,22.564 11.859,22.768 11.634,22.781 C11.162,22.809 10.686,22.807 10.215,22.781 C9.966,22.767 9.768,22.538 9.816,22.293 C9.861,22.064 9.886,21.834 9.896,21.601 C9.898,21.542 9.912,21.484 9.92,21.425 C9.977,21.375 9.951,21.34 9.959,21.312 C9.995,21.146 10.163,21.046 10.321,21.033 C10.533,21.017 10.757,20.976 10.961,21.037 C11.021,21.055 11.088,21.058 11.14,21.088 C11.17,21.107 11.182,21.15 11.2,21.186 L11.307,21.211 Z M17.158,19.133 C17.268,19.466 17.253,19.76 17.116,19.961 C17.055,20.05 16.976,20.13 16.875,20.176 C16.747,20.232 16.615,20.169 16.502,20.102 C16.135,19.884 15.875,19.481 15.825,19.051 C15.815,18.944 15.888,18.832 15.958,18.744 C16.046,18.634 16.199,18.639 16.326,18.639 C16.551,18.642 16.742,18.647 16.886,18.735 C17.017,18.813 17.106,18.942 17.172,19.079 L17.158,19.133 Z M10.24,24.219 C10.268,24.214 10.296,24.214 10.322,24.205 C10.352,24.195 10.377,24.178 10.405,24.164 C10.692,23.918 11.036,23.895 11.335,24.014 C11.424,24.102 11.546,24.153 11.626,24.255 C11.737,24.398 11.743,24.609 11.624,24.748 C11.541,24.842 11.543,24.968 11.554,25.084 C11.587,25.424 11.287,25.744 10.945,25.726 C10.62,25.708 10.342,25.755 10.113,25.657 C9.807,25.524 9.603,25.221 9.578,24.901 C9.552,24.551 9.831,24.29 10.14,24.165 C10.163,24.154 10.208,24.199 10.24,24.219 L10.24,24.219 Z M7.779,24.19 C7.776,24.131 7.753,24.078 7.724,24.027 C7.372,23.625 7.424,23.047 7.815,22.763 C7.964,22.653 8.17,22.675 8.343,22.727 C8.671,22.733 8.976,22.836 9.254,23.004 C9.46,23.129 9.67,23.327 9.683,23.573 C9.686,23.639 9.719,23.719 9.694,23.771 L9.459,24.245 L9.146,24.559 C8.708,24.812 8.12,24.682 7.8,24.302 C7.779,24.277 7.783,24.23 7.779,24.19 L7.779,24.19 Z M13.439,22.551 C13.45,22.458 13.418,22.412 13.428,22.379 C13.48,22.223 13.574,22.067 13.727,21.985 C13.857,21.918 13.986,21.994 14.115,22.038 L14.523,22.178 C14.678,22.231 14.737,22.399 14.813,22.537 C14.87,22.641 14.962,22.726 14.988,22.85 C15.022,23.011 14.953,23.185 14.824,23.367 C14.707,23.535 14.648,23.694 14.518,23.765 C14.351,23.858 14.141,23.873 13.967,23.819 C13.94,23.81 13.909,23.795 13.883,23.798 C13.726,23.819 13.574,23.723 13.411,23.582 L13.273,23.466 C13.088,23.31 13.121,22.938 13.321,22.668 C13.347,22.633 13.363,22.588 13.394,22.557 L13.439,22.551 Z M16.003,21.045 C16.413,21.035 16.793,21.39 16.749,21.819 C16.728,22.02 16.756,22.236 16.68,22.429 C16.559,22.738 16.191,22.888 15.892,22.747 C15.762,22.686 15.67,22.571 15.58,22.464 C15.417,22.273 15.283,22.048 15.244,21.797 C15.271,21.662 15.3,21.523 15.362,21.398 C15.48,21.166 15.759,21.051 16.003,21.045 L16.003,21.045 Z M12.236,24.848 C12.217,24.718 12.289,24.634 12.378,24.575 C12.488,24.499 12.527,24.364 12.616,24.271 C12.671,24.213 12.752,24.181 12.82,24.137 L12.92,24.191 C13.021,24.173 13.067,24.137 13.112,24.137 C13.157,24.137 13.203,24.173 13.248,24.191 C13.345,24.212 13.403,24.188 13.429,24.209 C13.538,24.292 13.628,24.399 13.727,24.493 C13.8,24.632 13.85,24.78 13.938,24.912 C14.01,25.194 14.023,25.522 13.866,25.785 C13.739,25.999 13.499,26.061 13.265,26.052 C13.048,26.042 12.827,26.075 12.614,26.031 C12.352,25.98 12.165,25.795 12.141,25.588 C12.114,25.35 12.114,25.101 12.21,24.877 L12.236,24.848 Z" id="Shape" fill="#231F20"></path>
                <path d="M38.541,21.216 C38.541,19.497 39.83,18.256 42.072,18.256 C44.316,18.256 45.891,19.594 45.891,21.74 L45.891,22.695 L52.717,22.695 L52.717,21.979 C52.717,16.156 48.421,12.528 42.072,12.528 C35.582,12.528 31.811,16.824 31.811,21.692 C31.811,26.226 34.292,28.947 39.066,30.666 L43.982,32.432 C46.033,33.147 46.607,34.485 46.607,35.821 C46.607,37.73 45.127,39.114 42.264,39.114 C39.591,39.114 37.969,37.921 37.969,35.63 L37.969,34.247 L31.144,34.247 L31.144,35.392 C31.144,41.214 35.822,44.843 42.456,44.843 C49.09,44.843 53.386,40.786 53.386,35.058 C53.386,29.14 49.471,27.134 45.367,25.703 L41.263,24.271 C38.875,23.459 38.541,22.027 38.541,21.216" id="Shape" fill="#ED282A"></path>
                <path d="M98.354,33.339 C98.354,36.393 96.683,38.16 93.676,38.16 L89.381,38.16 L89.381,19.211 L93.676,19.211 C96.683,19.211 98.354,20.977 98.354,24.031 L98.354,33.339 Z M105.274,33.482 L105.274,23.887 C105.274,17.205 101.074,13.005 93.676,13.005 L82.46,13.005 L82.46,44.362 L93.676,44.362 C101.075,44.363 105.274,40.164 105.274,33.482 L105.274,33.482 Z" id="Shape" fill="#F37A20"></path>
                <path d="M76.607,35.152 L76.607,19.517 L76.607,13.005 L69.687,13.005 L58.932,13.005 L58.932,19.517 L69.687,19.517 L69.687,35.008 C69.687,37.251 68.494,38.636 66.441,38.636 C64.39,38.636 63.195,37.251 63.195,35.008 L63.195,33.91 L56.275,33.91 L56.275,35.151 C56.275,41.118 60.379,44.84 66.441,44.84 C72.503,44.84 76.607,41.119 76.607,35.152" id="Shape" fill="#8D2888"></path>
            </g>
        </g>
    </g>
</svg>