<?xml version="1.0" encoding="UTF-8"?>
<svg width="162px" height="22px" viewBox="0 0 162 22" version="1.1" xmlns="http://www.w3.org/2000/svg" xmlns:xlink="http://www.w3.org/1999/xlink">
    <!-- Generator: Sketch 43.1 (39012) - http://www.bohemiancoding.com/sketch -->
    <title>Shape</title>
    <desc>Created with Sketch.</desc>
    <defs></defs>
    <g id="Page-1" stroke="none" stroke-width="1" fill="none" fill-rule="evenodd">
        <g id="vv" transform="translate(-1.000000, -1.000000)" fill="#121212">
            <path d="M157.974,11.381 C157.902669,10.7842859 157.690129,10.2131696 157.354,9.715 C156.874,9.049 156.11,8.715 155.098,8.715 C153.64,8.715 152.644,9.435 152.108,10.883 C151.822,11.647 151.684,12.667 151.684,13.945 C151.684,15.148 151.822,16.125 152.108,16.868 C152.628,18.24 153.594,18.926 155.018,18.926 C156.028,18.926 156.748,18.656 157.168,18.106 C157.598,17.563 157.853,16.856 157.945,15.986 L162.355,15.986 C162.257,17.301 161.782,18.546 160.931,19.713 C159.578,21.596 157.571,22.548 154.919,22.548 C152.263,22.548 150.299,21.756 149.052,20.183 C147.798,18.608 147.168,16.565 147.168,14.043 C147.168,11.208 147.868,9.003 149.248,7.423 C150.632,5.849 152.548,5.057 154.981,5.057 C157.048,5.057 158.745,5.523 160.051,6.457 C161.376,7.382 162.159,9.024 162.406,11.38 L157.976,11.38 L157.974,11.381 Z M141.064,21.976 L145.434,21.976 L145.434,6.943 L141.064,6.943 L141.064,21.976 Z M141.064,5.039 L145.434,5.039 L145.434,1.053 L141.064,1.053 L141.064,5.038 L141.064,5.039 Z M130.476,8.684 L130.476,5.606 L132.78,5.606 L132.78,1 L137.056,1 L137.056,5.606 L139.739,5.606 L139.739,8.683 L137.055,8.683 L137.055,17.408 C137.055,18.095 137.141,18.515 137.315,18.683 C137.483,18.848 138.013,18.926 138.887,18.926 L139.3,18.926 L139.74,18.891 L139.74,22.128 L137.692,22.195 C135.649,22.265 134.262,21.918 133.51,21.137 C133.018,20.645 132.78,19.881 132.78,18.847 L132.78,8.683 L130.476,8.683 L130.476,8.684 Z M126.656,5.792 C127.758,6.312 128.66,7.118 129.384,8.23 C130.026,9.215 130.444,10.346 130.64,11.638 C130.755,12.398 130.798,13.49 130.775,14.914 L119.475,14.914 C119.532,16.567 120.055,17.731 121.035,18.394 C121.629,18.814 122.341,19.014 123.183,19.014 C124.076,19.014 124.793,18.761 125.353,18.257 C125.651,17.991 125.917,17.61 126.155,17.127 L130.56,17.127 C130.454,18.107 129.942,19.103 129.037,20.109 C127.62,21.722 125.634,22.521 123.093,22.521 C120.993,22.521 119.143,21.843 117.533,20.491 C115.926,19.131 115.121,16.931 115.121,13.881 C115.121,11.016 115.851,8.829 117.288,7.304 C118.75,5.78 120.63,5.017 122.948,5.017 C124.318,5.017 125.553,5.272 126.656,5.792 L126.656,5.792 Z M120.61,9.518 C120.058,10.141 119.72,10.988 119.578,12.063 L126.292,12.063 C126.216,10.918 125.868,10.055 125.244,9.47 C124.619,8.876 123.869,8.575 122.946,8.575 C121.943,8.575 121.16,8.893 120.61,9.518 Z M105.9,8.683 L105.9,5.606 L108.208,5.606 L108.208,1 L112.483,1 L112.483,5.606 L115.163,5.606 L115.163,8.683 L112.483,8.683 L112.483,17.408 C112.483,18.095 112.568,18.515 112.736,18.683 C112.912,18.848 113.431,18.926 114.312,18.926 L114.725,18.926 L115.165,18.891 L115.165,22.128 L113.12,22.195 C111.075,22.265 109.68,21.918 108.937,21.137 C108.451,20.645 108.207,19.881 108.207,18.847 L108.207,8.683 L105.899,8.683 L105.9,8.683 Z M95.218,16.693 C95.302,17.468 95.501,18.013 95.81,18.33 C96.34,18.915 97.33,19.2 98.776,19.2 C99.621,19.2 100.296,19.07 100.796,18.818 C101.302,18.568 101.551,18.185 101.551,17.684 C101.551,17.197 101.345,16.834 100.947,16.578 C100.541,16.323 99.037,15.888 96.441,15.276 C94.571,14.806 93.256,14.229 92.491,13.534 C91.718,12.85 91.335,11.851 91.335,10.566 C91.335,9.031 91.932,7.731 93.125,6.636 C94.33,5.536 96.011,4.983 98.19,4.983 C100.238,4.983 101.924,5.398 103.222,6.23 C104.516,7.054 105.266,8.464 105.457,10.483 L101.137,10.483 C101.077,9.929 100.924,9.495 100.669,9.166 C100.195,8.581 99.389,8.286 98.244,8.286 C97.307,8.286 96.636,8.436 96.227,8.731 C95.837,9.021 95.641,9.369 95.641,9.754 C95.641,10.252 95.853,10.614 96.277,10.836 C96.703,11.069 98.204,11.463 100.779,12.034 C102.495,12.434 103.783,13.047 104.637,13.864 C105.487,14.696 105.912,15.728 105.912,16.97 C105.912,18.608 105.302,19.95 104.077,20.988 C102.867,22.018 100.987,22.532 98.44,22.532 C95.842,22.532 93.927,21.987 92.68,20.894 C91.45,19.796 90.833,18.394 90.833,16.694 L95.217,16.694 L95.218,16.693 Z M86.338,5.791 C87.441,6.311 88.346,7.117 89.058,8.229 C89.715,9.214 90.128,10.345 90.312,11.637 C90.432,12.397 90.47,13.489 90.457,14.913 L79.15,14.913 C79.21,16.566 79.73,17.73 80.717,18.393 C81.31,18.813 82.023,19.013 82.863,19.013 C83.753,19.013 84.477,18.76 85.035,18.256 C85.338,17.99 85.598,17.609 85.832,17.126 L90.242,17.126 C90.132,18.106 89.62,19.102 88.718,20.108 C87.298,21.721 85.316,22.52 82.772,22.52 C80.672,22.52 78.822,21.842 77.216,20.49 C75.602,19.13 74.802,16.93 74.802,13.88 C74.802,11.015 75.524,8.828 76.965,7.303 C78.423,5.779 80.31,5.016 82.621,5.016 C83.994,5.016 85.231,5.271 86.339,5.791 L86.338,5.791 Z M80.293,9.518 C79.739,10.141 79.397,10.988 79.259,12.063 L85.973,12.063 C85.895,10.918 85.545,10.055 84.926,9.47 C84.312,8.876 83.542,8.575 82.62,8.575 C81.617,8.575 80.842,8.893 80.293,9.518 Z M72.433,19.973 C71.037,21.693 68.925,22.548 66.083,22.548 C63.253,22.548 61.127,21.693 59.733,19.973 C58.341,18.243 57.639,16.167 57.639,13.748 C57.639,11.358 58.339,9.291 59.733,7.548 C61.126,5.798 63.251,4.925 66.081,4.925 C68.924,4.925 71.036,5.799 72.431,7.547 C73.825,9.29 74.521,11.357 74.521,13.747 C74.521,16.167 73.825,18.243 72.431,19.972 L72.433,19.973 Z M68.98,17.578 C69.656,16.68 69.998,15.403 69.998,13.748 C69.998,12.088 69.656,10.815 68.981,9.923 C68.303,9.025 67.334,8.575 66.071,8.575 C64.807,8.575 63.833,9.025 63.145,9.923 C62.465,10.815 62.132,12.087 62.132,13.748 C62.132,15.403 62.466,16.68 63.146,17.578 C63.834,18.476 64.808,18.926 66.071,18.926 C67.334,18.926 68.303,18.476 68.981,17.578 L68.98,17.578 Z M46.276,16.693 C46.363,17.468 46.556,18.013 46.864,18.33 C47.401,18.915 48.392,19.2 49.838,19.2 C50.686,19.2 51.356,19.07 51.854,18.818 C52.36,18.568 52.607,18.185 52.607,17.684 C52.607,17.197 52.403,16.834 52.005,16.578 C51.599,16.323 50.101,15.888 47.501,15.276 C45.631,14.806 44.313,14.229 43.551,13.534 C42.777,12.85 42.396,11.851 42.396,10.566 C42.396,9.031 42.993,7.731 44.186,6.636 C45.39,5.536 47.073,4.983 49.246,4.983 C51.31,4.983 52.989,5.398 54.283,6.23 C55.585,7.054 56.325,8.464 56.52,10.483 L52.196,10.483 C52.136,9.929 51.98,9.495 51.733,9.166 C51.248,8.581 50.443,8.286 49.305,8.286 C48.362,8.286 47.695,8.436 47.289,8.731 C46.894,9.021 46.689,9.369 46.689,9.754 C46.689,10.252 46.911,10.614 47.339,10.836 C47.759,11.069 49.261,11.463 51.835,12.034 C53.553,12.434 54.839,13.047 55.695,13.864 C56.545,14.696 56.968,15.728 56.968,16.97 C56.968,18.608 56.356,19.95 55.132,20.988 C53.925,22.018 52.047,22.532 49.492,22.532 C46.902,22.532 44.985,21.987 43.739,20.894 C42.514,19.796 41.892,18.394 41.892,16.694 L46.275,16.694 L46.276,16.693 Z M37.392,5.791 C38.492,6.311 39.396,7.117 40.118,8.229 C40.768,9.214 41.183,10.345 41.373,11.637 C41.49,12.397 41.538,13.489 41.513,14.913 L30.204,14.913 C30.264,16.566 30.792,17.73 31.766,18.393 C32.363,18.813 33.086,19.013 33.921,19.013 C34.808,19.013 35.531,18.76 36.089,18.256 C36.383,17.99 36.651,17.609 36.893,17.126 L41.293,17.126 C41.186,18.106 40.675,19.102 39.763,20.108 C38.356,21.721 36.375,22.52 33.83,22.52 C31.728,22.52 29.876,21.842 28.266,20.49 C26.661,19.13 25.864,16.93 25.864,13.88 C25.864,11.015 26.584,8.828 28.024,7.303 C29.478,5.779 31.364,5.016 33.674,5.016 C35.047,5.016 36.289,5.271 37.392,5.791 L37.392,5.791 Z M31.352,9.518 C30.802,10.141 30.447,10.988 30.312,12.063 L37.02,12.063 C36.955,10.918 36.61,10.055 35.982,9.47 C35.367,8.876 34.592,8.575 33.675,8.575 C32.68,8.575 31.901,8.893 31.352,9.518 Z M21.688,5.514 C22.394,5.799 23.034,6.288 23.61,6.996 C24.07,7.573 24.393,8.281 24.554,9.118 C24.649,9.674 24.696,10.49 24.696,11.565 L24.674,21.975 L20.247,21.975 L20.247,11.455 C20.247,10.827 20.139,10.315 19.945,9.905 C19.559,9.142 18.855,8.755 17.82,8.755 C16.63,8.755 15.804,9.255 15.354,10.241 C15.114,10.769 15.007,11.398 15.007,12.141 L15.007,21.976 L10.65,21.976 L10.65,12.141 C10.65,11.156 10.55,10.444 10.355,9.996 C9.983,9.2 9.275,8.806 8.215,8.806 C6.98,8.806 6.155,9.2 5.725,9.996 C5.495,10.456 5.379,11.132 5.379,12.034 L5.379,21.976 L1,21.976 L1,5.486 L5.198,5.486 L5.198,7.898 C5.734,7.035 6.241,6.42 6.712,6.058 C7.552,5.414 8.637,5.088 9.97,5.088 C11.234,5.088 12.255,5.362 13.03,5.922 C13.6668208,6.4485447 14.1569615,7.13053951 14.453,7.902 C15.023,6.942 15.73,6.228 16.565,5.772 C17.452,5.322 18.443,5.089 19.535,5.089 C20.265,5.089 20.975,5.229 21.688,5.512 L21.688,5.514 Z" id="Shape"></path>
        </g>
    </g>
</svg>