<?xml version="1.0" encoding="UTF-8"?>
<svg width="303px" height="48px" viewBox="0 0 303 48" version="1.1" xmlns="http://www.w3.org/2000/svg" xmlns:xlink="http://www.w3.org/1999/xlink">
    <!-- Generator: Sketch 43.1 (39012) - http://www.bohemiancoding.com/sketch -->
    <title>otogami-logo</title>
    <desc>Created with Sketch.</desc>
    <defs></defs>
    <g id="Page-1" stroke="none" stroke-width="1" fill="none" fill-rule="evenodd">
        <g id="Artboard" transform="translate(-10.000000, -18.000000)" fill-rule="nonzero" fill="#FF216B">
            <g id="otogami-logo" transform="translate(10.000000, 18.000000)">
                <path d="M160,20.7 L160,26.6 L177.5,26.6 C176.1,35 168.8,41.4 160,41.4 C150.2,41.4 142.2,33.4 142.2,23.6 C142.2,13.8 150.2,5.8 160,5.8 C164.5,5.8 168.7,7.5 171.8,10.3 L176.3,6.4 C172,2.5 166.3,0 160,0 C146.9,0 136.3,10.6 136.3,23.7 C136.3,36.8 146.9,47.4 160,47.4 C173.1,47.4 183.7,36.8 183.7,23.7 C183.7,22.7 183.6,21.7 183.5,20.7 L160,20.7 Z" id="Shape"></path>
                <polygon id="Shape" points="83 0 47.4 0 47.4 5.9 62.2 5.9 62.2 47.4 68.1 47.4 68.1 5.9 83 5.9"></polygon>
                <rect id="Rectangle-path" x="296.3" y="0" width="5.9" height="47.4"></rect>
                <path d="M228.1,41.5 L228.1,41.5 L228.1,41.5 L207.4,0 L207.4,0 L207.4,0 L207.4,0 L207.4,0 L183.7,47.4 L231.1,47.4 L228.1,41.5 Z M192.6,41.5 L207.4,11.9 L222.2,41.5 L192.6,41.5 Z" id="Shape"></path>
                <path d="M106.7,0 C93.6,0 83,10.6 83,23.7 C83,36.8 93.6,47.4 106.7,47.4 C119.8,47.4 130.4,36.8 130.4,23.7 C130.4,10.6 119.8,0 106.7,0 Z M106.7,41.5 C96.9,41.5 88.9,33.5 88.9,23.7 C88.9,13.9 96.9,5.9 106.7,5.9 C116.5,5.9 124.5,13.9 124.5,23.7 C124.4,33.5 116.5,41.5 106.7,41.5 Z" id="Shape"></path>
                <path d="M23.7,0 C10.6,0 0,10.6 0,23.7 C0,36.8 10.6,47.4 23.7,47.4 C36.8,47.4 47.4,36.8 47.4,23.7 C47.4,10.6 36.8,0 23.7,0 Z M23.7,41.5 C13.9,41.5 5.9,33.5 5.9,23.7 C5.9,13.9 13.9,5.9 23.7,5.9 C33.5,5.9 41.5,13.9 41.5,23.7 C41.5,33.5 33.5,41.5 23.7,41.5 Z" id="Shape"></path>
                <path d="M260.7,20.7 L237,0 L237,47.4 L237,47.4 L284.4,47.4 L284.4,0 L260.7,20.7 Z M278.5,41.5 L243,41.5 L243,14.1 L260.8,29.7 L278.6,14.1 L278.5,41.5 L278.5,41.5 Z" id="Shape"></path>
            </g>
        </g>
    </g>
</svg>