<svg xmlns="http://www.w3.org/2000/svg" xmlns:xlink="http://www.w3.org/1999/xlink" version="1.1" id="Layer_1" x="0px" y="0px" viewBox="0 0 841.9 595.3" style="enable-background:new 0 0 841.9 595.3;" xml:space="preserve">
<style type="text/css">
	.st0{fill:#6BE600;}
	.st1{fill:#DBDBDB;}
	.st2{fill:#959595;}
</style>
<path class="st0" d="M308.1,332.4c0-35.1-28.5-63.6-63.6-63.6c-35.1,0-63.6,28.5-63.6,63.6v0c0,3.5,4.7,6.4,10.6,6.4  c5.9,0,10.6-2.8,10.6-6.4v0c0-23.4,19-42.4,42.4-42.4c23.4,0,42.4,19,42.4,42.4v0h0c0,3.5,4.7,6.4,10.6,6.4  C303.3,338.7,308.1,335.9,308.1,332.4C308.1,332.4,308.1,332.4,308.1,332.4"/>
<path class="st1" d="M210.4,315.3c-1.6,3.2-2.8,6.6-3.4,10.2c2.3,1.9,3.6,4.3,3.6,6.8c0,6.4-8.5,11.7-19.1,11.7  c-10.5,0-19.1-5.2-19.1-11.7c0-2.9,1.8-5.6,4.7-7.6c0.5-4.1,1.3-8.1,2.5-12c-11.6,3.1-19.8,10.7-19.8,19.6  c0,11.7,14.2,21.2,31.8,21.2c17.6,0,31.8-9.5,31.8-21.2C223.3,325.4,218.2,319.2,210.4,315.3"/>
<path class="st1" d="M309.4,312.7c1.2,3.9,2,7.9,2.5,12c2.9,2,4.7,4.7,4.7,7.6c0,6.4-8.5,11.7-19.1,11.7c-10.5,0-19.1-5.2-19.1-11.7  c0-2.6,1.3-4.9,3.6-6.8c-0.7-3.6-1.8-7-3.4-10.2c-7.8,3.9-12.9,10.1-12.9,17.1c0,11.7,14.2,21.2,31.8,21.2  c17.6,0,31.8-9.5,31.8-21.2C329.2,323.5,321,315.9,309.4,312.7"/>
<path class="st0" d="M414,256l-0.7,0.7l0,0c-2.5,2.5-6.5,2.5-9,0c-2.5-2.5-2.5-6.5,0-9l0.8-0.8c-3.2-0.5-6.5,0.5-9,3c0,0,0,0,0,0  c-21.1,21.1-34.1,50.2-34.1,82.4c0,3.5,4.7,6.4,10.6,6.4c5.9,0,10.6-2.8,10.6-6.4c0,0,0,0,0,0c0-26.3,10.7-50.2,27.9-67.4  C413.5,262.5,414.5,259.1,414,256"/>
<path class="st2" d="M426,235c-1.2-1.2-3.3-1.2-4.5,0l-15,15c0,0,0,0,0,0c-1.2,1.2-1.2,3.3,0,4.5c1.2,1.2,3.3,1.2,4.5,0c0,0,0,0,0,0  l15-15C427.2,238.2,427.2,236.2,426,235"/>
<path class="st1" d="M389.1,314.3c-0.7,3.6-1.2,7.2-1.5,10.9c2.5,2,4,4.4,4,7.1c0,6.4-8.5,11.7-19.1,11.7  c-10.5,0-19.1-5.2-19.1-11.7c0-2.9,1.7-5.5,4.5-7.5c0.2-4,0.7-7.9,1.3-11.7c-10.9,3.4-18.5,10.7-18.5,19.2  c0,11.7,14.2,21.2,31.8,21.2c17.6,0,31.8-9.5,31.8-21.2C404.3,324.7,398.2,318,389.1,314.3"/>
<path class="st2" d="M98,287.4C98,287.4,98,287.4,98,287.4l-15-15c-1.2-1.2-3.3-1.2-4.5,0c-1.2,1.2-1.2,3.3,0,4.5l15,15h0  c1.2,1.2,3.3,1.2,4.5,0C99.2,290.7,99.2,288.7,98,287.4"/>
<path class="st1" d="M128.4,312.7c1.2,3.9,2,7.9,2.5,12c2.9,2,4.7,4.7,4.7,7.6c0,6.4-8.5,11.7-19.1,11.7c-10.5,0-19.1-5.2-19.1-11.7  c0-2.6,1.3-4.9,3.6-6.8c-0.7-3.6-1.8-7-3.4-10.2c-7.8,3.9-12.9,10.1-12.9,17.1c0,11.7,14.2,21.2,31.8,21.2  c17.6,0,31.8-9.5,31.8-21.2C148.3,323.5,140.1,315.9,128.4,312.7"/>
<path class="st0" d="M127.1,332.4c0-17.6-7.1-33.4-18.6-44.9c-2.5-2.4-5.8-3.4-9-3l0.7,0.8c2.5,2.5,2.5,6.5,0,9  c-2.5,2.5-6.5,2.5-9,0c0,0,0,0,0,0l-0.7-0.7c-0.5,3.2,0.5,6.5,3,9c7.7,7.7,12.4,18.3,12.4,30c0,3.5,4.7,6.4,10.6,6.4  C122.3,338.7,127.1,335.9,127.1,332.4"/>
<path class="st2" d="M479,267.4l-3.7,7.8c-2.5-1.3-5.5-2.1-8.1-2.1c-9,0-14.2,5.9-14.2,15.9v20.9h-8.6v-21.5  c0-13.7,8.2-23.6,22.7-23.6C471.2,264.8,475.4,265.7,479,267.4"/>
<path class="st2" d="M523.3,286.6v-20.9h8.6v21.5c0,13.7-8.7,23.6-23.7,23.6c-15.1,0-23.8-9.9-23.8-23.6v-21.5h8.6v20.9  c0,9.9,5.6,15.9,15.2,15.9C517.8,302.4,523.3,296.5,523.3,286.6"/>
<path class="st2" d="M548.6,288.9v21H540v-21.5c0-13.7,8.7-23.6,23.8-23.6c15,0,23.7,9.9,23.7,23.6v21.5h-8.6v-21  c0-9.9-5.5-15.9-15.1-15.9C554.3,273,548.6,278.9,548.6,288.9"/>
<path class="st2" d="M605.2,288.9v21h-8.6v-21.5c0-13.7,8.7-23.6,23.8-23.6c15,0,23.7,9.9,23.7,23.6v21.5h-8.6v-21  c0-9.9-5.5-15.9-15.1-15.9C610.8,273,605.2,278.9,605.2,288.9"/>
<rect x="653.6" y="265.7" class="st2" width="8.6" height="44.2"/>
<path class="st2" d="M708.7,296.7l5.5,6c-5.9,5.7-12.1,8-20,8c-14.2,0-24.5-9.3-24.5-23c0-13.7,10.3-23,24.5-23  c7.6,0,13.7,2,19.1,6.5l-5.4,6.5c-4.2-3.3-8.1-4.8-13.7-4.8c-8.7,0-15.7,5.3-15.7,14.8c0,9.4,6.9,14.8,15.7,14.8  C699.7,302.5,704.6,300.6,708.7,296.7"/>
<path class="st2" d="M742.2,264.8c7.7,0,14.4,1.9,20.3,6.3l-5.6,6.3c-4-3-9.1-4.5-14.6-4.5c-5.5,0-11.8,1.9-11.8,5.9  c0,3.4,3.3,4.3,7.6,4.3h9.5c9.6,0,16.7,3.2,16.7,12.6c0,10-10.1,15.1-22.3,15.1c-8.5,0-16.7-2.5-23.3-8.7l6.2-6.6  c3.9,3.9,9.5,7.1,16.9,7.1c5.8,0,13.6-1.7,13.6-6.8c0-3.7-3.5-4.3-8.7-4.3h-7.4c-8.4,0-17.7-1.5-17.7-12.5  C721.6,269.4,732.4,264.8,742.2,264.8"/>
<path class="st0" d="M757.4,353.2V336h4v-2.7h-4v-1.5c0-2.5,1.1-3.9,3.2-3.9c1,0,1.8,0.4,2.4,0.9l1.3-2c-1.2-1.2-2.6-1.5-4.2-1.5  c-3.5,0-5.8,2.4-5.8,6.5v1.5h-3.3v2.7h3.3v17.1H757.4z M748,353.2v-27.4h-3.1v27.4H748z M737.5,341.9h-13c0.2-3,2.3-6.6,6.5-6.6  C735.5,335.4,737.4,339,737.5,341.9z M731.4,353.7c3.2,0,5.9-1.1,7.9-3.1l-1.5-2c-1.6,1.6-3.9,2.5-6.2,2.5c-4.3,0-6.9-3.1-7.1-6.9  h16v-0.8c0-6-3.5-10.6-9.5-10.6c-5.7,0-9.8,4.6-9.8,10.4C721.2,349.4,725.4,353.7,731.4,353.7z M710.2,353.7c5.1,0,7.8-2.7,7.8-6  c0-7.7-12.3-4.9-12.3-9.2c0-1.8,1.7-3.1,4.4-3.1c2.6,0,4.7,1.1,5.9,2.5l1.4-2.1c-1.6-1.6-3.9-2.9-7.4-2.9c-4.7,0-7.4,2.6-7.4,5.7  c0,7.4,12.3,4.4,12.3,9.2c0,2-1.7,3.4-4.7,3.4c-2.7,0-5.2-1.3-6.5-2.8l-1.6,2.2C704.2,352.6,706.9,353.7,710.2,353.7z M694,353.2  v-14.1c0.9-1.6,3.5-3.2,5.4-3.2c0.5,0,0.8,0,1.2,0.1v-3.2c-2.7,0-5,1.6-6.6,3.6v-3.2h-3.1v19.9H694z M685.4,353.2v-19.9h-3.1v14.6  c-1.2,1.6-3.5,3-5.8,3c-2.7,0-4.5-1-4.5-4.5v-13.1h-3.1v14c0,4.3,2.2,6.3,6.3,6.3c3,0,5.6-1.6,7.1-3.3v2.8H685.4z M654.7,350.9  c-4.2,0-6.6-3.6-6.6-7.7c0-4,2.3-7.6,6.6-7.6c4.2,0,6.6,3.6,6.6,7.6C661.3,347.3,659,350.9,654.7,350.9z M654.7,353.7  c6,0,9.8-4.7,9.8-10.4c0-5.8-3.8-10.4-9.8-10.4s-9.8,4.6-9.8,10.4C644.9,349,648.7,353.7,654.7,353.7z M625.5,360.9  c0.5,0.2,1.6,0.3,2.2,0.3c2.6,0,4.6-1.2,5.8-4l10-23.9h-3.3l-6.6,16.3l-6.6-16.3h-3.4l8.3,20.1l-1.3,3c-0.7,1.6-1.6,2.1-3,2.1  c-0.5,0-1.2-0.1-1.7-0.3L625.5,360.9z M608.9,341.9h-13c0.2-3,2.3-6.6,6.5-6.6C606.9,335.4,608.9,339,608.9,341.9z M602.8,353.7  c3.2,0,5.9-1.1,7.9-3.1l-1.5-2c-1.6,1.6-3.9,2.5-6.2,2.5c-4.3,0-6.9-3.1-7.1-6.9h16v-0.8c0-6-3.5-10.6-9.5-10.6  c-5.7,0-9.8,4.6-9.8,10.4C592.7,349.4,596.9,353.7,602.8,353.7z M579.3,350.7c-4,0-6.4-3.2-6.4-7.5c0-4.4,2.4-7.6,6.4-7.6  c2.4,0,4.8,1.5,5.9,3.2v8.7C584.1,349.2,581.7,350.7,579.3,350.7z M578.8,361.2c4.9,0,9.5-2.1,9.5-8.3v-19.6h-3.1v3  c-1.6-2.2-4-3.5-6.7-3.5c-5.2,0-8.8,3.9-8.8,10.3c0,6.4,3.7,10.3,8.8,10.3c2.8,0,5.2-1.5,6.7-3.5v3c0,4.2-3.1,5.8-6.4,5.8  c-2.8,0-4.8-0.7-6.5-2.7l-1.6,2.2C573.2,360.6,575.5,361.2,578.8,361.2z M565.2,353.2v-13.9c0-4.3-2.2-6.4-6.3-6.4  c-3,0-5.7,1.7-7.1,3.4v-2.9h-3.1v19.9h3.1v-14.5c1.2-1.6,3.5-3.1,5.9-3.1c2.7,0,4.5,1.1,4.5,4.6v13H565.2z M541.4,341.9h-13  c0.2-3,2.3-6.6,6.5-6.6C539.4,335.4,541.3,339,541.4,341.9z M535.2,353.7c3.2,0,5.9-1.1,7.9-3.1l-1.5-2c-1.6,1.6-3.9,2.5-6.2,2.5  c-4.3,0-6.9-3.1-7.1-6.9h16v-0.8c0-6-3.5-10.6-9.5-10.6c-5.7,0-9.8,4.6-9.8,10.4C525.1,349.4,529.3,353.7,535.2,353.7z M520.7,353.2  v-27.4h-3.1v27.4H520.7z M512.1,353.2v-27.4H509v27.4H512.1z M494.9,351.4c-2.9,0-4.9-1.8-4.9-4.4c0-2.5,2-4.3,4.9-4.3  c2.1,0,4.2,0.8,5.4,2.4v3.8C499.2,350.6,497.1,351.4,494.9,351.4z M503.4,353.2v-13.7c0-4.8-3.5-6.7-7.7-6.7c-3.2,0-5.8,1.1-7.9,3.3  l1.4,2.1c1.8-1.9,3.7-2.8,6.1-2.8c2.9,0,5,1.5,5,4.2v3.6c-1.6-1.8-3.9-2.7-6.6-2.7c-3.4,0-6.9,2.1-6.9,6.5c0,4.3,3.6,6.6,6.9,6.6  c2.7,0,5-0.9,6.6-2.8v2.3H503.4z M482.4,353.2v-14c0-4.3-2.2-6.3-6.3-6.3c-3,0-5.7,1.7-7.1,3.4v-10.4h-3.1v27.4h3.1v-14.5  c1.2-1.6,3.5-3.1,5.8-3.1c2.7,0,4.5,1,4.5,4.5v13.1H482.4z M454.9,353.7c3.6,0,5.8-1.5,7.3-3.5l-2.1-1.9c-1.3,1.8-3,2.6-5.1,2.6  c-4.2,0-6.9-3.3-6.9-7.7c0-4.4,2.7-7.6,6.9-7.6c2.1,0,3.7,0.7,5.1,2.5l2.1-1.9c-1.5-2-3.7-3.5-7.3-3.5c-5.9,0-9.9,4.5-9.9,10.4  C445,349.1,449,353.7,454.9,353.7z"/>
</svg>
