<?xml version="1.0" encoding="UTF-8"?>
<svg class="runnincslogo" viewBox="0 0 688 128" version="1.1" xmlns="http://www.w3.org/2000/svg" xmlns:xlink="http://www.w3.org/1999/xlink">
    <!-- Generator: Sketch 43.1 (39012) - http://www.bohemiancoding.com/sketch -->
    <title>runnics-logo</title>
    <desc>Created with Sketch.</desc>
    <defs></defs>
    <style type="text/css">
    	.runnincslogo path,.runnincslogo rect{fill:#212121;}
    </style>
    <g id="Page-1" stroke="none" stroke-width="1" fill="none" fill-rule="evenodd">
        <g id="Artboard" transform="translate(-4.000000, -6.000000)" fill-rule="nonzero">
            <g id="runnics-logo" transform="translate(4.000000, 6.000000)">
                <path d="M231.1,98.4 C231.1,63.3 202.6,34.8 167.5,34.8 C132.4,34.8 103.9,63.3 103.9,98.4 L103.9,98.4 C103.9,101.9 108.6,104.8 114.5,104.8 C120.4,104.8 125.1,102 125.1,98.4 L125.1,98.4 C125.1,75 144.1,56 167.5,56 C190.9,56 209.9,75 209.9,98.4 L209.9,98.4 L209.9,98.4 C209.9,101.9 214.6,104.8 220.5,104.8 C226.3,104.7 231.1,101.9 231.1,98.4 L231.1,98.4" id="Shape" fill="#6BE600"></path>
                <path d="M133.4,81.3 C131.8,84.5 130.6,87.9 130,91.5 C132.3,93.4 133.6,95.8 133.6,98.3 C133.6,104.7 125.1,110 114.5,110 C104,110 95.4,104.8 95.4,98.3 C95.4,95.4 97.2,92.7 100.1,90.7 C100.6,86.6 101.4,82.6 102.6,78.7 C91,81.8 82.8,89.4 82.8,98.3 C82.8,110 97,119.5 114.6,119.5 C132.2,119.5 146.4,110 146.4,98.3 C146.3,91.4 141.2,85.2 133.4,81.3" id="Shape" fill="#DBDBDB"></path>
                <path d="M232.4,78.7 C233.6,82.6 234.4,86.6 234.9,90.7 C237.8,92.7 239.6,95.4 239.6,98.3 C239.6,104.7 231.1,110 220.5,110 C210,110 201.4,104.8 201.4,98.3 C201.4,95.7 202.7,93.4 205,91.5 C204.3,87.9 203.2,84.5 201.6,81.3 C193.8,85.2 188.7,91.4 188.7,98.4 C188.7,110.1 202.9,119.6 220.5,119.6 C238.1,119.6 252.3,110.1 252.3,98.4 C252.2,89.5 244,81.9 232.4,78.7" id="Shape" fill="#DBDBDB"></path>
                <path d="M337,22 L336.3,22.7 L336.3,22.7 C333.8,25.2 329.8,25.2 327.3,22.7 C324.8,20.2 324.8,16.2 327.3,13.7 L328.1,12.9 C324.9,12.4 321.6,13.4 319.1,15.9 L319.1,15.9 C298,37 285,66.1 285,98.3 C285,101.8 289.7,104.7 295.6,104.7 C301.5,104.7 306.2,101.9 306.2,98.3 L306.2,98.3 C306.2,72 316.9,48.1 334.1,30.9 C336.5,28.5 337.5,25.1 337,22" id="Shape" fill="#6BE600"></path>
                <path d="M349,1 C347.8,-0.2 345.7,-0.2 344.5,1 L329.5,16 L329.5,16 C328.3,17.2 328.3,19.3 329.5,20.5 C330.7,21.7 332.8,21.7 334,20.5 L334,20.5 L349,5.5 C350.2,4.2 350.2,2.2 349,1" id="Shape" fill="#959595"></path>
                <path d="M312.1,80.3 C311.4,83.9 310.9,87.5 310.6,91.2 C313.1,93.2 314.6,95.6 314.6,98.3 C314.6,104.7 306.1,110 295.5,110 C285,110 276.4,104.8 276.4,98.3 C276.4,95.4 278.1,92.8 280.9,90.8 C281.1,86.8 281.6,82.9 282.2,79.1 C271.3,82.5 263.7,89.8 263.7,98.3 C263.7,110 277.9,119.5 295.5,119.5 C313.1,119.5 327.3,110 327.3,98.3 C327.3,90.7 321.2,84 312.1,80.3" id="Shape" fill="#DBDBDB"></path>
                <path d="M21,53.4 L21,53.4 L6,38.4 C4.8,37.2 2.7,37.2 1.5,38.4 C0.3,39.6 0.3,41.7 1.5,42.9 L16.5,57.9 L16.5,57.9 C17.7,59.1 19.8,59.1 21,57.9 C22.2,56.7 22.2,54.7 21,53.4" id="Shape" fill="#959595"></path>
                <path d="M51.4,78.7 C52.6,82.6 53.4,86.6 53.9,90.7 C56.8,92.7 58.6,95.4 58.6,98.3 C58.6,104.7 50.1,110 39.5,110 C29,110 20.4,104.8 20.4,98.3 C20.4,95.7 21.7,93.4 24,91.5 C23.3,87.9 22.2,84.5 20.6,81.3 C12.8,85.2 7.7,91.4 7.7,98.4 C7.7,110.1 21.9,119.6 39.5,119.6 C57.1,119.6 71.3,110.1 71.3,98.4 C71.3,89.5 63.1,81.9 51.4,78.7" id="Shape" fill="#DBDBDB"></path>
                <path d="M50.1,98.4 C50.1,80.8 43,65 31.5,53.5 C29,51.1 25.7,50.1 22.5,50.5 L23.2,51.3 C25.7,53.8 25.7,57.8 23.2,60.3 C20.7,62.8 16.7,62.8 14.2,60.3 L14.2,60.3 L13.5,59.6 C13,62.8 14,66.1 16.5,68.6 C24.2,76.3 28.9,86.9 28.9,98.6 C28.9,102.1 33.6,105 39.5,105 C45.3,104.7 50.1,101.9 50.1,98.4" id="Shape" fill="#6BE600"></path>
                <path d="M402,33.4 L398.3,41.2 C395.8,39.9 392.8,39.1 390.2,39.1 C381.2,39.1 376,45 376,55 L376,75.9 L367.4,75.9 L367.4,54.4 C367.4,40.7 375.6,30.8 390.1,30.8 C394.2,30.8 398.4,31.7 402,33.4" id="Shape" fill="#959595"></path>
                <path d="M446.3,52.6 L446.3,31.7 L454.9,31.7 L454.9,53.2 C454.9,66.9 446.2,76.8 431.2,76.8 C416.1,76.8 407.4,66.9 407.4,53.2 L407.4,31.7 L416,31.7 L416,52.6 C416,62.5 421.6,68.5 431.2,68.5 C440.8,68.4 446.3,62.5 446.3,52.6" id="Shape" fill="#959595"></path>
                <path d="M471.6,54.9 L471.6,75.9 L463,75.9 L463,54.4 C463,40.7 471.7,30.8 486.8,30.8 C501.8,30.8 510.5,40.7 510.5,54.4 L510.5,75.9 L501.9,75.9 L501.9,54.9 C501.9,45 496.4,39 486.8,39 C477.3,39 471.6,44.9 471.6,54.9" id="Shape" fill="#959595"></path>
                <path d="M528.2,54.9 L528.2,75.9 L519.6,75.9 L519.6,54.4 C519.6,40.7 528.3,30.8 543.4,30.8 C558.4,30.8 567.1,40.7 567.1,54.4 L567.1,75.9 L558.5,75.9 L558.5,54.9 C558.5,45 553,39 543.4,39 C533.8,39 528.2,44.9 528.2,54.9" id="Shape" fill="#959595"></path>
                <rect id="Rectangle-path" fill="#959595" x="576.6" y="31.7" width="8.6" height="44.2"></rect>
                <path d="M631.7,62.7 L637.2,68.7 C631.3,74.4 625.1,76.7 617.2,76.7 C603,76.7 592.7,67.4 592.7,53.7 C592.7,40 603,30.7 617.2,30.7 C624.8,30.7 630.9,32.7 636.3,37.2 L630.9,43.7 C626.7,40.4 622.8,38.9 617.2,38.9 C608.5,38.9 601.5,44.2 601.5,53.7 C601.5,63.1 608.4,68.5 617.2,68.5 C622.7,68.5 627.6,66.6 631.7,62.7" id="Shape" fill="#959595"></path>
                <path d="M665.2,30.8 C672.9,30.8 679.6,32.7 685.5,37.1 L679.9,43.4 C675.9,40.4 670.8,38.9 665.3,38.9 C659.8,38.9 653.5,40.8 653.5,44.8 C653.5,48.2 656.8,49.1 661.1,49.1 L670.6,49.1 C680.2,49.1 687.3,52.3 687.3,61.7 C687.3,71.7 677.2,76.8 665,76.8 C656.5,76.8 648.3,74.3 641.7,68.1 L647.9,61.5 C651.8,65.4 657.4,68.6 664.8,68.6 C670.6,68.6 678.4,66.9 678.4,61.8 C678.4,58.1 674.9,57.5 669.7,57.5 L662.3,57.5 C653.9,57.5 644.6,56 644.6,45 C644.6,35.4 655.4,30.8 665.2,30.8" id="Shape" fill="#959595"></path>
                <path d="M680.4,119.2 L680.4,102 L684.4,102 L684.4,99.3 L680.4,99.3 L680.4,97.8 C680.4,95.3 681.5,93.9 683.6,93.9 C684.6,93.9 685.4,94.3 686,94.8 L687.3,92.8 C686.1,91.6 684.7,91.3 683.1,91.3 C679.6,91.3 677.3,93.7 677.3,97.8 L677.3,99.3 L674,99.3 L674,102 L677.3,102 L677.3,119.1 L680.4,119.1 L680.4,119.2 Z M671,119.2 L671,91.8 L667.9,91.8 L667.9,119.2 L671,119.2 Z M660.5,107.9 L647.5,107.9 C647.7,104.9 649.8,101.3 654,101.3 C658.5,101.4 660.4,105 660.5,107.9 Z M654.4,119.7 C657.6,119.7 660.3,118.6 662.3,116.6 L660.8,114.6 C659.2,116.2 656.9,117.1 654.6,117.1 C650.3,117.1 647.7,114 647.5,110.2 L663.5,110.2 L663.5,109.4 C663.5,103.4 660,98.8 654,98.8 C648.3,98.8 644.2,103.4 644.2,109.2 C644.2,115.4 648.4,119.7 654.4,119.7 Z M633.2,119.7 C638.3,119.7 641,117 641,113.7 C641,106 628.7,108.8 628.7,104.5 C628.7,102.7 630.4,101.4 633.1,101.4 C635.7,101.4 637.8,102.5 639,103.9 L640.4,101.8 C638.8,100.2 636.5,98.9 633,98.9 C628.3,98.9 625.6,101.5 625.6,104.6 C625.6,112 637.9,109 637.9,113.8 C637.9,115.8 636.2,117.2 633.2,117.2 C630.5,117.2 628,115.9 626.7,114.4 L625.1,116.6 C627.2,118.6 629.9,119.7 633.2,119.7 Z M617,119.2 L617,105.1 C617.9,103.5 620.5,101.9 622.4,101.9 C622.9,101.9 623.2,101.9 623.6,102 L623.6,98.8 C620.9,98.8 618.6,100.4 617,102.4 L617,99.2 L613.9,99.2 L613.9,119.1 L617,119.1 L617,119.2 Z M608.4,119.2 L608.4,99.3 L605.3,99.3 L605.3,113.9 C604.1,115.5 601.8,116.9 599.5,116.9 C596.8,116.9 595,115.9 595,112.4 L595,99.3 L591.9,99.3 L591.9,113.3 C591.9,117.6 594.1,119.6 598.2,119.6 C601.2,119.6 603.8,118 605.3,116.3 L605.3,119.1 L608.4,119.1 L608.4,119.2 Z M577.7,116.9 C573.5,116.9 571.1,113.3 571.1,109.2 C571.1,105.2 573.4,101.6 577.7,101.6 C581.9,101.6 584.3,105.2 584.3,109.2 C584.3,113.3 582,116.9 577.7,116.9 Z M577.7,119.7 C583.7,119.7 587.5,115 587.5,109.3 C587.5,103.5 583.7,98.9 577.7,98.9 C571.7,98.9 567.9,103.5 567.9,109.3 C567.9,115 571.7,119.7 577.7,119.7 Z M548.5,126.9 C549,127.1 550.1,127.2 550.7,127.2 C553.3,127.2 555.3,126 556.5,123.2 L566.5,99.3 L563.2,99.3 L556.6,115.6 L550,99.3 L546.6,99.3 L554.9,119.4 L553.6,122.4 C552.9,124 552,124.5 550.6,124.5 C550.1,124.5 549.4,124.4 548.9,124.2 L548.5,126.9 Z M531.9,107.9 L518.9,107.9 C519.1,104.9 521.2,101.3 525.4,101.3 C529.9,101.4 531.9,105 531.9,107.9 Z M525.8,119.7 C529,119.7 531.7,118.6 533.7,116.6 L532.2,114.6 C530.6,116.2 528.3,117.1 526,117.1 C521.7,117.1 519.1,114 518.9,110.2 L534.9,110.2 L534.9,109.4 C534.9,103.4 531.4,98.8 525.4,98.8 C519.7,98.8 515.6,103.4 515.6,109.2 C515.7,115.4 519.9,119.7 525.8,119.7 Z M502.3,116.7 C498.3,116.7 495.9,113.5 495.9,109.2 C495.9,104.8 498.3,101.6 502.3,101.6 C504.7,101.6 507.1,103.1 508.2,104.8 L508.2,113.5 C507.1,115.2 504.7,116.7 502.3,116.7 Z M501.8,127.2 C506.7,127.2 511.3,125.1 511.3,118.9 L511.3,99.3 L508.2,99.3 L508.2,102.3 C506.6,100.1 504.2,98.8 501.5,98.8 C496.3,98.8 492.7,102.7 492.7,109.1 C492.7,115.5 496.4,119.4 501.5,119.4 C504.3,119.4 506.7,117.9 508.2,115.9 L508.2,118.9 C508.2,123.1 505.1,124.7 501.8,124.7 C499,124.7 497,124 495.3,122 L493.7,124.2 C496.2,126.6 498.5,127.2 501.8,127.2 Z M488.2,119.2 L488.2,105.3 C488.2,101 486,98.9 481.9,98.9 C478.9,98.9 476.2,100.6 474.8,102.3 L474.8,99.4 L471.7,99.4 L471.7,119.3 L474.8,119.3 L474.8,104.8 C476,103.2 478.3,101.7 480.7,101.7 C483.4,101.7 485.2,102.8 485.2,106.3 L485.2,119.3 L488.2,119.3 L488.2,119.2 Z M464.4,107.9 L451.4,107.9 C451.6,104.9 453.7,101.3 457.9,101.3 C462.4,101.4 464.3,105 464.4,107.9 Z M458.2,119.7 C461.4,119.7 464.1,118.6 466.1,116.6 L464.6,114.6 C463,116.2 460.7,117.1 458.4,117.1 C454.1,117.1 451.5,114 451.3,110.2 L467.3,110.2 L467.3,109.4 C467.3,103.4 463.8,98.8 457.8,98.8 C452.1,98.8 448,103.4 448,109.2 C448.1,115.4 452.3,119.7 458.2,119.7 Z M443.7,119.2 L443.7,91.8 L440.6,91.8 L440.6,119.2 L443.7,119.2 Z M435.1,119.2 L435.1,91.8 L432,91.8 L432,119.2 L435.1,119.2 Z M417.9,117.4 C415,117.4 413,115.6 413,113 C413,110.5 415,108.7 417.9,108.7 C420,108.7 422.1,109.5 423.3,111.1 L423.3,114.9 C422.2,116.6 420.1,117.4 417.9,117.4 Z M426.4,119.2 L426.4,105.5 C426.4,100.7 422.9,98.8 418.7,98.8 C415.5,98.8 412.9,99.9 410.8,102.1 L412.2,104.2 C414,102.3 415.9,101.4 418.3,101.4 C421.2,101.4 423.3,102.9 423.3,105.6 L423.3,109.2 C421.7,107.4 419.4,106.5 416.7,106.5 C413.3,106.5 409.8,108.6 409.8,113 C409.8,117.3 413.4,119.6 416.7,119.6 C419.4,119.6 421.7,118.7 423.3,116.8 L423.3,119.1 L426.4,119.1 L426.4,119.2 Z M405.4,119.2 L405.4,105.2 C405.4,100.9 403.2,98.9 399.1,98.9 C396.1,98.9 393.4,100.6 392,102.3 L392,91.9 L388.9,91.9 L388.9,119.3 L392,119.3 L392,104.8 C393.2,103.2 395.5,101.7 397.8,101.7 C400.5,101.7 402.3,102.7 402.3,106.2 L402.3,119.3 L405.4,119.3 L405.4,119.2 Z M377.9,119.7 C381.5,119.7 383.7,118.2 385.2,116.2 L383.1,114.3 C381.8,116.1 380.1,116.9 378,116.9 C373.8,116.9 371.1,113.6 371.1,109.2 C371.1,104.8 373.8,101.6 378,101.6 C380.1,101.6 381.7,102.3 383.1,104.1 L385.2,102.2 C383.7,100.2 381.5,98.7 377.9,98.7 C372,98.7 368,103.2 368,109.1 C368,115.1 372,119.7 377.9,119.7 Z" id="Shape" fill="#6BE600"></path>
            </g>
        </g>
    </g>
</svg>
