<svg xmlns="http://www.w3.org/2000/svg" viewBox="1.208 339.579 425.562 126.49"><path fill="#555" d="M276.599 386.066c-.383-8.189-2.713-13.613-6.59-18.484-3.927-4.799-11.233-8.834-19.849-8.834s-15.923 4.035-19.849 8.834c-3.878 4.871-6.208 10.296-6.59 18.486l-.013.268c-.029.71-.049 1.434-.049 2.185 0 9.6 2.399 15.598 6.652 20.941 3.926 4.799 11.232 8.834 19.849 8.834 8.615 0 15.922-4.035 19.849-8.834 4.253-5.344 6.652-11.342 6.652-20.941 0-.752-.02-1.475-.049-2.184l-.013-.271zm-17.823 16.744c-1.854 1.963-4.907 3.6-8.615 3.6s-6.763-1.637-8.616-3.6c-3.271-3.6-4.034-8.943-4.034-14.289 0-.744.016-1.488.051-2.227l.001-.029c.036-.738.09-1.471.169-2.195.406-3.748 1.457-7.244 3.812-9.834 1.854-1.965 4.908-3.6 8.616-3.6 3.708 0 6.762 1.635 8.615 3.6 2.356 2.59 3.407 6.086 3.814 9.834.079.725.133 1.457.169 2.195l.001.029c.035.738.051 1.483.051 2.227.001 5.346-.762 10.69-4.034 14.289zm78.544-16.744c-.383-8.189-2.713-13.613-6.59-18.484-3.927-4.799-11.233-8.834-19.849-8.834s-15.923 4.035-19.849 8.834c-3.878 4.871-6.207 10.296-6.59 18.486l-.013.268c-.029.71-.049 1.434-.049 2.185 0 9.6 2.398 15.598 6.652 20.941 3.926 4.799 11.232 8.834 19.849 8.834 8.615 0 15.922-4.035 19.849-8.834 4.253-5.344 6.652-11.342 6.652-20.941 0-.752-.02-1.475-.049-2.184l-.013-.271zm-17.824 16.744c-1.854 1.963-4.907 3.6-8.615 3.6s-6.763-1.637-8.616-3.6c-3.271-3.6-4.034-8.943-4.034-14.289 0-.744.016-1.488.051-2.227l.001-.029c.036-.738.09-1.471.169-2.195.406-3.748 1.458-7.244 3.812-9.834 1.854-1.965 4.908-3.6 8.616-3.6s6.762 1.635 8.615 3.6c2.356 2.59 3.407 6.086 3.814 9.834.079.725.133 1.457.169 2.195l.001.029c.035.738.051 1.483.051 2.227.001 5.346-.761 10.69-4.034 14.289zm-216.96-18.763v6.134c0 4.581-.872 9.706-4.145 12.759-1.635 1.637-3.816 2.836-6.979 2.836-1.365 0-2.563-.149-3.612-.435-4.483-1.226-6.203-4.969-6.203-10.361v-34.79H67.965v37.845c0 12.105 7.524 20.285 19.63 20.285l.219-.001c7.108-.065 13.332-3.327 16.031-8.833l.981 7.416h11.343V360.19h-13.633v23.857zm106.185-23.798c-4.35 1.239-8.122 3.936-9.926 8.447l-1.2-8.508h-11.56v56.711h13.741v-28.575c0-7.142 3.051-12.893 8.944-15.08 1.664-.618 3.556-.95 5.669-.95 1.527 0 3.163.219 4.689.545v-13.086a27.805 27.805 0 0 0-4.253-.326c-2.066-.001-4.144.262-6.104.822zm199.411-1.479c-7.634 0-13.741 3.381-17.121 9.273-2.744-5.594-7.933-9.043-15.478-9.262-.819-.007-.515-.011-.772-.011-7.525 0-12.979 3.709-16.141 8.944l-1.092-7.526h-11.342V416.9h13.523v-30.973c0-7.088 3.49-15.271 11.234-15.271 1.87 0 2.83.3 4.586.877v.001c2.891 1.089 4.138 5.061 4.138 10.139V416.9h13.525v-30.972c0-7.088 3.38-15.27 11.124-15.27 6.871 0 8.739 4.037 8.739 11.016v2.373h-.015V416.9h13.522v-38.279c0-11.781-6.325-19.851-18.43-19.851zm-252.384-.021h-.219v.001c-7.108.066-13.332 3.328-16.03 8.834l-.981-7.416h-11.344v56.711h13.633v-29.992c0-4.58.873-9.705 4.145-12.758 1.635-1.637 3.816-2.836 6.98-2.836 1.364 0 2.564.148 3.612.435a8.88 8.88 0 0 1 1.201.425l.127.055c.379.171.736.362 1.066.577 2.71 1.764 3.808 5.008 3.808 9.304v1.958h-.001v32.831h13.633v-37.844c0-12.106-7.524-20.285-19.63-20.285zm-95.037 4.899l-.002-.055.002-.055c0-12.415-8.386-23.96-26.789-23.96H1.365V416.9h14.201l-.001-29.293h17.15L45.468 416.9h15.247l-14.048-31.615c9.57-3.984 14.044-12.575 14.044-21.637zm-45.146-11.763h18.357c7.949 0 12.74 5.445 12.74 11.653v.109c0 6.205-4.791 11.652-12.74 11.652H15.565v-23.414zm.371 104.294c-1.458 1.52-3.659 2.356-6.17 2.356H1.208v-21.983h8.558c2.512 0 4.713.838 6.17 2.356 2.263 2.325 2.574 5.581 2.574 8.62 0 3.038-.311 6.326-2.574 8.651zm-3.07-14.79c-.744-.744-1.829-1.24-3.101-1.24H5.208v14.79h4.558c1.271 0 2.356-.496 3.101-1.24 1.551-1.551 1.582-4.154 1.582-6.17s-.032-4.59-1.583-6.14zm9.639-1.209v-4h4.155v4h-4.155zm.124 18.355v-16.123h3.938v16.123h-3.938zm15.532 7.534c-1.954 0-4.031-.154-5.705-1.333-1.24-.868-1.954-2.016-1.954-3.534 0-1.396.682-2.667 1.922-3.287-1.023-.559-1.612-1.705-1.612-2.76 0-1.364.62-2.449 1.922-3.256-.992-.992-1.612-2.325-1.612-3.969 0-3.844 2.977-5.922 6.604-5.922 1.333 0 2.604.372 3.659.992.682-1.395 1.922-2.016 3.286-2.016.248 0 .807 0 1.055.062v3.008c-.093 0-.217-.031-.311-.031-.899 0-1.705.248-1.953 1.023.527.868.837 1.829.837 2.914 0 3.689-3.101 5.86-6.573 5.86a8.024 8.024 0 0 1-2.604-.435c-.372.218-.806.621-.806 1.147 0 .962.961 1.179 1.767 1.179h2.667c1.612 0 3.721.031 5.24 1.085 1.395.961 1.953 2.325 1.953 3.876 0 4.251-4.185 5.397-7.782 5.397zm.279-7.286h-3.039c-.837.248-1.457.961-1.457 1.984 0 2.046 2.542 2.232 4.062 2.232 1.55 0 4.279-.093 4.279-2.232 0-1.984-2.388-1.984-3.845-1.984zm-.714-13.859c-1.767 0-2.853 1.271-2.853 3.007s1.085 2.977 2.853 2.977c1.768 0 2.853-1.24 2.853-2.977s-1.085-3.007-2.853-3.007zm11.346-4.744v-4h4.155v4h-4.155zm.124 18.355v-16.123h3.938v16.123h-3.938zm14.911.217c-3.255 0-4.868-1.86-4.868-4.961v-8.186h-2.946v-3.193h2.946v-4.093l3.875-.961v5.054h4.062v3.193h-4.062v7.845c0 1.24.559 1.768 1.799 1.768.806 0 1.457-.031 2.511-.155v3.256a13.189 13.189 0 0 1-3.317.433zm19.035.031c-1.674 0-2.604-1.054-2.729-2.264-.744 1.303-2.604 2.419-4.898 2.419-3.845 0-5.829-2.419-5.829-5.055 0-3.069 2.387-4.836 5.457-5.054l4.744-.341v-.992c0-1.52-.527-2.543-2.729-2.543-1.798 0-2.853.807-2.946 2.295h-3.751c.217-3.628 3.101-5.24 6.697-5.24 2.759 0 5.116.868 6.046 3.287.403 1.023.465 2.17.465 3.256v5.983c0 .744.248 1.023.899 1.023.248 0 .496-.062.496-.062v2.852c-.65.281-.991.436-1.922.436zm-3.255-7.41l-4.093.31c-1.178.094-2.326.807-2.326 2.108 0 1.24 1.085 2.016 2.295 2.016 2.418 0 4.124-1.302 4.124-3.689v-.745zm13.173 7.349c-2.635 0-4.402-1.271-4.402-4.342v-18.262h3.906v17.611c0 .93.217 1.55 1.551 1.55.341 0 .434-.03.651-.03v3.255c-.775.155-.93.218-1.706.218zm26.911-1.644c-1.705 1.302-3.752 1.488-5.86 1.488h-8.743v-22.015h8.743c1.768 0 3.597.248 5.085 1.209 1.612 1.055 2.543 2.884 2.543 4.775 0 1.799-.837 3.813-2.698 4.65 2.078.962 3.163 2.915 3.163 4.961-.001 1.956-.652 3.722-2.233 4.932zm-5.705-17.085h-4.93v5.52h5.022c1.799 0 3.318-.651 3.318-2.729 0-2.108-1.612-2.791-3.41-2.791zm.124 8.868h-5.054v6.108h4.93c1.86 0 3.876-.683 3.876-2.915-.001-2.356-1.644-3.193-3.752-3.193zm21.947 9.674l-.279-2.108c-.775 1.581-2.574 2.512-4.62 2.512-3.441 0-5.581-2.326-5.581-5.768v-10.759h3.876v9.891c0 1.892.744 3.069 2.79 3.069.899 0 1.52-.341 1.984-.806.931-.868 1.179-2.325 1.179-3.628v-8.526h3.875v16.123h-3.224zm19.499-1.457c-1.302 1.302-3.317 1.86-5.519 1.86-2.047 0-3.876-.59-5.209-1.86-.931-.899-1.706-2.232-1.706-3.752h3.627c0 .713.372 1.488.868 1.892.62.496 1.333.713 2.45.713 1.302 0 3.287-.279 3.287-2.047 0-.93-.62-1.55-1.612-1.705-1.426-.217-3.039-.31-4.465-.62-2.201-.465-3.689-2.263-3.689-4.31 0-1.644.682-2.791 1.643-3.628 1.178-1.022 2.883-1.612 4.899-1.612 1.922 0 3.876.62 5.054 1.892.868.931 1.427 2.14 1.427 3.317h-3.69c0-.62-.279-1.116-.651-1.52-.465-.465-1.303-.744-2.108-.744-.559 0-1.085 0-1.675.248-.682.279-1.24.869-1.24 1.706 0 1.147.992 1.488 1.86 1.612 1.458.186 1.86.217 3.442.465 2.542.403 4.403 2.016 4.403 4.558-.001 1.551-.559 2.698-1.396 3.535zm5.268-16.898v-4h4.155v4h-4.155zm.124 18.355v-16.123h3.938v16.123h-3.938zm18.974 0v-9.891c0-1.892-.62-3.039-2.667-3.039-1.364 0-2.264.868-2.791 2.047-.558 1.271-.527 2.945-.527 4.31v6.573h-3.876v-16.123h3.256l.279 2.077c.961-1.705 2.883-2.48 4.744-2.48 3.442 0 5.457 2.419 5.457 5.768v10.759h-3.875zm22.382-6.852h-10.79c-.031 1.24.403 2.419 1.179 3.163.558.526 1.333.992 2.387.992 1.116 0 1.798-.218 2.356-.775a2.93 2.93 0 0 0 .775-1.364h3.721c-.093.961-.744 2.232-1.364 2.977-1.364 1.612-3.379 2.264-5.426 2.264-2.201 0-3.813-.775-5.085-1.984-1.612-1.551-2.48-3.814-2.48-6.449 0-2.574.775-4.868 2.325-6.449 1.209-1.24 2.946-2.047 5.147-2.047 2.387 0 4.558.961 5.891 2.977 1.179 1.768 1.458 3.597 1.396 5.612a33.18 33.18 0 0 0-.032 1.083zm-4.837-5.643c-.527-.559-1.333-.931-2.449-.931-1.178 0-2.14.496-2.697 1.24-.559.714-.807 1.458-.837 2.512h6.976c-.032-1.209-.373-2.139-.993-2.821zm19.934 11.038c-1.303 1.302-3.317 1.86-5.52 1.86-2.046 0-3.875-.59-5.209-1.86-.93-.899-1.705-2.232-1.705-3.752h3.628c0 .713.372 1.488.868 1.892.62.496 1.333.713 2.449.713 1.303 0 3.287-.279 3.287-2.047 0-.93-.62-1.55-1.612-1.705-1.427-.217-3.039-.31-4.465-.62-2.202-.465-3.69-2.263-3.69-4.31 0-1.644.683-2.791 1.644-3.628 1.178-1.022 2.884-1.612 4.899-1.612 1.922 0 3.875.62 5.054 1.892.868.931 1.426 2.14 1.426 3.317h-3.689c0-.62-.279-1.116-.651-1.52-.465-.465-1.302-.744-2.108-.744-.558 0-1.085 0-1.674.248-.683.279-1.24.869-1.24 1.706 0 1.147.992 1.488 1.86 1.612 1.457.186 1.86.217 3.441.465 2.543.403 4.403 2.016 4.403 4.558-.001 1.551-.56 2.698-1.396 3.535zm16.46 0c-1.303 1.302-3.317 1.86-5.52 1.86-2.046 0-3.875-.59-5.209-1.86-.93-.899-1.705-2.232-1.705-3.752h3.628c0 .713.372 1.488.868 1.892.62.496 1.333.713 2.449.713 1.303 0 3.287-.279 3.287-2.047 0-.93-.62-1.55-1.612-1.705-1.427-.217-3.039-.31-4.465-.62-2.202-.465-3.69-2.263-3.69-4.31 0-1.644.683-2.791 1.644-3.628 1.179-1.022 2.884-1.612 4.899-1.612 1.922 0 3.875.62 5.054 1.892.868.931 1.426 2.14 1.426 3.317h-3.689c0-.62-.279-1.116-.651-1.52-.465-.465-1.302-.744-2.108-.744-.558 0-1.085 0-1.674.248-.683.279-1.24.869-1.24 1.706 0 1.147.992 1.488 1.86 1.612 1.457.186 1.86.217 3.441.465 2.543.403 4.403 2.016 4.403 4.558 0 1.551-.559 2.698-1.396 3.535zm26.196-.744c-1.644 1.674-3.938 2.604-6.294 2.604s-4.558-.775-6.232-2.449c-2.388-2.388-2.729-5.334-2.729-8.93 0-3.598.341-6.543 2.729-8.93 1.675-1.675 3.876-2.48 6.232-2.48s4.65.867 6.294 2.542c1.271 1.302 1.923 3.038 2.108 4.774h-4.093c-.093-.961-.434-1.643-.992-2.325-.713-.899-1.953-1.364-3.317-1.364a4.645 4.645 0 0 0-3.38 1.457c-1.52 1.582-1.52 4.311-1.52 6.326 0 2.015 0 4.743 1.52 6.324a4.64 4.64 0 0 0 3.38 1.458c1.364 0 2.604-.496 3.317-1.396a4.338 4.338 0 0 0 .992-2.418h4.093c-.185 1.738-.837 3.504-2.108 4.807zm17.762.093c-1.116 1.364-3.193 2.512-5.643 2.512s-4.527-1.147-5.644-2.512c-1.209-1.52-1.891-3.225-1.891-5.953s.682-4.434 1.891-5.953c1.116-1.364 3.194-2.512 5.644-2.512s4.526 1.147 5.643 2.512c1.21 1.52 1.892 3.225 1.892 5.953s-.683 4.433-1.892 5.953zm-3.194-10.015c-.527-.559-1.396-1.023-2.449-1.023-1.055 0-1.923.465-2.449 1.023-.931 1.022-1.147 2.542-1.147 4.062s.217 3.039 1.147 4.062c.526.559 1.395 1.023 2.449 1.023 1.054 0 1.922-.465 2.449-1.023.931-1.022 1.147-2.542 1.147-4.062s-.216-3.039-1.147-4.062zm18.973 12.123v-9.891c0-1.892-.62-3.039-2.667-3.039-1.364 0-2.264.868-2.79 2.047-.559 1.271-.527 2.945-.527 4.31v6.573h-3.876v-16.123h3.256l.279 2.077c.961-1.705 2.883-2.48 4.743-2.48 3.442 0 5.457 2.419 5.457 5.768v10.759h-3.875zm19.901-1.457c-1.303 1.302-3.317 1.86-5.52 1.86-2.046 0-3.875-.59-5.209-1.86-.93-.899-1.705-2.232-1.705-3.752h3.628c0 .713.372 1.488.868 1.892.62.496 1.333.713 2.449.713 1.303 0 3.287-.279 3.287-2.047 0-.93-.62-1.55-1.612-1.705-1.427-.217-3.039-.31-4.465-.62-2.202-.465-3.69-2.263-3.69-4.31 0-1.644.683-2.791 1.644-3.628 1.179-1.022 2.884-1.612 4.899-1.612 1.922 0 3.875.62 5.054 1.892.868.931 1.426 2.14 1.426 3.317h-3.689c0-.62-.279-1.116-.651-1.52-.465-.465-1.302-.744-2.108-.744-.558 0-1.085 0-1.674.248-.683.279-1.24.869-1.24 1.706 0 1.147.992 1.488 1.86 1.612 1.457.186 1.86.217 3.441.465 2.543.403 4.403 2.016 4.403 4.558 0 1.551-.559 2.698-1.396 3.535zm15.562 1.457l-.279-2.108c-.774 1.581-2.573 2.512-4.619 2.512-3.442 0-5.581-2.326-5.581-5.768v-10.759h3.875v9.891c0 1.892.744 3.069 2.791 3.069.899 0 1.52-.341 1.984-.806.93-.868 1.178-2.325 1.178-3.628v-8.526h3.876v16.123h-3.225zm12.677.187c-2.635 0-4.402-1.271-4.402-4.342v-18.262h3.906v17.611c0 .93.218 1.55 1.551 1.55.341 0 .434-.03.651-.03v3.255c-.775.155-.93.218-1.706.218zm11.161.03c-3.256 0-4.868-1.86-4.868-4.961v-8.186h-2.945v-3.193h2.945v-4.093l3.876-.961v5.054h4.062v3.193h-4.062v7.845c0 1.24.558 1.768 1.798 1.768.807 0 1.458-.031 2.512-.155v3.256a13.215 13.215 0 0 1-3.318.433zm19.035.031c-1.675 0-2.604-1.054-2.729-2.264-.744 1.303-2.604 2.419-4.899 2.419-3.845 0-5.829-2.419-5.829-5.055 0-3.069 2.388-4.836 5.457-5.054l4.744-.341v-.992c0-1.52-.527-2.543-2.729-2.543-1.798 0-2.853.807-2.945 2.295h-3.752c.217-3.628 3.101-5.24 6.697-5.24 2.76 0 5.116.868 6.046 3.287.403 1.023.466 2.17.466 3.256v5.983c0 .744.248 1.023.898 1.023.248 0 .496-.062.496-.062v2.852c-.65.281-.992.436-1.921.436zm-3.256-7.41l-4.093.31c-1.178.094-2.325.807-2.325 2.108 0 1.24 1.085 2.016 2.294 2.016 2.419 0 4.124-1.302 4.124-3.689v-.745zm18.724 7.162v-9.891c0-1.892-.62-3.039-2.667-3.039-1.364 0-2.264.868-2.79 2.047-.559 1.271-.527 2.945-.527 4.31v6.573h-3.876v-16.123h3.256l.279 2.077c.961-1.705 2.883-2.48 4.743-2.48 3.442 0 5.457 2.419 5.457 5.768v10.759h-3.875zm20.553-2.201c-1.116 1.396-3.07 2.542-5.52 2.542s-4.496-1.178-5.612-2.542c-1.209-1.52-1.767-3.535-1.767-5.892s.558-4.371 1.767-5.891c1.116-1.364 3.163-2.543 5.612-2.543s4.403 1.147 5.52 2.543c.744.961 1.178 2.232 1.24 3.504h-3.814a3.107 3.107 0 0 0-.465-1.488c-.465-.714-1.302-1.21-2.48-1.21-1.054 0-1.829.435-2.356.992-.93 1.023-1.085 2.573-1.085 4.093s.155 3.039 1.085 4.062a3.167 3.167 0 0 0 2.356 1.022c1.179 0 2.016-.496 2.48-1.209.248-.403.435-.899.465-1.488h3.814c-.062 1.273-.496 2.543-1.24 3.505zm11.434 4.961c-.807 2.108-2.14 4.03-4.961 4.03-1.271 0-2.14-.186-2.977-.402v-3.225c1.023.186 1.302.278 2.17.278.714 0 1.458-.248 1.86-1.209l.931-2.264-6.356-16.092h4.248l4.217 11.658 4.03-11.658h3.938l-7.1 18.884z" fill="#FFF"></path></svg>
