<svg viewBox="0 0 32 34" xmlns="http://www.w3.org/2000/svg"><path d="M31.55 13.198c.17.137.188.274.05.41 0 .274-.016.462-.05.565-.035.17-.06.325-.077.462-.018.136-.06.29-.13.46-.033.104-.076.206-.127.31-.05.102-.094.204-.128.307-.07.17-.12.342-.154.513-.034.17-.086.342-.154.513-.068.17-.145.342-.23.513-.086.172-.163.343-.232.514l-.256.103c.17.102.205.24.102.41-.136.205-.24.41-.307.616-.07.205-.137.427-.206.666-.033.068-.076.136-.127.205-.05.068-.094.136-.128.205-.068.068-.11.128-.128.18-.017.05-.043.11-.077.18-.07.204-.17.272-.308.204l-.205.103c.068.034.128.05.18.05.05 0 .11.018.18.052l-.155.307c-.034.068-.06.154-.077.257-.017.102-.06.188-.128.256-.137.137-.24.257-.308.36-.035-.035-.06-.07-.078-.103-.017-.035-.043-.07-.077-.103-.034-.034-.06-.05-.077-.05s-.043-.018-.077-.053c-.067-.17-.17-.187-.307-.05.035.07.086.137.154.205.137.206.29.257.462.154.033.102 0 .24-.104.41-.137.17-.248.333-.333.487-.086.154-.197.316-.334.487-.206.274-.428.54-.667.795-.24.256-.496.487-.77.692-.17.068-.325.154-.462.256-.136.103-.306.154-.512.154-.137 0-.342.07-.615.206-.035-.035-.07-.06-.103-.077-.034-.016-.068-.042-.103-.076.137-.07.223-.103.257-.103h.718c-.034-.067-.05-.144-.05-.23 0-.085-.018-.162-.052-.23-.07.034-.12.068-.154.102-.034.034-.086.05-.154.05-.034 0-.07-.007-.103-.024-.035-.017-.086-.026-.155-.026-.41 0-.598.205-.564.616h.463c-.17.41-.445.684-.82.82-.07.07-.146.112-.232.13-.084.016-.16.06-.23.127-.273.103-.556.205-.846.308-.29.102-.573.188-.847.256-.068.033-.136.033-.205 0-.068-.035-.137-.052-.205-.052-.034 0-.06-.01-.077-.026-.017-.017-.043-.025-.077-.025-.205.136-.393.17-.564.102 0 .033-.01.06-.027.076-.017.017-.026.043-.026.077-.102.07-.222.12-.36.154-.136.034-.238.137-.307.308-.034.034-.076.043-.128.025-.05-.017-.094-.025-.128-.025-.068.137-.12.265-.154.385s-.085.213-.154.282c-.068.068-.154.077-.256.025-.103-.05-.188-.11-.257-.18.137-.033.257-.102.36-.204.068-.07.102-.137.102-.206-.034 0-.06-.017-.077-.05-.017-.035-.06-.052-.128-.052-.07 0-.154-.01-.257-.026-.102-.018-.188-.01-.256.025-.24.068-.377.137-.41.205-.07.17-.137.316-.206.436-.067.12-.136.248-.204.385-.137.172-.222.36-.257.565l-.206-.205v.154c.137.102.137.222 0 .36-.068.136-.145.255-.23.358-.086.103-.146.24-.18.41-.07.24-.188.436-.36.59-.17.154-.307.35-.41.59-.034.137-.102.257-.205.36l-.31.307c0-.035-.05 0-.153.102-.034 0-.085.034-.153.102-.07.035-.112 0-.13-.102-.016-.103-.06-.07-.127.102 0 .035-.05.052-.154.052-.274 0-.41.136-.41.41 0 .17-.07.342-.206.513-.136.17-.29.273-.46.307-.035.034-.12-.017-.258-.154l-.36-.36c-.068-.273-.085-.495-.05-.666 0-.137.025-.265.076-.385.05-.12.11-.248.18-.384.068-.206.017-.325-.154-.36-.035-.034-.12-.085-.257-.154l-.154.154c-.067.07-.144.137-.23.206-.085.068-.162.136-.23.205-.035 0-.052.007-.052.024 0 .018-.017.026-.05.026h-.052c.034.205-.07.376-.308.513-.07.07-.137.128-.205.18-.07.05-.137.11-.206.18 0 .068.017.102.052.102.033 0 .135.017.306.05.035.104.06.198.077.283.017.086.043.197.077.334l-.05.05c.067.104.033.155-.104.155-.478-.17-.803-.41-.974-.718.137-.207.24-.343.307-.412.068-.068.12-.102.153-.102.07-.035.13-.06.18-.077.05-.018.11-.044.18-.078v-.05h-.72c.07-.07.104-.113.104-.13s.017-.042.05-.077c-.067-.068-.136-.128-.204-.18-.068-.05-.05-.162.05-.333l-.204.103c-.138.137-.104.29.102.462-.137.102-.17.205-.103.307.068.103.085.206.05.308-.068 0-.136-.034-.205-.102-.137-.103-.214-.257-.23-.462-.018-.205.042-.376.18-.513.102-.103.144-.18.127-.23-.017-.052-.077-.112-.18-.18-.068-.035-.11-.07-.128-.103-.017-.034-.06-.068-.128-.103.068.205.017.375-.154.512-.068 0-.102.052-.102.154.068.137.068.248 0 .334-.07.085-.137.162-.206.23-.102.274-.24.565-.41.873-.068.068-.154.11-.257.128-.102.018-.188.06-.256.13l-.102-.052c-.068-.07-.136-.128-.205-.18-.068-.05-.154-.11-.256-.18 0 .103.017.172.05.206v.256h-.204c-.274-.068-.41-.29-.41-.666v-.616c0-.205-.018-.41-.052-.616 0-.137-.067-.24-.204-.308-.205-.068-.325 0-.36.206-.102.205-.213.402-.333.59-.12.188-.196.4-.23.64 0 .07-.035.138-.103.206-.137.07-.265.137-.385.205-.12.07-.265.07-.436 0-.07-.033-.138-.016-.206.053-.342.24-.616.188-.82-.154-.138-.275-.223-.548-.257-.822-.035-.274 0-.564.102-.872 0-.137-.052-.257-.155-.36-.068-.102-.162-.196-.282-.28-.12-.087-.23-.18-.333-.284-.17-.24-.376-.24-.616 0 .17.07.23.163.18.283-.052.12-.077.23-.077.333-.035.17-.077.342-.13.513-.05.172-.11.343-.178.514 0 .137-.07.154-.206.05-.07-.033-.17-.05-.308-.05-.308 0-.462-.154-.462-.462-.034-.102-.06-.213-.077-.333-.017-.12-.042-.232-.077-.335 0-.068.035-.17.103-.307 0-.035.008-.052.026-.052.016 0 .024-.017.024-.05.07-.41.137-.753.205-1.027 0-.104.05-.19.153-.257.24-.24.36-.548.36-.924 0-.07.034-.138.102-.206.137-.07.256-.145.36-.23.102-.086.22-.163.358-.232-.102-.102-.17-.188-.205-.256-.103-.17-.12-.29-.05-.36.136-.205.22-.4.255-.59.034-.187.07-.4.103-.64 0-.172.017-.325.05-.462.035-.137.07-.29.104-.462.034-.205.06-.41.077-.616.017-.205.025-.393.025-.564-.034-.17-.188-.36-.46-.564-.104-.07-.215-.12-.335-.154-.12-.034-.23-.086-.333-.154-.206-.103-.308-.24-.308-.41 0-.07-.017-.12-.05-.154-.036-.034-.07-.086-.104-.154l-.205-.41c0-.07-.017-.12-.052-.154-.17-.137-.316-.274-.436-.41-.12-.138-.18-.343-.18-.616-.205-.172-.222-.394-.05-.667H.922c-.068-.137-.102-.223-.102-.257 0-.068.01-.137.026-.205.018-.07.026-.137.026-.205v-.052l.05-.05c.172-.07.224-.112.155-.13-.068-.016-.136-.06-.205-.127l-.103-.104c0-.342-.018-.58-.052-.718-.034-.205-.034-.402 0-.59.034-.188.017-.385-.05-.59-.206-.547-.206-1.13 0-1.744.067-.17.127-.334.178-.488.052-.154.112-.316.18-.487.068-.172.205-.394.41-.668.07-.068.103-.162.103-.282v-.333c.033-.137.05-.257.05-.36 0-.102.017-.205.052-.307 0-.137.017-.223.05-.257.275-.274.41-.58.41-.923v-.103c.138-.137.18-.273.13-.41-.052-.137-.06-.29-.026-.462v-.05c.137-.172.222-.343.256-.514.035-.17.086-.34.154-.512.034-.034.052-.07.052-.103.17-.034.256-.102.256-.205s.034-.205.103-.308c.068-.17.154-.274.256-.308.308-.17.496-.496.564-.974.035-.274.223-.445.565-.513.068 0 .137-.052.205-.154h-.36c.07-.07.112-.146.13-.23.016-.087.06-.18.127-.283.07.273.17.36.308.256.137-.102.257-.12.36-.05.034-.138.05-.31.05-.514.103.068.19.137.257.205.033-.068.06-.128.076-.18.017-.05.043-.11.077-.18l.205.104c.137-.068.205-.136.205-.205-.068-.102-.077-.162-.025-.18.05-.016.11-.042.18-.076l.615-.31h.308v-.1c.274-.07.48-.104.616-.104v.05c.07-.136.103-.22.103-.255.067-.068.12-.128.153-.18.034-.05.12-.042.256.027.102.102.187.102.256 0 .068-.103.137-.188.205-.257.138-.137.275-.265.41-.384.138-.12.275-.265.412-.437.068-.07.137-.12.205-.154.068-.035.137-.086.205-.154-.205-.07-.29-.103-.256-.103.034 0 .05-.01.05-.027s.018-.025.052-.025c.137 0 .248-.034.334-.103.085-.068.18-.137.282-.205.137-.068.282-.128.436-.18.154-.05.316-.11.487-.18 0 .035.034.052.103.052 0 .034-.034.086-.103.154h-.154c.07.205.223.274.462.205.068-.067.163-.11.282-.127.12-.017.146-.11.077-.282.17-.033.35-.06.54-.076.187-.017.366-.06.538-.128l.46-.154c.07-.07.104-.086.104-.05.17 0 .29-.036.36-.104.033 0 .05-.068.05-.205.034-.035.05-.103.05-.206h.053c.067.206.1.36.1.462.24.033.463.06.668.076.206.017.41.043.616.077h.41c.137 0 .29-.017.462-.05.24-.07.427-.018.564.153.07.068.137.068.206 0 .17-.07.316-.086.436-.052.12.035.247.086.384.154 0 .034.01.052.026.052.017 0 .026.017.026.05 0 .035.017.052.05.052.104 0 .257-.034.463-.102h.437c.12 0 .265-.018.436-.052.137 0 .205.017.205.052.103.17.256.256.462.256.068 0 .12.01.154.026.034.017.085.008.153-.026l.36.36c.136-.138.247-.172.333-.103.085.068.162.136.23.205.07.068.13.102.18.102.052 0 .11.035.18.103v-.36c.137 0 .24.018.308.052.068 0 .136.034.205.103.068-.274.103-.445.103-.513h.102c.034.273.145.453.334.538.188.086.367.18.538.283.07 0 .137-.035.205-.103-.034 0-.05-.017-.05-.05h.77c.067.1.187.17.358.204.17.034.325 0 .46-.103-.135-.068-.255-.136-.358-.205l-.308-.206c.172-.07.317-.05.437.05.12.104.247.19.384.258s.282.102.436.102c.154 0 .265.086.334.257h.46c.104.172.258.377.463.616.035-.034.078-.06.13-.077.05-.018.11-.043.18-.078V3.4c.204.137.34.24.41.308.205.137.358.256.46.36-.136.067-.196.16-.178.28.017.12.042.25.076.386 0 .102.018.205.052.308.034.102.137.188.308.256-.07.068-.12.103-.154.103s-.07.018-.103.052c.138.103.258.214.36.333.103.12.205.248.308.385.068.034.128.043.18.026.05-.017.11-.01.18.025v.207c.102-.035.18-.026.23.025.05.052.085.12.103.205.018.086.043.154.077.206.035.05.103.077.206.077l.05.102c.035.137.06.274.078.41.018.137.044.274.078.41 0 .035.008.07.026.104.017.034.025.068.025.102.17.07.29.17.358.308l.206.41c.102.17.222.334.36.488.135.154.187.35.153.59.136.068.205.18.205.333 0 .154.034.3.102.436.07.17.103.35.103.54 0 .187.017.366.05.537.035.172.06.36.078.565.017.205.026.393.026.564 0 .136-.016.256-.05.358zM2.564 31.358c.17-.102.214-.205.128-.307-.085-.102-.11-.205-.077-.307-.102 0-.17.034-.205.102-.033.07-.016.12.052.154.103.068.146.128.13.18-.018.05-.027.11-.027.178zM7.13 9.864c-.102 0-.222.034-.358.102v.103h.46l-.1-.206zm-.256.36c-.068.067-.137.11-.205.127-.07.018-.138.06-.206.13.068.068.154.128.256.18l.36.178c-.07-.136-.112-.256-.13-.36-.016-.1-.042-.187-.076-.255zm-.615.666c.067.068.135.12.204.154.068.034.137.085.205.153.067-.068.11-.12.127-.153.017-.035.06-.086.13-.154h-.668zm-.207-.718c0 .068-.034.24-.102.513.172-.172.266-.274.283-.308.017-.034-.01-.103-.077-.205h-.103zm-.205 3.334c-.137-.068-.23-.077-.282-.026l-.18.18v.102c.07-.034.146-.05.23-.05.087 0 .164-.018.232-.052v-.154zm-3.95 2.514c-.137.034-.248.05-.333.05-.086 0-.18.018-.282.052.205.206.41.17.615-.102zm.154 2.052c.034 0 .06-.017.077-.052.016-.034.06-.068.127-.102l-.154-.154c-.034-.034-.085-.05-.154-.05-.07.033-.112.058-.13.076-.016.017-.06.042-.127.077-.068.034-.154.05-.257.05v.103c.103 0 .206.01.308.026.103.017.205.026.308.026zm.564-.616c.07-.205.103-.325.103-.36 0-.136-.087-.17-.258-.102-.068 0-.153.018-.256.052-.103.034-.188.068-.257.102 0 .035.008.06.025.077s.026.043.026.077c.035.034.018.086-.05.154.068-.034.12-.043.153-.026.035.018.07.01.103-.025.034-.034.06-.07.077-.103.017-.034.043-.068.077-.102.068.034.11.068.128.102.017.034.06.086.128.154zm.154-7.85c.034.035.052.07.052.104.102-.034.213-.06.333-.077.12-.017.23-.043.333-.077v-.05c-.136 0-.256.007-.36.024-.1.017-.22.043-.358.077zm4.515 9.338c.102-.17.196-.35.282-.54.085-.187.162-.366.23-.537h.206c.034-.07.05-.12.05-.154 0-.035.018-.07.052-.103.07-.068.154-.145.257-.23.103-.086.188-.18.256-.283.206-.308.394-.633.565-.975.068-.137.068-.29 0-.46-.07-.172-.17-.292-.308-.36-.24-.103-.462-.19-.667-.257-.376-.103-.7-.342-.975-.718l.052-.103c-.07.034-.154.05-.257.05-.103-.17-.197-.264-.282-.28-.086-.018-.248.008-.487.076-.07.035-.13.103-.18.205-.052.103-.112.19-.18.257-.137-.034-.163-.103-.077-.205.085-.103.094-.17.025-.205-.137-.07-.248-.13-.333-.18-.086-.05-.18-.11-.282-.18-.07.206-.103.377-.103.513-.103.035-.256.052-.462.052l-.05.102c0 .17-.044.307-.13.41-.085.102-.18.205-.28.308-.104.068-.155.17-.155.307-.034.07-.043.154-.026.257.017.103.01.188-.026.256 0 .17-.05.36-.153.565-.034.068-.076.12-.128.154-.052.034-.112.085-.18.153.034.07.068.13.102.18.035.05.07.11.103.18-.034.034-.103.05-.205.05 0 .206-.017.36-.052.463h-.05c-.035-.035-.06-.07-.078-.103-.017-.034-.043-.068-.077-.103l-.102-.102c-.034.034-.05.068-.05.102v.308c0 .103.033.188.102.257h.05v-.103l.053-.052c.068.068.11.128.128.18.017.05.06.11.128.18.138.033.206.153.206.358 0 .068.01.137.026.205.017.07.043.104.077.104.136.034.264.102.384.205.12.102.265.085.436-.052h.205c.068-.034.205-.052.41-.052-.068.07-.137.12-.205.154-.103.103-.205.17-.308.205h.308c.068.035.11.052.128.052.017 0 .06.017.128.05.137-.136.223-.204.257-.204s.137.068.308.205c.206-.137.326-.24.36-.308 0-.068.043-.136.128-.205.086-.068.01-.137-.23-.205.068-.034.11-.07.128-.103.017-.034.06-.068.128-.102.137.137.23.162.282.077.05-.086.128-.163.23-.23 0 .067-.008.12-.025.153-.016.034-.007.085.027.154 0 .135.05.22.154.255 0 .034.026.043.078.026.05-.016.077-.042.077-.076zm1.077 6.977c.17-.41.342-.854.513-1.333.034-.17.094-.325.18-.462.085-.137.06-.29-.078-.462-.24-.41-.478-.46-.718-.153-.206.205-.377.436-.514.692-.137.257-.222.556-.256.898l.102.41c.035.137.086.29.154.462.07.205.188.273.36.205.102-.068.187-.154.256-.256zm.718 6.72c.103-.033.163-.093.18-.18.017-.084-.01-.16-.077-.23-.034 0-.07.01-.103.026-.034.017-.085.026-.154.026.07.102.07.162 0 .18-.068.016-.12.06-.154.128.07.136.12.205.154.205l.154-.154zm.564-6.412c.17-.24.12-.427-.154-.564.035.103.06.197.077.282.018.086.043.18.077.282zm2.617-1.282c.103-.17.07-.342-.102-.513-.103-.137-.29-.308-.564-.513-.17-.17-.342-.154-.513.05-.102.172-.213.36-.333.566-.12.205-.23.393-.333.564-.034.068-.06.137-.077.205-.017.068-.043.137-.077.205.068.137.12.257.154.36.034.102.085.222.154.358.102.17.248.283.436.334.188.05.367.008.54-.128.204-.137.34-.257.41-.36.067-.068.102-.128.102-.18 0-.05.017-.11.05-.18.035-.135.052-.264.052-.383 0-.12.034-.247.103-.384zm1.335 6.874c-.137.17-.214.29-.23.36-.018.068.007.187.076.358 0 .034.018.07.052.103.068 0 .103-.016.103-.05.034-.035.05-.06.05-.077s.035-.06.103-.13c-.068-.067-.102-.152-.102-.255-.034-.068-.05-.17-.05-.308zm-.052 1.13c.137 0 .257-.018.36-.053v-.153c-.138 0-.24.017-.308.05-.035 0-.086.035-.154.103.035 0 .052.01.052.026 0 .017.017.026.05.026zm1.642-2.105l.102-.102c-.068-.137-.136-.24-.205-.308l-.154.308c.137.068.223.102.257.102zm.46.77c-.033-.137-.007-.248.078-.334.086-.084.043-.178-.128-.28-.17.17-.248.29-.23.358.016.07.11.154.28.257zm4.978-12.928c.102-.137.188-.273.256-.41.067-.137.17-.274.307-.41.17-.172.3-.35.385-.54.085-.187.162-.384.23-.59 0-.17.035-.358.103-.563.068-.308.077-.513.026-.616-.05-.103-.213-.222-.487-.36l-.102-.102c-.34-.17-.666-.36-.974-.564-.308-.205-.633-.393-.975-.564-.135-.07-.187-.154-.153-.257.07-.067.052-.1-.05-.1h-.155c-.068.067-.154.084-.256.05-.137 0-.265-.01-.385-.026-.12-.017-.247-.008-.384.026-.273.068-.53.145-.77.23-.24.086-.495.163-.77.232-.238.068-.41.17-.512.307-.137.17-.29.333-.46.487-.172.154-.275.367-.31.64-.033 0-.05.018-.05.052-.137.068-.206.162-.206.28v.386c.07.034.146.05.23.05.087 0 .18.02.283.053-.067.033-.118.05-.153.05-.034 0-.068.017-.102.05-.17.07-.274.155-.308.258-.103.308-.205.667-.308 1.077.033.07.068.163.102.282.034.12.068.23.102.334-.17.103-.307.206-.41.31-.103.1-.222.204-.36.306h.31v.36c.17-.035.247-.01.23.076-.018.086-.026.163-.026.23v.335c0 .12.102.18.308.18.137-.035.222.025.256.18.034.153.017.28-.05.384l.307.155c.067.034.153.06.255.076.103.02.188.06.257.13.102.068.188.128.256.18.07.05.154.093.257.128.273.102.538.162.795.18.256.016.504-.06.744-.232.273-.24.538-.47.795-.692.255-.223.503-.453.743-.693.41-.41.803-.854 1.18-1.333zm.41 2.052c-.24.24-.188.46.154.666v-.308c-.034-.068-.043-.11-.026-.128.018-.017.027-.06.027-.128v-.154c-.034.034-.086.05-.154.05zm.36 6.207c.17-.07.315-.112.435-.13.12-.016.265-.06.436-.127-.068-.068-.11-.12-.128-.154-.017-.034-.06-.085-.128-.154 0 .137-.01.206-.026.206-.017 0-.094.017-.23.05-.07.035-.13.07-.18.103-.052.036-.11.07-.18.104v.103zm.563-5.9c.137-.137.24-.256.308-.36-.068-.033-.128-.05-.18-.05-.05 0-.11-.017-.18-.052 0 .07-.007.137-.025.206-.018.07-.026.137-.026.206 0 .034.017.05.05.05h.052zm-.153-.718c.307.17.512.102.615-.206-.103-.103-.188-.154-.256-.154-.07 0-.13.008-.18.025-.05.018-.11.026-.18.026 0 .172-.042.258-.128.258-.085 0-.213.017-.385.05l.102.206c.034-.034.06-.05.077-.05.016 0 .042-.018.076-.053l.257-.1zm.82-1.386c.035 0 .103-.05.205-.154-.102-.07-.188-.12-.256-.154s-.154-.085-.256-.154c0 .24.102.393.307.462zm.41 6.823c-.068.068-.06.154.026.256.085.103.196.17.333.205-.17-.102-.23-.196-.18-.282.052-.085.094-.18.128-.282l-.05-.05-.256.153zm2.668-2.257c-.033 0-.084.085-.153.256l.052.05.46-.153c-.205-.136-.324-.188-.36-.153zm.976.307c.068-.137.17-.23.308-.282.137-.05.154-.162.05-.333-.238-.137-.41-.13-.512.025-.103.154-.24.265-.41.334l.102.31c-.308 0-.478.135-.513.41 0-.035-.05 0-.153.102l-.102.102.154.154h.307c-.103-.24-.052-.325.153-.256.103 0 .197-.01.283-.026.085-.017.094-.11.025-.282-.034 0-.043-.017-.025-.05.017-.036.042-.053.076-.053.034-.067.076-.1.128-.1.05 0 .094-.02.128-.053zm.36-9.336l.102-.05c-.034-.07-.052-.112-.052-.13 0-.016-.017-.06-.05-.127-.07.034-.138.06-.206.077-.07.017-.137.043-.205.077v.102c.137-.07.222-.103.256-.103l.155.154zm.512 8.465c0-.068-.034-.17-.102-.308-.035.035-.077.052-.13.052-.05 0-.076.016-.076.05 0 .068.01.145.026.23.017.086.026.18.026.283l.154-.154c.034-.035.068-.086.102-.155zm.513-2.72c.138.138.215.19.232.155.017-.034.06-.154.128-.36-.068.07-.128.112-.18.13-.05.016-.11.042-.18.076zm.925-1.076c0-.138-.24-.292-.72-.463l-.1.206c-.035.068-.087.153-.155.256.17-.035.333-.086.487-.155.154-.068.316-.017.488.154zM29.6 17.3c.103-.102.17-.188.205-.256l-.308-.154v.41h.103zm-17.39 15.8c0 .035-.018.052-.052.052.068 0 .137.034.205.102-.034.035-.05.06-.05.077 0 .018-.018.043-.052.077-.102.103-.204.19-.307.257.034-.103.06-.188.077-.257.017-.068.043-.136.077-.205h-.103c0-.068-.008-.128-.025-.18-.02-.05-.027-.11-.027-.18l.103-.05h.102c.034.068.05.17.05.308z" fill="#000" fill-rule="evenodd"/></svg>
